<?xml version="1.0" standalone="no"?>
<!DOCTYPE svg PUBLIC "-//W3C//DTD SVG 1.1//EN" "http://www.w3.org/Graphics/SVG/1.1/DTD/svg11.dtd" >
<svg xmlns="http://www.w3.org/2000/svg" xmlns:xlink="http://www.w3.org/1999/xlink" version="1.1">
<metadata>
Created by FontForge 20150824 at Thu Apr 28 01:52:21 2016
 By Everything Fonts
(c) Copyright 2005 by Tong Duc Thinh. All Rights Reserved
</metadata>
<defs>
<font id="SFURhythmRegular" horiz-adv-x="2269" >
  <font-face 
    font-family="SFURhythmRegular"
    font-weight="400"
    font-stretch="normal"
    units-per-em="2269"
    panose-1="0 0 4 0 0 0 0 0 0 0"
    ascent="1815"
    descent="-454"
    x-height="1166"
    cap-height="1497"
    bbox="-123 -456 2148.05 2494"
    underline-thickness="10"
    underline-position="-92"
    unicode-range="U+0020-F002"
  />
<missing-glyph horiz-adv-x="1135" 
d="M142 0v2494h851v-2494h-851zM284 142h567v2210h-567v-2210z" />
    <glyph glyph-name=".notdef" horiz-adv-x="1135" 
d="M142 0v2494h851v-2494h-851zM284 142h567v2210h-567v-2210z" />
    <glyph glyph-name=".null" horiz-adv-x="0" 
 />
    <glyph glyph-name="glyph2" horiz-adv-x="200" 
 />
    <glyph glyph-name="space" unicode=" " horiz-adv-x="200" 
 />
    <glyph glyph-name="exclam" unicode="!" horiz-adv-x="637" 
d="M60 70v399h518v-397q0 -52 -148 -97q-46 -14 -115 -14q-50 0 -90 10q-165 41 -165 99zM565 576l-495 -4v794q0 53 100 105q66 34 174 34q109 0 182 -69q39 -37 39 -49v-811z" />
    <glyph glyph-name="quotedbl" unicode="&#x22;" 
 />
    <glyph glyph-name="numbersign" unicode="#" horiz-adv-x="1417" 
d="M1344 1296v-874q0 -42 -4 -74q-14 -111 -65 -192q-90 -143 -376 -187q-68 -11 -141 -12q-78 -2 -147 4q-364 29 -464 189q-54 86 -69 221q-4 35 -4 57v940q0 84 197 117q14 1 41 5q5 0 9 1h7q115 0 178 -29q99 -45 99 -98v-987q0 -25 16 -51q30 -36 74 -37q27 -1 65 18
q53 26 53 80v983q0 51 127 99q9 3 88 20q51 5 88 4q70 -2 136 -31l26 142q5 29 93 32q47 2 91 -18q63 -29 61 -51l-34 -185zM877 -365q-24 -88 -49 -88h-233q-28 0 -54 67q-7 18 -13 67q0 73 20 125q22 57 45 57h224q25 0 52 -69q14 -36 14 -106q0 -31 -6 -53z" />
    <glyph glyph-name="dollar" unicode="$" horiz-adv-x="1497" 
d="M649 1481l27 2v96q0 55 64 57q67 2 67 -53v-98l146 -21l59 -4q6 -1 13 -2q2 0 19 -3q49 -8 95 -25q148 -54 213 -172q45 -82 45 -142q0 -109 -137 -131q-58 -9 -140 -10q-165 -1 -223 71q-17 21 -37 81q-9 25 -51 55q-12 -55 -12 -113q0 -55 12 -125l53 -16l43 -14
l185 -52l67 -22q32 -10 60 -23q126 -56 170 -148q37 -77 37 -228q0 -393 -562 -452q-17 -2 -55 -4v-96q0 -53 -67 -51q-62 2 -62 53v98q-18 1 -65 4q-309 31 -426 138q-58 53 -82 133q-13 42 -13 72q-1 139 236 150q44 2 98 -7q73 -12 87 -16q78 -21 106 -117q5 -18 51 -41
q10 57 10 111q0 58 -8 94l-18 10l-15 9h-2l-156 41q-18 4 -63 18q-240 84 -309 225q-35 71 -35 170q0 45 4 76q27 213 166 312q63 45 201 81q35 9 137 21zM672 989l8 93q2 23 2 73q-3 9 -10 13q-61 0 -70 -84q0 -76 70 -95zM809 463q-1 -5 -8 -39q0 -79 8 -117q71 0 72 84
q-13 61 -72 72z" />
    <glyph glyph-name="percent" unicode="%" horiz-adv-x="2208" 
d="M475 735q-402 39 -415 392q-5 141 56 255q117 219 429 216q144 -1 231 -41q242 -110 246 -367q1 -76 -20 -143q-98 -314 -453 -316q-32 0 -74 4zM684 -60q-87 9 -88 60l729 1475q32 65 125 65q51 0 88 -26q11 -8 11 -39l-734 -1475q-29 -59 -131 -60zM1602 -11
q-404 41 -416 392q-10 298 222 417q111 56 261 54q238 -3 373 -131q103 -98 106 -276q1 -77 -20 -144q-99 -313 -453 -316q-31 0 -73 4zM457 1139q8 -105 76 -107q81 -3 84 172q-12 99 -78 101q-86 2 -86 -121q0 9 4 -45zM1600 328q18 -41 61 -41q79 0 80 174q-4 28 -10 45
q-18 53 -66 53q-8 0 -20 -4q-65 -22 -66 -114q-1 -64 21 -113z" />
    <glyph glyph-name="ampersand" unicode="&#x26;" horiz-adv-x="1649" 
d="M348 709l33 12q-176 161 -176 365q0 149 100 255q92 96 244 134q68 17 158 20q60 2 98 2q336 0 461 -160q65 -83 65 -184q0 -119 -90 -231q-48 -59 -182 -144q-18 -9 -43 -24l151 -121l64 61q37 35 53 48q53 42 131 45q53 2 70 -4q127 -21 127 -91q0 -16 -56 -67
q-11 -10 -36 -33l-86 -76l-51 -41l-41 -34l251 -258q27 -28 27 -64q0 -105 -199 -134q-92 -13 -131 -14q-94 -2 -252 89q-47 27 -90 75q-104 -124 -317 -154q-58 -8 -125 -6q-162 5 -254 50q-211 103 -211 293q0 100 68 211q44 71 102 111q36 25 137 69zM805 981
q104 26 104 146q0 86 -83 110q-22 6 -39 6q-80 -2 -80 -86q0 -21 4 -30q5 -20 29 -60q37 -61 65 -86zM592 490q-69 -7 -70 -82q-1 -54 48 -92q45 -35 100 -35q56 0 100 35l-22 24l-35 35l-35 37l-22 22l-29 27z" />
    <glyph glyph-name="quotesingle" unicode="'" horiz-adv-x="621" 
d="M152 942q-55 18 -74 47q-18 26 -18 86v320q0 59 176 94q36 7 100 6q52 -1 88 -10q137 -35 137 -80v-379l-419 -362l-33 43l76 227q-20 4 -33 8z" />
    <glyph glyph-name="parenleft" unicode="(" horiz-adv-x="891" 
d="M219 37q-145 80 -145 281v860q0 188 145 267q55 30 135 30h322q142 0 174 -57q17 -30 25 -97q0 -107 -56 -156q-48 -43 -159 -55q-56 -6 -56 -65v-615q0 -19 11 -30q10 -15 44 -39q21 -5 89 -19q129 -27 129 -196q0 -48 -41 -97q-34 -41 -89 -46q-33 -3 -104 -3h-301
q-56 0 -123 37z" />
    <glyph glyph-name="parenright" unicode=")" horiz-adv-x="891" 
d="M229 371q58 6 58 63v615q0 16 -11 33q-17 27 -34 34q-13 5 -99 21q-127 23 -129 196q-1 47 41 95q34 39 89 44q33 3 104 3h301q68 0 134 -44q63 -42 96 -104q38 -72 38 -168v-862q0 -101 -41 -164q-87 -133 -239 -133h-324q-141 0 -173 56q-21 37 -24 102q-3 64 22 114
q42 83 191 99z" />
    <glyph glyph-name="asterisk" unicode="*" horiz-adv-x="946" 
d="M334 1276q26 -17 43 -35q-15 29 -43 119q-8 26 -16 82q0 72 131 74q27 0 90 -11q53 -10 53 -92q0 -42 -16 -135q-2 -13 -10 -43q95 61 199 99q8 3 15 3q62 0 93 -114q12 -44 12 -74q0 -73 -88 -92q-45 -10 -127 -12q-28 -1 -41 2q14 -8 31 -21q120 -96 120 -153
q0 -47 -69 -109q-61 -55 -113 -55q-56 0 -96 114q-32 91 -35 132q-2 -22 -12 -50q-65 -183 -143 -184q-14 0 -31 6q-137 50 -137 158q0 49 69 100q60 44 96 56q-50 0 -131 14q-41 7 -77 18q-53 16 -54 103q-1 68 49 145q21 32 62 33q57 1 176 -78z" />
    <glyph glyph-name="plus" unicode="+" 
 />
    <glyph glyph-name="comma" unicode="," horiz-adv-x="627" 
d="M103 19q-43 44 -43 96v319q0 62 176 97q38 8 104 6q54 -1 88 -10q140 -35 140 -80v-381l-420 -363l-33 43l78 227q-50 6 -90 46z" />
    <glyph glyph-name="hyphen" unicode="-" horiz-adv-x="930" 
d="M150 793q26 12 55 12l563 -4q41 0 78 -80q22 -48 23 -119q1 -69 -32 -129q-40 -73 -103 -73h-553q-63 0 -96 79q-26 61 -25 132q2 140 90 182z" />
    <glyph glyph-name="hyphen" unicode="&#x2010;" horiz-adv-x="930" 
d="M150 793q26 12 55 12l563 -4q41 0 78 -80q22 -48 23 -119q1 -69 -32 -129q-40 -73 -103 -73h-553q-63 0 -96 79q-26 61 -25 132q2 140 90 182z" />
    <glyph glyph-name="period" unicode="." horiz-adv-x="621" 
d="M199 -23q-139 37 -139 79v370q0 42 106 84q46 18 107 21q41 2 98.5 -6t99.5 -25q90 -36 90 -72v-356q0 -39 -110 -82q-59 -23 -168 -23q-47 0 -84 10z" />
    <glyph glyph-name="slash" unicode="/" horiz-adv-x="1010" 
d="M59 -45q-30 32 -30 45l729 1475q25 51 90 63q55 0 64 -2q69 -24 69 -61l-733 -1475q-5 -13 -19 -29q-49 -55 -96 -55q-37 0 -74 39z" />
    <glyph glyph-name="zero" unicode="0" horiz-adv-x="1436" 
d="M82 426q-4 47 -4 82v371q0 34 4 82q22 263 181 359q170 103 454 103q240 0 408 -78q143 -66 193 -207q26 -74 36 -177q4 -42 4 -82v-371q0 -39 -4 -82q-25 -265 -203 -374q-147 -89 -434 -89q-286 0 -453 103q-160 98 -182 360zM609 365q0 -95 106 -95q111 0 111 95v657
q0 96 -111 94q-106 -1 -106 -94v-657z" />
    <glyph glyph-name="one" unicode="1" horiz-adv-x="1438" 
d="M825 1419q102 -28 137 -48q70 -41 70 -115v-1162q0 -59 -143 -104q-34 -11 -96 -13q-19 -1 -72 -2q-121 -1 -178 25q-90 42 -90 105v970h-271q-42 31 -43 113q13 57 71 88q24 13 126 59l151 68q80 23 164 31q31 0 41 2q70 0 133 -17z" />
    <glyph glyph-name="two" unicode="2" horiz-adv-x="1434" 
d="M742 492q-135 -38 -160 -156l641 -2q59 0 96 -45q34 -41 35 -102q1 -31 -10 -66q-37 -121 -93 -121h-1093q-75 0 -76 152q0 26 8 117q23 256 205 399q106 83 287 170q85 41 127 57q29 11 60 53q11 15 16 27q13 32 14 55q3 87 -82 101q-66 0 -92 -17l-51 -90
q-37 -65 -80.5 -89.5t-120.5 -25.5q-36 -1 -133 11q-152 18 -154 141q-1 50 31 111q90 172 329 241q121 35 269 35q67 0 137 -8q113 -13 186 -41q136 -52 195 -110q66 -67 98 -199q10 -41 10 -90q0 -43 -4 -62q-27 -229 -256 -336q-33 -15 -65 -26l-12 -4l-170 -54z" />
    <glyph glyph-name="three" unicode="3" horiz-adv-x="1436" 
d="M1299 920q-56 -140 -193 -180q28 -7 66 -27q177 -95 172 -322q-5 -232 -226 -342q-169 -84 -428 -84h-53q-100 0 -180 18q-294 66 -362 222q-33 75 -33 121q0 115 217 143q31 4 51 4q25 0 55 -4q158 -21 206.5 -100.5t84.5 -79.5q24 0 62 16q45 19 47 136
q-17 126 -191 127q-101 1 -145 43.5t-41 142.5q4 137 162 137q31 0 41 -2q176 0 178 131q-4 46 -33 80.5t-74 34.5q-35 0 -79 -31q-23 -16 -70 -63q-41 -41 -156 -41q-36 0 -98 8q-36 5 -74 18q-85 30 -86 111q-1 67 72 147q106 116 271 147q113 21 237 21h43q221 0 381 -75
q209 -99 211 -295q1 -73 -35 -162z" />
    <glyph glyph-name="four" unicode="4" horiz-adv-x="1436" 
d="M74 283q-71 54 -72 131q-1 50 35 125l365 764q27 57 159 102q95 33 240 29q134 -3 229 -38q146 -53 146 -231v-579h65q129 0 129 -148q0 -31 -6 -65q-23 -131 -123 -131h-82v-172q0 -37 -118 -80q-52 -19 -127 -21t-143 20q-130 42 -130 93v164h-504q-14 0 -63 37z
M393 594l248 -2v471z" />
    <glyph glyph-name="five" unicode="5" horiz-adv-x="1440" 
d="M754 307q33 31 33 121v228q0 44 -64 61q-23 6 -39 6q-42 0 -94 -80q-42 -65 -209 -65q-44 0 -98 8q-123 18 -123 125v624q0 87 168 86l817 -4q61 0 97 -51q33 -44 34 -108q2 -105 -44 -146q-43 -37 -150 -37h-453v-163q44 25 106 47q102 25 181 24q272 -4 378 -231
q45 -97 46 -215q0 -18 -3 -58q-25 -321 -284 -446q-137 -66 -311 -66h-56q-323 0 -477 154q-58 43 -96 135q-17 41 -17 76q0 114 148 139q75 13 131 13q171 1 231 -113q9 -17 39 -62q21 -26 54 -26q30 0 55 24z" />
    <glyph glyph-name="six" unicode="6" horiz-adv-x="1436" 
d="M805 1055q-48 59 -98 59q-22 0 -53 -17q-35 -19 -35 -38v-213q37 15 63 23q143 45 269 45q199 0 319.5 -116t118.5 -314q-1 -75 -27 -152q-83 -244 -324 -321q-130 -42 -317 -42q-348 0 -489 97q-171 117 -191 442q-2 33 -2 53v52l2 198q1 96 26 209q30 135 75 191
q71 88 150 132q70 38 190 62q93 19 288 21q47 1 76 -2q283 -26 396 -118q59 -48 94 -118q16 -40 16 -68q1 -99 -146 -124q-136 -23 -206 -23q-129 0 -195 82zM621 410q11 -120 96 -119q90 1 90 141v95q0 100 -76 122q-110 0 -110 -79v-160z" />
    <glyph glyph-name="seven" unicode="7" horiz-adv-x="1436" 
d="M127 1286q32 127 80 127l975 2q54 0 82 -60q22 -47 22 -108q0 -14 -6 -26l-450 -1149q-36 -92 -285 -99q-13 0 -45 2q-77 6 -113 19q-102 38 -102 100q0 9 4 21l328 966h-414q-58 0 -78 123q-3 19 -4 39q-1 16 6 43z" />
    <glyph glyph-name="eight" unicode="8" horiz-adv-x="1442" 
d="M229 746l39 18q-17 6 -26 12q-153 90 -154 244q0 49 17 115q52 197 298 280q133 45 302 47q157 2 290 -30q242 -58 324 -205q39 -70 39 -150q0 -51 -23 -120q-35 -105 -127 -175q-21 -16 -47 -28q21 -5 56 -19q198 -81 198 -288q0 -86 -39 -178q-50 -118 -162 -186
q-81 -49 -233 -89q-125 -33 -252 -33q-44 0 -55 2q-216 8 -340 60q-271 114 -303 329q-4 27 -4 64q0 219 202 330zM627 445q0 -152 94 -152q89 0 96 115q2 33 2 45q0 155 -98 153q-94 -1 -94 -161zM627 985q0 -104 98 -104q96 0 96 104q0 107 -92 109q-17 0 -37 -6
q-65 -21 -65 -103z" />
    <glyph glyph-name="nine" unicode="9" horiz-adv-x="1436" 
d="M740 291q71 15 71 51v211q-10 -4 -35 -13q-8 -3 -28 -9q-139 -45 -266 -45q-279 0 -388 203q-53 98 -53 227q0 71 27 151q83 245 325 322q130 41 316 41q216 0 336 -31q192 -49 266 -185q63 -115 76 -321q4 -64 4 -55v-125l-4 -125q-4 -115 -15 -172q-29 -147 -86 -227
q-77 -109 -189 -153q-64 -25 -149 -42q-34 -7 -69 -12q-78 -12 -154 -13q-48 -1 -141 8q-290 27 -398 116q-56 46 -92 118q-18 36 -18 70q0 99 148 123q123 20 184 20q129 0 217 -80q58 -52 115 -53zM623 969v-96q0 -101 76 -123q106 0 108 81l2 70v90q-12 118 -98 117
q-56 -1 -75 -45q-13 -30 -13 -94z" />
    <glyph glyph-name="colon" unicode=":" horiz-adv-x="668" 
d="M76 70v399h518v-397q0 -52 -147 -97q-46 -14 -113 -14q-51 0 -90 10q-168 43 -168 99zM74 682v398q0 52 148 96q41 12 116 12q58 0 88 -8q166 -44 166 -98v-400h-518z" />
    <glyph glyph-name="semicolon" unicode=";" horiz-adv-x="670" 
d="M74 682v398q0 52 150 96q41 12 114 12q59 0 90 -8q166 -43 166 -98v-400h-520zM74 115v356h522v-405l-434 -363l-32 43l77 227q-52 6 -92.5 48t-40.5 94z" />
    <glyph glyph-name="less" unicode="&#x3c;" 
 />
    <glyph glyph-name="equal" unicode="=" 
 />
    <glyph glyph-name="greater" unicode="&#x3e;" 
 />
    <glyph glyph-name="question" unicode="?" horiz-adv-x="1274" 
d="M1045 776q-63 -29 -79 -43q-32 -28 -32 -79v-78h-520v131q0 84 84 172q22 23 49 43l69 51q48 35 61 50q29 33 30 71q1 64 -58 88q-20 8 -39 8q-50 0 -69 -43q-12 -28 -19 -57q-22 -96 -101 -122q-42 -14 -167 -13q-240 2 -240 163q0 19 4 58q2 20 11 51q17 59 63 113
q135 159 533 165q55 1 98 -2q199 -13 262 -34q260 -86 260 -332q0 -40 -2 -58q-24 -223 -198 -303zM582 -29q-166 43 -166 99v399h518v-397q0 -52 -148 -97q-46 -14 -114 -14q-51 0 -90 10z" />
    <glyph glyph-name="at" unicode="@" horiz-adv-x="1417" 
d="M78 371l-4 57v940q0 84 197 117q14 1 41 5q5 0 9 1h7q115 0 178 -29q99 -45 99 -98v-987q0 -25 16 -51q30 -36 74 -37q27 -1 65 18q53 26 53 80v983q0 51 127 99q9 3 88 20q51 5 88 4q41 -1 86 -14q142 -41 142 -144v-913q0 -42 -4 -74q-14 -111 -65 -192
q-90 -143 -376 -187q-68 -11 -141 -12q-78 -2 -147 4q-364 29 -464 189q-60 96 -69 221zM1080 1950l-112 -117l-263 -254l1 74l45 128q-15 1 -15 78l164 201q40 11 69 11q26 0 43 -9q68 -34 68 -112z" />
    <glyph glyph-name="A" unicode="A" horiz-adv-x="1346" 
d="M217 -19q-246 15 -246 148l305 1141q26 98 72 141q40 38 143 70q78 25 173 26q105 2 172 -14q213 -49 241 -162l297 -1202q0 -68 -88 -114q-65 -34 -174 -34q-285 0 -305 161l-12 96q-69 10 -123 10q-70 0 -129 -10l-25 -84q-30 -101 -88 -139q-54 -35 -164 -36
q-13 0 -49 2zM594 559q44 -12 86 -12q43 0 84 12l-92 465z" />
    <glyph glyph-name="B" unicode="B" horiz-adv-x="1467" 
d="M156 0q-82 0 -82 111v1280q0 84 111 84h764q209 0 310 -75q117 -86 117 -286q0 -45 -4 -88q-11 -118 -110 -207q-37 -33 -88 -55q-4 -2 -43 -14q11 -7 26 -14q125 -62 180 -122q72 -79 72 -198q0 -36 -6 -80q-40 -293 -356 -332q-32 -4 -70 -4h-821zM629 1133
q-3 -35 -4 -97q0 -17 2 -77q0 -3 4 -60h49q152 0 154 109q0 22 -10 49q-29 76 -146 76h-49zM621 590q-4 -76 -4 -129q0 -50 4 -127h72q163 0 163 113q0 15 -6 39q-26 104 -166 104h-63z" />
    <glyph glyph-name="C" unicode="C" horiz-adv-x="1426" 
d="M74 457v508q0 42 6 84q35 243 185 353q131 96 389 114q39 3 71 4q7 0 54 -2q202 -10 292 -45q208 -82 275 -250q39 -98 39 -170q0 -154 -189 -178q-40 -5 -104 -4q-182 3 -230 96q-25 48 -32 135q-4 52 -64 82q-6 3 -26 8q-94 0 -117 -50q-12 -25 -16 -75q-2 -25 -2 -33
v-616q0 -17 6 -39q28 -100 131 -100q68 11 91 85q11 36 15 134q3 80 119 121q57 20 133 20q277 0 279 -188q1 -74 -29 -156q-79 -217 -323 -289q-155 -46 -310 -39l-47 2l-61 2q-306 10 -444 200q-66 90 -87 224q-4 26 -4 62z" />
    <glyph glyph-name="D" unicode="D" horiz-adv-x="1467" 
d="M74 88v1315q0 47 80 68q16 1 41 4h753q19 0 72 -2q239 -9 305 -118q35 -58 58 -177q10 -52 10 -156v-522q0 -162 -28 -256t-101 -156q-88 -75 -289 -86q-36 -2 -62 -2h-729q-110 0 -110 88zM604 1143v-817h84q174 0 174 131v465q0 32 -2 39q-5 93 -41 136q-39 46 -131 46
h-84z" />
    <glyph glyph-name="E" unicode="E" horiz-adv-x="1256" 
d="M74 107v1300q0 41 73 64q13 4 31 4h883q110 0 141 -131q6 -18 6 -91q-17 -156 -151 -157l-453 -2v-164l451 2q59 0 104 -104q15 -36 14 -84q-5 -178 -172 -179l-397 -2v-174l475 -2q133 -1 127 -227q-2 -68 -36 -112q-38 -48 -103 -48h-915q-47 0 -72 66q-6 16 -6 41z
" />
    <glyph glyph-name="F" unicode="F" horiz-adv-x="1206" 
d="M74 107v1288q0 80 96 80h876q128 0 158 -146q4 -20 4 -34q0 -10 -4 -37q-26 -177 -129 -178l-471 -3v-141l428 4q73 1 115 -98q14 -33 14 -72q0 -37 -10 -74q-35 -131 -107 -131h-440v-452q0 -67 -151 -115q-13 -4 -43 -13q-42 -7 -88 -8q-75 -1 -144 29
q-104 46 -104 101z" />
    <glyph glyph-name="G" unicode="G" horiz-adv-x="1507" 
d="M123 204q-49 97 -49 230v482q0 34 4 80q14 161 75 267q113 197 466 243q55 7 122 8q81 1 203 -17q163 -24 251 -67q117 -57 185 -176q41 -72 41 -129q0 -124 -145 -146q-73 -11 -152 -14l-53 -2q-150 0 -189 70q-20 35 -24 100q-4 59 -131 59q-18 0 -41 -6
q-82 -21 -82 -64v-718q0 -116 119 -129q166 0 166 100v96l-33 -2q-126 6 -125 160q0 54 23 103q28 61 76 61h505q39 0 67 -21q32 -23 32 -61l-2 -608q0 -124 -178 -124q-81 0 -120.5 32.5t-62.5 111.5q-6 21 -8 55l-10 -12l-29 -33q-102 -116 -232 -153q-72 -20 -163 -23
q-55 -2 -106 4q-296 36 -400 243z" />
    <glyph glyph-name="H" unicode="H" horiz-adv-x="1450" 
d="M74 117v1253q0 64 164 107q33 9 102 10q49 1 94 -8q29 -6 78 -25q92 -47 92 -98v-363q53 -6 105 -6q60 0 137 11v380q0 43 110 89q72 30 174 26q56 -2 105 -18q141 -45 141 -111v-1265q0 -54 -125 -103q-31 -12 -90 -19q-35 0 -45 -2q-104 0 -166 35q-104 59 -104 105
v446q-55 14 -129 15q-48 1 -113 -11v-460q0 -65 -110 -107q-42 -16 -111 -25q-31 0 -41 -2q-30 0 -66 6q-202 34 -202 140z" />
    <glyph glyph-name="I" unicode="I" horiz-adv-x="678" 
d="M74 78v1300q0 50 112 95q65 26 172 24q54 -1 103 -16q143 -44 143 -103v-1292q0 -53 -147 -94q-25 -7 -84 -13q-70 0 -90 2q-49 5 -88 17q-121 38 -121 80z" />
    <glyph glyph-name="J" unicode="J" horiz-adv-x="1350" 
d="M588 291q24 -10 51 -10q41 0 74 25t33 65v983q0 79 111 118q81 29 174 27q76 -2 148 -29q97 -36 97 -98v-823q0 -59 -2 -84q-19 -239 -120 -343q-162 -167 -480 -167q-160 0 -227 12q-285 51 -402 232q-72 112 -74 248q-1 103 82 145q62 31 175 29q101 -2 173 -22
q103 -28 115 -136l5 -45q0 -18 2 -25q9 -78 65 -102z" />
    <glyph glyph-name="K" unicode="K" horiz-adv-x="1446" 
d="M213 2q-139 29 -139 105v1261q0 56 107 99q29 12 90 24q30 6 65 6q58 0 111 -14q92 -24 121 -55q35 -37 35 -125v-473l245 563q25 56 176 87q31 6 97 7q115 1 190 -35q108 -52 109 -110q0 -16 -7 -31l-272 -557l297 -602q8 -16 8 -35q0 -56 -60 -96q-51 -33 -112 -38
q-53 -5 -84 -4q-115 3 -186 27q-97 33 -115 72l-286 625v-596q0 -52 -103 -94q-64 -26 -135 -26q-32 0 -96 8l-8 1q-16 1 -48 6z" />
    <glyph glyph-name="L" unicode="L" horiz-adv-x="1118" 
d="M74 109v1269q0 52 109 95q40 16 78 20q27 3 88 2q52 -1 90 -10q166 -40 166 -107v-966h425q62 0 94 -74q25 -57 25 -127q0 -129 -52 -178q-37 -33 -87 -33h-854q-82 0 -82 109z" />
    <glyph glyph-name="M" unicode="M" horiz-adv-x="2095" 
d="M240 -6q-166 34 -166 90v1186q0 164 301 215q47 8 113 8q190 0 272 -26q151 -48 168 -115l125 -496l119 479q21 83 192 138q85 27 219 26q133 -1 231 -35q207 -71 207 -178v-1192q0 -46 -94 -88q-31 -10 -80 -21q-63 -4 -86 -4q-52 1 -94 13q-145 43 -145 92v793
l-209 -770q-17 -63 -99 -98q-65 -28 -143 -30q-58 -2 -98 6q-177 34 -205 142l-192 750v-780q0 -60 -141 -99q-39 -11 -101 -13q-51 -2 -94 7z" />
    <glyph glyph-name="N" unicode="N" horiz-adv-x="1626" 
d="M258 -10q-184 31 -184 115v1222q0 72 133 127q45 19 129 31q61 9 108 8q318 -6 384 -158l237 -542v602q0 43 101 82q46 18 114 20q93 3 154 -18q119 -41 119 -86v-1241q0 -74 -142 -127q-42 -16 -137 -33q-54 -10 -133 -9q-92 1 -170 25q-142 44 -166 103l-244 610v-622
q0 -59 -106 -97q-45 -16 -101 -17q-61 -1 -96 5z" />
    <glyph glyph-name="O" unicode="O" horiz-adv-x="1428" 
d="M78 455q-4 49 -4 88v393q0 35 4 86q22 278 194 394q146 100 441 102q120 1 231 -25q270 -63 349 -229q45 -95 57 -242q4 -49 4 -86v-393q0 -43 -4 -88q-25 -283 -184 -385q-170 -109 -453 -109q-282 0 -454 110q-158 101 -181 384zM604 389q0 -100 107 -100
q110 0 110 100v701q0 102 -110 100q-107 -2 -107 -100v-701z" />
    <glyph glyph-name="P" unicode="P" horiz-adv-x="1387" 
d="M74 96v1276q0 103 84 103h823q28 0 64 -6q113 -19 200 -96q97 -86 97 -195v-254q0 -30 -6 -66q-49 -290 -361 -297l-372 -8v-448q0 -61 -134 -107q-47 -16 -94 -17q-59 -1 -86 4q-21 4 -76 17q-48 14 -83 32q-56 29 -56 62zM600 1170q-1 -6 -5 -49q0 -16 -1 -21
q-3 -47 -4 -82q-2 -55 10 -137h66q125 0 127 131q0 28 -8 61q-25 97 -107 97h-78z" />
    <glyph glyph-name="Q" unicode="Q" horiz-adv-x="1407" 
d="M78 449q-4 43 -4 69v410q0 49 6 90q42 286 212 395q84 54 226 84q80 17 172 17q46 0 78 -2q191 -12 268 -41q64 -24 121 -67q159 -119 174 -347q2 -31 2 -55v-383q0 -12 -4 -80q-14 -242 -91 -375q-98 -169 -312 -203q-19 -3 -70 -6q49 -62 178 -80q34 -5 64 -51
q7 -15 12 -35q0 -152 -106 -152h-82l-324 2q-141 1 -141 127v197q-15 4 -31 10q-232 86 -298 246q-37 89 -50 230zM604 367q0 -73 109 -76q88 6 88 76v700q0 71 -60 98q-20 13 -47 13q-59 1 -82 -58q-8 -21 -8 -43v-710z" />
    <glyph glyph-name="R" unicode="R" horiz-adv-x="1436" 
d="M217 2q-143 49 -143 94v1276q0 14 4 37q18 66 59 66h879q27 0 63 -6q113 -19 200 -96q97 -86 97 -195v-148q0 -119 -107 -213q-30 -27 -79 -51q11 -6 33 -16q131 -84 131 -250v-375q0 -69 -90 -112q-74 -35 -150 -34q-90 1 -171 25q-120 35 -120 103v407q0 45 -67 80
q-31 16 -84 16q-34 0 -44 -1t-24 -3v-501q0 -60 -129 -107q-44 -16 -88 -17q-69 -1 -170 21zM612 1170q-9 -71 -10 -123q-1 -51 10 -121h86q98 0 121 76q4 13 4 30q0 138 -108 138h-103z" />
    <glyph glyph-name="S" unicode="S" horiz-adv-x="1436" 
d="M123 156q-62 94 -63 162q-2 110 119 147q69 20 211 19q72 -1 156 -42q39 -19 73 -112q14 -37 63 -55q17 -6 31 -6q45 0 77.5 33.5t33.5 78.5q2 118 -197 168l-8 2l-137 35q-18 5 -47 14q-174 57 -256 126q-113 96 -113 251q0 68 20 154q55 237 246 319q100 43 262 64
q46 6 84 6q223 0 301 -19q231 -56 312 -215q28 -55 28 -100q0 -125 -161 -141q-81 -8 -162 -9q-103 -1 -154 48q-19 18 -67 84q-33 44 -88 45q-72 1 -89 -76v-29q0 -64 89 -98l81 -31q27 -10 144 -41q9 -2 67 -20q288 -88 359 -226q39 -76 39 -188q0 -32 -4 -82
q-11 -139 -93 -248q-162 -217 -596 -217q-56 0 -92 2q-144 8 -221 33q-179 58 -248 164z" />
    <glyph glyph-name="T" unicode="T" horiz-adv-x="1225" 
d="M0 1409q45 66 82 66h1057q74 0 107 -113q6 -21 8 -92q-12 -171 -146 -172l-258 -2v-993q0 -65 -104 -107q-45 -18 -139 -19q-24 0 -74 2q-66 3 -96 13q-115 39 -115 104v998l-139 2q-108 2 -155 33q-58 39 -59 141q0 20 4 57q6 50 27 82z" />
    <glyph glyph-name="U" unicode="U" horiz-adv-x="1417" 
d="M78 371l-4 57v940q0 84 197 117q14 1 41 5q5 0 9 1h7q115 0 178 -29q99 -45 99 -98v-987q0 -25 16 -51q30 -36 74 -37q27 -1 65 18q53 26 53 80v983q0 51 127 99q9 3 88 20q51 5 88 4q41 -1 86 -14q142 -41 142 -144v-913q0 -42 -4 -74q-14 -111 -65 -192
q-90 -143 -376 -187q-68 -11 -141 -12q-78 -2 -147 4q-364 29 -464 189q-60 96 -69 221z" />
    <glyph glyph-name="V" unicode="V" horiz-adv-x="1381" 
d="M248 219l-263 1127q0 44 31 75q70 69 263 68q227 -2 252 -139l137 -756l188 795q15 65 45 89.5t96 24.5q63 0 158 -16q45 -8 90 -18q150 -53 150 -115l-287 -1163q-35 -142 -147 -184q-54 -20 -181 -36q-9 -1 -31 -4q-10 0 -30 -2q-212 0 -350 68q-88 43 -121 186z" />
    <glyph glyph-name="W" unicode="W" horiz-adv-x="2077" 
d="M270 123l-285 1180q-2 11 -4 37q-2 82 76 125q63 34 152 34q27 0 43 -2q27 -1 64 -8q71 -13 101 -23q57 -19 83 -58q19 -30 33 -97l137 -672l106 739q17 119 260 119q241 0 258 -119l107 -739l139 672q24 118 89 148q34 16 120 30q21 3 69 8q269 0 271 -157q0 -20 -4 -37
l-285 -1180q-19 -79 -86 -111q-47 -22 -145 -29q-2 0 -45 -2q-10 0 -76 4q-193 13 -252 81q-29 34 -37 88l-119 831l-129 -831q-15 -96 -109 -136q-59 -25 -183 -33q-44 -3 -72 -4q-7 0 -45 2q-201 12 -232 140z" />
    <glyph glyph-name="X" unicode="X" horiz-adv-x="1407" 
d="M342 731l-342 596q-8 14 -8 33q0 57 69 96q83 47 240 47q231 0 304 -194l86 -230l96 234q48 118 139 157q67 29 211 29q52 0 96 -14q156 -50 156 -119q0 -15 -4 -20l-344 -598l354 -606q6 -10 6 -27q0 -50 -82 -96q-34 -19 -110 -34q-37 -7 -94 -8q-24 0 -78 4
q-17 1 -33 4q-48 8 -80 17q-83 24 -100 66l-144 350l-153 -362q-24 -57 -76 -74q-31 -10 -111 -11q-5 0 -14 1t-14 1h-11l-75 8q-228 24 -228 128q0 12 9 28z" />
    <glyph glyph-name="Y" unicode="Y" horiz-adv-x="1272" 
d="M354 514l-369 828q-2 7 -4 18q0 57 122 107q34 14 108 24q87 0 102 -2q186 -25 211 -102l121 -377l127 393q15 46 160 82q37 9 98 8q60 -1 105 -14q155 -44 155 -105q0 -5 -4 -14l-362 -825v-436q0 -14 -51 -56q-75 -62 -191 -64q-34 -1 -123 8q-64 6 -110 26
q-95 41 -95 98v403z" />
    <glyph glyph-name="Z" unicode="Z" horiz-adv-x="1381" 
d="M13 109q-19 35 -19 76q0 62 64 153l540 766h-444q-39 0 -78 96q-12 30 -12 119q2 14 8 31q44 125 111 125h1007q63 0 117 -96q24 -43 24 -86q0 -73 -73 -181l-490 -725l395 -4q164 -2 164 -176q0 -52 -12 -94q-32 -113 -107 -113h-1064q-52 0 -111 76q-3 5 -13 20z" />
    <glyph glyph-name="bracketleft" unicode="[" 
 />
    <glyph glyph-name="backslash" unicode="\" horiz-adv-x="1417" 
d="M1344 1296v-874q0 -42 -4 -74q-14 -111 -65 -192q-90 -143 -376 -187q-68 -11 -141 -12q-78 -2 -147 4q-364 29 -464 189q-54 86 -69 221q-4 35 -4 57v940q0 84 197 117q14 1 41 5q5 0 9 1h7q115 0 178 -29q99 -45 99 -98v-987q0 -25 16 -51q30 -36 74 -37q27 -1 65 18
q53 26 53 80v983q0 51 127 99q9 3 88 20q51 5 88 4q70 -2 136 -31l26 142q5 29 93 32q47 2 91 -18q63 -29 61 -51l-34 -185zM706 1576l-263 254l-112 117q0 78 68 112q17 9 43 9q29 0 69 -11l164 -201q0 -76 -15 -78l45 -128z" />
    <glyph glyph-name="bracketright" unicode="]" 
 />
    <glyph glyph-name="asciicircum" unicode="^" horiz-adv-x="1417" 
d="M1344 1296v-874q0 -42 -4 -74q-14 -111 -65 -192q-90 -143 -376 -187q-68 -11 -141 -12q-78 -2 -147 4q-364 29 -464 189q-54 86 -69 221q-4 35 -4 57v940q0 84 197 117q14 1 41 5q5 0 9 1h7q115 0 178 -29q99 -45 99 -98v-987q0 -25 16 -51q30 -36 74 -37q27 -1 65 18
q53 26 53 80v983q0 51 127 99q9 3 88 20q51 5 88 4q70 -2 136 -31l26 142q5 29 93 32q47 2 91 -18q63 -29 61 -51l-34 -185zM858 1719q-13 -6 -38 -23q-8 -12 -8 -28v-62q-67 -40 -105 -40q-39 0 -108 40v84q0 31 35 70q5 6 20 19l22 16l6 4q37 25 38 49q1 28 -24 37
q-6 3 -16 3q-22 0 -28 -17q-5 -22 -23 -59q-13 -14 -41 -18q-15 -2 -54 -2q-98 0 -98 67q0 12 1 23q1 2 5 21q30 82 143 104q48 9 100 10q21 0 42 -1q78 -5 106 -14q107 -35 107 -136q0 -18 -1 -23q-9 -91 -81 -124z" />
    <glyph glyph-name="underscore" unicode="_" horiz-adv-x="1151" 
d="M1165 0h-1180v74h1180v-74z" />
    <glyph glyph-name="grave" unicode="`" horiz-adv-x="1417" 
d="M1344 1296v-874q0 -42 -4 -74q-14 -111 -65 -192q-90 -143 -376 -187q-68 -11 -141 -12q-78 -2 -147 4q-364 29 -464 189q-54 86 -69 221q-4 35 -4 57v940q0 84 197 117q14 1 41 5q5 0 9 1h7q115 0 178 -29q99 -45 99 -98v-987q0 -25 16 -51q30 -36 74 -37q27 -1 65 18
q53 26 53 80v983q0 51 127 99q9 3 88 20q51 5 88 4q70 -2 136 -31l26 142q5 29 93 32q47 2 91 -18q63 -29 61 -51l-34 -185zM1080 1950l-112 -117l-263 -254l1 74l45 128q-15 1 -15 78l164 201q40 11 69 11q26 0 43 -9q68 -34 68 -112z" />
    <glyph glyph-name="a" unicode="a" horiz-adv-x="1335" 
d="M1239 889q15 -54 15 -160l2 -583q0 -146 -162 -167q-56 -7 -117 -8q-91 -1 -140.5 32t-86.5 118q-4 15 -13 35q-67 -141 -256 -179q-30 -6 -65 -6q-22 0 -49 4q-313 47 -312 394q0 184 139 273q116 75 312 75h43q87 0 110 4q68 12 83 59q0 71 -45 89q-20 8 -52 10
q-39 -2 -62 -13q-18 -9 -104 -65q-44 -29 -110 -43q-38 -8 -62 -8q-81 0 -128 54t-46 136q1 94 133 174q109 66 383 78l52 2q37 0 49 -2q291 -12 406 -141q56 -63 83 -162zM746 547q-13 -4 -43 -14q-132 -53 -154 -111q-6 -16 -6 -29q0 -31 24.5 -53.5t55.5 -23.5
q122 -2 125 213q0 9 -2 18z" />
    <glyph glyph-name="b" unicode="b" horiz-adv-x="1413" 
d="M74 117v1243q0 63 133 117q64 26 141 26q48 0 107 -10q12 -2 45 -10q137 -39 137 -109v-333q83 110 248 137q49 8 92 8q376 0 377 -608q0 47 -7 -74q-9 -173 -16 -227q-24 -105 -77 -178q-96 -131 -324 -128q-141 2 -271 121q-7 8 -22 23q-45 -116 -184 -138
q-48 -8 -107 -8q-133 -1 -202.5 45.5t-69.5 102.5zM635 565l2 -92q2 -108 84 -108q18 0 27 4q43 18 54 69q6 25 7 93l2 100q3 156 -96 156q-49 0 -68 -41q-12 -26 -12 -90v-91z" />
    <glyph glyph-name="c" unicode="c" horiz-adv-x="1331" 
d="M65 462q-5 61 -5 155q0 23 4 55q38 306 213 416q94 59 233 83q50 9 123 13q19 1 78 2q86 1 174 -17q210 -43 305 -149q30 -34 70 -113l6 -12l8 -18q14 -32 14 -68q0 -160 -268 -162q-151 -1 -201 46q-28 26 -53 79q-34 71 -84 72q-27 1 -53 -25q-29 -29 -29 -211v-104
q0 -138 54 -180q19 -14 40 -15q67 -2 103 140q18 73 170 86q9 1 37 2q84 1 147 -15q127 -33 127 -114q0 -39 -27 -115q-10 -29 -20 -45q-126 -268 -551 -269q-404 0 -535 207q-68 107 -80 276z" />
    <glyph glyph-name="d" unicode="d" horiz-adv-x="1405" 
d="M721 1096q12 -9 49 -35v317q0 55 113 95q80 29 176 24q66 -3 102 -14q170 -50 170 -109v-1280q0 -57 -123 -111q-50 -22 -145 -22q-274 0 -285 172q-75 -133 -258 -164q-47 -8 -90 -8q-298 0 -360 377q-10 61 -10 221q0 431 167 557q84 63 212 64q21 0 61 -4
q115 -12 221 -80zM600 481q10 -126 84 -126q61 0 81 59q11 32 11 123v106q0 135 -92 133q-85 -2 -90 -194q0 -16 6 -101z" />
    <glyph glyph-name="e" unicode="e" horiz-adv-x="1378" 
d="M1329 686q4 -36 4 -53q0 -132 -96 -133l-662 -6v-58q0 -67 29 -104q37 -39 78 -39q68 0 178 109q35 35 187 34q56 0 106 -16q139 -44 139 -119q0 -51 -51 -133q-71 -114 -324 -172q-37 -9 -77 -15q-52 -8 -148 -10q-36 -1 -86 4q-172 16 -281 61q-190 78 -244 274
q-24 87 -24 243q0 38 6 92q40 362 239 463q109 55 298 76q54 6 111 6q93 0 178 -16q170 -32 256 -90q123 -83 160 -228q4 -18 12 -55v-8zM590 742l205 2v39q0 52 -66 75q-15 8 -37 9q-20 1 -39 -9q-63 -20 -63 -69v-47z" />
    <glyph glyph-name="f" unicode="f" horiz-adv-x="895" 
d="M-25 1041q26 121 144 125q0 14 4 47q24 196 129 240q57 24 189 46q36 6 92 6q61 0 127 -4q110 -7 163 -21q109 -28 117 -95q0 -170 -88 -170h-203v-49h191q99 0 100 -144q2 -162 -127 -164l-161 -2v-747q0 -75 -100 -112q-72 -27 -160 -28q-146 -2 -222 56q-59 45 -59 80
v743q-76 0 -117 69q-23 38 -23 85q0 20 4 39z" />
    <glyph glyph-name="g" unicode="g" horiz-adv-x="1403" 
d="M584 1174q121 -31 199 -129q32 147 292 143q86 -1 156 -29q96 -38 96 -110v-807q0 -174 -26 -271q-62 -232 -250 -299q-101 -36 -266 -47q-30 -2 -52 -2h-124q-208 0 -308 45q-161 73 -161 170q0 107 209 133q32 4 57 4q87 0 184 -47q11 -5 55 -29q14 -6 60 -8
q67 19 67 119v84q0 8 -6 84q-2 -2 -28 -26q-130 -120 -312 -115q-126 3 -212 63q-156 108 -156 494v43q0 293 141 445q102 110 256 110q57 0 129 -18zM615 563q0 -44 8 -69q11 -33 43 -49q15 -5 29 -7q70 0 77 105q2 34 2 43l-2 76q-3 118 -96 118q-43 -9 -55 -50
q-6 -21 -6 -81v-86z" />
    <glyph glyph-name="h" unicode="h" horiz-adv-x="1409" 
d="M74 94v1299q0 50 108 90q67 25 164 24q117 -1 170 -24q113 -49 113 -96v-369q6 7 26 27q59 58 131 96q101 53 195 53q127 0 223.5 -78.5t122.5 -203.5q9 -42 8 -70l-2 -66v-671q0 -109 -252 -126q-51 -3 -104 4q-65 9 -115 34q-78 39 -78 77v646q0 55 -75 55
q-72 0 -72 -53v-637q0 -70 -174 -113q-19 -5 -39 -9q-23 -2 -76 -4q-92 -2 -170 34q-104 48 -104 81z" />
    <glyph glyph-name="i" unicode="i" horiz-adv-x="717" 
d="M643 1165h-567v242q0 47 172 96q9 3 67 15q16 2 54 2q77 1 135 -21q139 -52 139 -86v-248zM74 109v983h567v-985q0 -52 -82 -92q-71 -35 -168 -42q-53 -4 -76 -4q-94 -1 -149 31q-92 53 -92 109z" />
    <glyph glyph-name="j" unicode="j" horiz-adv-x="711" 
d="M637 1165h-569v242q0 48 172 96q32 9 67 15q9 2 56 2q74 1 133 -21q141 -52 141 -86v-248zM-15 -45q85 22 87 30v1107h565v-985q0 -40 -2 -72q-8 -128 -25 -189q-31 -111 -107 -149q-64 -32 -191 -43q-46 -4 -72 -4q-11 0 -55 2q-205 9 -262 62q-46 42 -46 134
q0 79 108 107z" />
    <glyph glyph-name="k" unicode="k" horiz-adv-x="1471" 
d="M74 96v1280q0 67 125 107q41 13 110 20q20 2 90 2q86 -9 152 -37q96 -42 96 -110v-629l264 387q50 73 228 78q91 2 151 -18q152 -52 152 -121q0 -28 -25 -70l-41 -69l-182 -295l287 -479q1 -1 1 -3q5 -9 5 -22q0 -56 -113 -115q-75 -39 -246 -39q-185 0 -241 97l-230 397
v-356q0 -128 -317 -128q-90 0 -150 25q-116 48 -116 98z" />
    <glyph glyph-name="l" unicode="l" horiz-adv-x="703" 
d="M322 -23q-248 25 -248 124v1265q0 65 110 115q53 24 152 24q31 0 80 -4q99 -8 142 -28q71 -33 71 -113v-1251q0 -66 -129 -111q-39 -13 -94 -21q-23 -3 -41 -4q-2 0 -43 4z" />
    <glyph glyph-name="m" unicode="m" horiz-adv-x="2132" 
d="M277 -15q-203 37 -203 163v893q0 78 127 127q13 5 47 14q53 14 98 14q18 0 67 -7q80 -13 120 -32q66 -32 106 -98q4 -6 20 -33q15 18 27 31q70 77 142 105q64 24 176 24q75 0 130 -14q91 -23 171 -136q4 -5 16 -26q90 135 256 168q50 10 113 10q181 0 303 -144
q65 -77 65 -149v-782q0 -73 -164 -128q-36 -12 -96 -12q-85 0 -141 14q-160 40 -160 107v639q0 57 -74 64q-77 0 -77 -57v-646q0 -68 -179 -111q-38 -9 -125 -8q-55 1 -102 17q-91 31 -120 54t-29 57v622q0 68 -78 70q-72 2 -72 -66v-626q0 -52 -121 -99q-45 -17 -112 -25
q-10 -1 -45 -2q-37 -1 -86 8z" />
    <glyph glyph-name="n" unicode="n" horiz-adv-x="1409" 
d="M74 94v990q0 51 108 90q68 25 164 24q116 -1 170 -24q113 -48 113 -97v-59q6 7 26 27q59 58 131 96q101 53 195 53q127 0 223.5 -78.5t122.5 -203.5q9 -42 8 -70l-2 -66v-671q0 -109 -252 -126q-51 -3 -104 4q-65 9 -115 34q-78 39 -78 77v646q0 55 -75 55q-72 0 -72 -53
v-637q0 -70 -174 -113q-19 -5 -39 -9q-23 -2 -76 -4q-92 -2 -170 34q-104 48 -104 81z" />
    <glyph glyph-name="o" unicode="o" horiz-adv-x="1364" 
d="M66 367q-6 34 -6 67v291q0 30 6 66q24 141 78 217q58 81 184 139q83 38 213 43l102 4h39q9 0 28.5 1t29.5 1q210 -2 305 -47q118 -56 177 -143q53 -79 77 -215q6 -34 6 -66v-291q0 -60 -22 -141q-54 -200 -244 -283q-82 -36 -310 -45l-47 -2q-35 0 -47 2q-106 4 -157 9
q-92 9 -152 36q-122 54 -182 140q-53 78 -78 217zM600 402q0 -72 64 -84h37q63 10 63 84v356q0 69 -63 84h-37q-64 -12 -64 -84v-356z" />
    <glyph glyph-name="p" unicode="p" horiz-adv-x="1405" 
d="M244 -334q-170 48 -170 108v1281q0 61 121 110q59 24 147 23q107 -1 181 -34q100 -45 102 -138q81 132 258 162q46 8 92 8q299 0 358 -377q13 -83 13 -221q0 -266 -62 -409q-90 -208 -319 -210q-17 0 -62 4q-106 10 -221 80q-26 16 -47 33v-318q0 -50 -112 -94
q-62 -24 -178 -22q-55 1 -101 14zM629 504q0 -133 92 -131t92 176q0 27 -8 119q-11 124 -84 125q-61 1 -81 -58q-11 -32 -11 -122v-109z" />
    <glyph glyph-name="q" unicode="q" horiz-adv-x="1413" 
d="M754 1069q9 -6 23 -22q55 147 290 147q91 0 168 -29q105 -40 105 -118v-1246q0 -62 -133 -115q-49 -20 -84 -22q-15 -4 -56 -4q-54 0 -108 10q-11 2 -45 10q-137 37 -137 107v336q-84 -113 -246 -140q-46 -8 -92 -8q-377 -2 -377 615v59q0 149 22 236q55 218 203 276
q83 32 197 31q143 -2 270 -123zM602 533q-2 -105 45 -142q22 -13 50 -14q49 -1 69 41q13 27 13 88v109l-2 73q-2 74 -37 98q-20 13 -43 13q-56 0 -77 -50q-14 -35 -16 -116z" />
    <glyph glyph-name="r" unicode="r" horiz-adv-x="1114" 
d="M145 15q-71 45 -71 88v946q0 76 133 121q49 16 121 18q65 1 100 -6q89 -19 127 -43q59 -38 59 -111v-88q3 5 11 15.5t22 29.5q62 79 83 103q60 67 101 84q48 20 101 20q89 0 147 -60q55 -57 62 -147q2 -30 2 -57q-1 -83 -21 -136q-29 -77 -205 -114q-9 -2 -32 -6
l-117 -16q-23 -7 -47 -21q-94 -56 -94 -129v-414q0 -39 -99 -84q-11 -3 -32 -12q-65 -20 -121 -19q-174 2 -230 38z" />
    <glyph glyph-name="s" unicode="s" horiz-adv-x="1323" 
d="M80 170q-26 48 -26 82q0 89 155 121q48 10 103 10q125 0 202 -55q40 -28 72 -76q16 -24 57 -24q20 0 39 6q51 16 52 71q0 6 -5 25q-17 65 -188 84l-18 2l-103 20q-102 20 -164 52q-106 55 -152 120q-50 72 -50 185q0 266 309 360q69 21 266 35q28 2 45 2q8 0 45 -2
q156 -9 240 -33q171 -50 237 -157q20 -33 21 -68q2 -101 -133 -121q-5 -1 -31 -3l-31 -3q-21 -2 -51 -2q-122 0 -207 74l-61 53q-16 14 -35 14q-20 0 -47 -12q-43 -19 -43 -66q0 -74 141 -100l86 -16l33 -4l78 -11l39 -4q13 -1 47 -10q259 -66 260 -301q0 -71 -31 -166
q-46 -141 -217 -213q-60 -25 -209 -47q-83 -12 -157 -13q-14 0 -60 2q-142 7 -277 46q-182 53 -231 143z" />
    <glyph glyph-name="t" unicode="t" horiz-adv-x="860" 
d="M68 1156q6 3 29 12v114q0 68 125 113q42 15 120 18l50 2q264 0 264 -151v-98h106q61 0 96 -49q31 -43 31 -107q0 -30 -6 -61q-24 -121 -102 -121h-121v-404q0 -67 17 -93q20 -31 83 -42q127 -22 127 -113q0 -38 -16 -98q-21 -78 -76 -78h-483q-83 0 -160 82
q-51 55 -51 152v598q-127 16 -130 190q12 92 97 134z" />
    <glyph glyph-name="u" unicode="u" horiz-adv-x="1409" 
d="M74 324l2 67v670q0 63 135 107q52 17 117 18q70 1 104 -4q79 -12 115 -31q80 -43 80 -80v-643q0 -57 73 -57q72 0 72 53v637q0 70 174 115q60 9 121 10q91 1 164 -33q104 -49 104 -82v-987q0 -49 -108 -92q-63 -25 -146 -25q-11 0 -73 4q-76 5 -117 21q-111 44 -111 96
v62q-5 -7 -26 -27q-156 -150 -324 -150q-171 0 -276 133q-51 64 -70 148q-5 20 -10 70z" />
    <glyph glyph-name="v" unicode="v" horiz-adv-x="1301" 
d="M277 121l-292 926q0 74 122 117q38 14 104 22q31 4 61 4q40 0 78 -6q207 -33 219 -90l99 -461l100 444q20 90 197 110q35 4 90 3q62 -1 98 -12q162 -49 162 -111l-279 -948q-20 -69 -180 -117q-67 -20 -192 -21q-124 -1 -205 23q-160 47 -182 117z" />
    <glyph glyph-name="w" unicode="w" horiz-adv-x="2032" 
d="M184 121l-199 934q0 94 167 127q50 10 88 10q58 0 104 -10q139 -30 145 -68l84 -536l88 463q13 66 191 120q43 13 133 21q91 0 131 -6q65 -10 113 -27q146 -52 155 -108l76 -457l92 495q12 66 178 93q19 3 56 4q44 1 67 -4q53 -3 97 -21q96 -39 96 -102l-217 -950
q-11 -49 -142 -99q-21 -8 -47 -15q-67 -18 -112 -18h-2l-50 2q-109 4 -155 18q-104 31 -142 50q-85 43 -94 107l-73 495l-76 -493q-17 -108 -252 -161q-66 -15 -139 -16q-50 -1 -103 10q-85 17 -135 40q-112 51 -123 102z" />
    <glyph glyph-name="x" unicode="x" horiz-adv-x="1284" 
d="M76 19q-86 37 -86 94q0 17 10 33l287 465l-248 440q-6 11 -6 26q0 88 205 117q42 6 80 6q31 0 43 -2q59 -3 104 -18q88 -30 107 -78l86 -217l131 217q58 96 184 96q57 0 129 -16q13 -3 49 -17q107 -42 107 -92q0 -6 -8 -24l-262 -428l280 -475q8 -14 8 -31
q0 -81 -159 -125q-61 -17 -154 -17h-33q-163 0 -205 105l-90 223l-108 -213q-51 -101 -232 -101q-53 0 -143 11q-39 5 -76 21z" />
    <glyph glyph-name="y" unicode="y" horiz-adv-x="1311" 
d="M383 -8l-398 1042q-2 9 -4 23q0 86 199 129q37 8 88 8q60 0 107 -10q88 -19 118 -33q62 -29 74 -88l97 -477l114 491q8 33 46 56q59 36 129 41q23 7 102 8q108 1 174 -29q96 -44 96 -86l-450 -1161q-12 -32 -31 -62q-123 -199 -322 -211l-67 -4h-51l-78 -4h-41
q-101 0 -143 27q-52 35 -54 129q8 76 55 98q30 14 117 14q40 0 51 -2q80 0 80 66q-3 22 -8 35z" />
    <glyph glyph-name="z" unicode="z" horiz-adv-x="1239" 
d="M70 1098q44 68 104 68h864q73 0 115 -82q12 -23 12 -51q0 -45 -36 -111q-5 -9 -19 -33l-379 -573l367 -7q50 -1 79 -48q25 -40 25 -93q0 -47 -18 -90q-25 -59 -92 -78h-873q-57 0 -106 47q-52 49 -64 127q0 94 43 160l344 528l-290 7q-53 1 -90 69q-14 26 -15 62
q-1 52 29 98z" />
    <glyph glyph-name="braceleft" unicode="{" horiz-adv-x="627" 
d="M199 674q-139 35 -139 80v358l420 363h32l-75 -250q53 -6 92 -47t39 -94v-320q0 -61 -176 -94q-37 -7 -103 -6q-53 1 -90 10z" />
    <glyph glyph-name="bar" unicode="|" horiz-adv-x="1417" 
d="M78 371l-4 57v940q0 84 197 117q14 1 41 5q5 0 9 1h7q115 0 178 -29q99 -45 99 -98v-987q0 -25 16 -51q30 -36 74 -37q27 -1 65 18q53 26 53 80v983q0 51 127 99q9 3 88 20q51 5 88 4q41 -1 86 -14q142 -41 142 -144v-913q0 -42 -4 -74q-14 -111 -65 -192
q-90 -143 -376 -187q-68 -11 -141 -12q-78 -2 -147 4q-364 29 -464 189q-60 96 -69 221zM877 -365q-24 -88 -49 -88h-233q-28 0 -54 67q-7 18 -13 67q0 73 20 125q22 57 45 57h224q25 0 52 -69q14 -36 14 -106q0 -31 -6 -53z" />
    <glyph glyph-name="braceright" unicode="}" horiz-adv-x="621" 
d="M152 942q-55 18 -74 47q-18 26 -18 86v320q0 59 176 94q36 7 100 6q52 -1 88 -10q137 -35 137 -80v-379l-419 -362l-33 43l76 227q-20 4 -33 8z" />
    <glyph glyph-name="asciitilde" unicode="~" horiz-adv-x="1417" 
d="M1344 1296v-874q0 -42 -4 -74q-14 -111 -65 -192q-90 -143 -376 -187q-68 -11 -141 -12q-78 -2 -147 4q-364 29 -464 189q-54 86 -69 221q-4 35 -4 57v940q0 84 197 117q14 1 41 5q5 0 9 1h7q115 0 178 -29q99 -45 99 -98v-987q0 -25 16 -51q30 -36 74 -37q27 -1 65 18
q53 26 53 80v983q0 51 127 99q9 3 88 20q51 5 88 4q70 -2 136 -31l26 142q5 29 93 32q47 2 91 -18q63 -29 61 -51l-34 -185zM597 1738q-15 -30 -50 -77q-37 -31 -62 -38l-101 -28q-25 -7 -50.5 12.5t-25.5 45.5q0 29 43 99q37 60 65 90q16 18 32 25l191 64l187 -144
q15 30 50 77q36 30 62 38l91 28q3 1 9 1q27 0 52 -17.5t25 -43.5q0 -15 -29 -72q-33 -66 -79 -115q-16 -18 -32 -25l-191 -64z" />
    <glyph glyph-name="euro" horiz-adv-x="498" 
d="M522 633l-23 -156l-48 6q0 157 -94 157q-103 0 -161 -211h172l-21 -48h-164q-6 -24 -16 -73h147l-21 -47h-134q-6 -41 -6 -74q0 -134 99 -134q58 0 101 68q24 38 51 119l55 -10l-54 -188q-77 -53 -159 -53q-213 0 -213 272h-74l21 47h56q3 25 12 73h-66l21 48h59
q99 271 295 271q94 0 165 -67z" />
    <glyph glyph-name="nonbreakingspace" unicode="&#xa0;" horiz-adv-x="250" 
 />
    <glyph glyph-name="exclamdown" unicode="&#xa1;" horiz-adv-x="1346" 
d="M217 -19q-246 15 -246 148l305 1141q26 98 72 141q40 38 143 70q78 25 173 26q105 2 172 -14q213 -49 241 -162l297 -1202q0 -68 -88 -114q-65 -34 -174 -34q-285 0 -305 161l-12 96q-69 10 -123 10q-70 0 -129 -10l-25 -84q-30 -101 -88 -139q-54 -35 -164 -36
q-13 0 -49 2zM594 559q44 -12 86 -12q43 0 84 12l-92 465zM1000 1755q7 -35 7 -62q0 -91 -15 -112q-32 -45 -72 -45q-177 153 -254 153t-254 -153q-30 0 -61 36q-18 21 -16 130q2 110 73 143q17 16 42 29q144 77 219 77q88 0 258 -101q25 -15 51 -54q20 -30 22 -41z
M296 1688l-263 254l-112 117q0 78 68 112q17 9 43 9q29 0 69 -11l164 -201q0 -76 -15 -78l45 -128z" />
    <glyph glyph-name="cent" unicode="&#xa2;" horiz-adv-x="1346" 
d="M217 -19q-246 15 -246 148l305 1141q26 98 72 141q40 38 143 70q78 25 173 26q105 2 172 -14q213 -49 241 -162l297 -1202q0 -68 -88 -114q-65 -34 -174 -34q-285 0 -305 161l-12 96q-69 10 -123 10q-70 0 -129 -10l-25 -84q-30 -101 -88 -139q-54 -35 -164 -36
q-13 0 -49 2zM594 559q44 -12 86 -12q43 0 84 12l-92 465zM1000 1755q7 -35 7 -62q0 -91 -15 -112q-32 -45 -72 -45q-177 153 -254 153t-254 -153q-30 0 -61 36q-18 21 -16 130q2 110 73 143q17 16 42 29q144 77 219 77q88 0 258 -101q25 -15 51 -54q20 -30 22 -41z" />
    <glyph glyph-name="sterling" unicode="&#xa3;" horiz-adv-x="1256" 
d="M968 1755q7 -35 7 -62q0 -91 -15 -112q-32 -45 -72 -45q-177 153 -254 153t-254 -153q-30 0 -61 36q-18 21 -16 130q2 110 73 143q17 16 42 29q144 77 219 77q88 0 258 -101q25 -15 51 -54q20 -30 22 -41zM74 107v1300q0 41 73 64q13 4 31 4h883q110 0 141 -131
q6 -18 6 -91q-17 -156 -151 -157l-453 -2v-164l451 2q59 0 104 -104q15 -36 14 -84q-5 -178 -172 -179l-397 -2v-174l475 -2q133 -1 127 -227q-2 -68 -36 -112q-38 -48 -103 -48h-915q-47 0 -72 66q-6 16 -6 41z" />
    <glyph glyph-name="currency" unicode="&#xa4;" horiz-adv-x="1428" 
d="M78 455q-4 49 -4 88v393q0 35 4 86q22 278 194 394q146 100 441 102q120 1 231 -25q270 -63 349 -229q45 -95 57 -242q4 -49 4 -86v-393q0 -43 -4 -88q-25 -283 -184 -385q-170 -109 -453 -109q-282 0 -454 110q-158 101 -181 384zM604 389q0 -100 107 -100
q110 0 110 100v701q0 102 -110 100q-107 -2 -107 -100v-701zM1048 1755q7 -35 7 -62q0 -91 -15 -112q-32 -45 -72 -45q-177 153 -254 153t-254 -153q-30 0 -61 36q-18 21 -16 130q2 110 73 143q17 16 42 29q144 77 219 77q88 0 258 -101q25 -15 51 -54q20 -30 22 -41z
M344 1688l-263 254l-112 117q0 78 68 112q17 9 43 9q29 0 69 -11l164 -201q0 -76 -15 -78l45 -128z" />
    <glyph glyph-name="yen" unicode="&#xa5;" horiz-adv-x="1272" 
d="M354 514l-369 828q-2 7 -4 18q0 57 122 107q34 14 108 24q87 0 102 -2q186 -25 211 -102l121 -377l127 393q15 46 160 82q37 9 98 8q60 -1 105 -14q155 -44 155 -105q0 -5 -4 -14l-362 -825v-436q0 -14 -51 -56q-75 -62 -191 -64q-34 -1 -123 8q-64 6 -110 26
q-95 41 -95 98v403zM811 -365q-24 -88 -49 -88h-233q-28 0 -54 67q-7 18 -13 67q0 73 20 125q22 57 45 57h224q25 0 52 -69q14 -36 14 -106q0 -31 -6 -53z" />
    <glyph glyph-name="brokenbar" unicode="&#xa6;" 
 />
    <glyph glyph-name="section" unicode="&#xa7;" horiz-adv-x="1428" 
d="M78 455q-4 49 -4 88v393q0 35 4 86q22 278 194 394q146 100 441 102q120 1 231 -25q270 -63 349 -229q45 -95 57 -242q4 -49 4 -86v-393q0 -43 -4 -88q-25 -283 -184 -385q-170 -109 -453 -109q-282 0 -454 110q-158 101 -181 384zM604 389q0 -100 107 -100
q110 0 110 100v701q0 102 -110 100q-107 -2 -107 -100v-701zM1048 1795q7 -35 7 -62q0 -91 -15 -112q-32 -45 -72 -45q-177 153 -254 153t-254 -153q-30 0 -61 36q-18 21 -16 130q2 110 73 143q17 16 42 29q144 77 219 77q88 0 258 -101q25 -15 51 -54q20 -30 22 -41z" />
    <glyph glyph-name="dieresis" unicode="&#xa8;" horiz-adv-x="1364" 
d="M600 402q0 -72 64 -84h37q63 10 63 84v356q0 69 -63 84h-37q-64 -12 -64 -84v-356zM1152 1083l45 83q-51 13 -42 65l22 125q4 25 76 26q39 1 75 -15q53 -23 50 -41l-27 -150l-181 -109q97 -91 129 -276q6 -35 6 -66v-291q0 -60 -22 -141q-54 -200 -244 -283
q-82 -36 -310 -45l-47 -2q-35 0 -47 2q-106 4 -157 9q-92 9 -152 36q-122 54 -182 140q-53 78 -78 217q-6 34 -6 67v291q0 30 6 66q24 141 78 217q58 81 184 139q83 38 213 43l102 4h39q9 0 28.5 1t29.5 1q210 -2 305 -47q67 -32 107 -66z" />
    <glyph glyph-name="copyright" unicode="&#xa9;" horiz-adv-x="1335" 
d="M1239 889q15 -54 15 -160l2 -583q0 -146 -162 -167q-56 -7 -117 -8q-91 -1 -140.5 32t-86.5 118q-4 15 -13 35q-67 -141 -256 -179q-30 -6 -65 -6q-22 0 -49 4q-313 47 -312 394q0 184 139 273q116 75 312 75h43q87 0 110 4q68 12 83 59q0 71 -45 89q-20 8 -52 10
q-39 -2 -62 -13q-18 -9 -104 -65q-44 -29 -110 -43q-38 -8 -62 -8q-81 0 -128 54t-46 136q1 94 133 174q109 66 383 78l52 2q37 0 49 -2q291 -12 406 -141q56 -63 83 -162zM746 547q-13 -4 -43 -14q-132 -53 -154 -111q-6 -16 -6 -29q0 -31 24.5 -53.5t55.5 -23.5
q122 -2 125 213q0 9 -2 18zM966 1455q7 -30 7 -59q0 -85 -15 -106q-30 -43 -68 -43q-169 145 -241 145q-73 0 -242 -145q-29 0 -58 34q-17 20 -15 124q2 105 70 135q18 17 39 28q135 73 208 73q86 0 246 -96q16 -9 41.5 -41.5t27.5 -48.5z" />
    <glyph glyph-name="ordfeminine" unicode="&#xaa;" horiz-adv-x="1335" 
d="M1239 889q15 -54 15 -160l2 -583q0 -146 -162 -167q-56 -7 -117 -8q-91 -1 -140.5 32t-86.5 118q-4 15 -13 35q-67 -141 -256 -179q-30 -6 -65 -6q-22 0 -49 4q-313 47 -312 394q0 184 139 273q116 75 312 75h43q87 0 110 4q68 12 83 59q0 71 -45 89q-20 8 -52 10
q-39 -2 -62 -13q-18 -9 -104 -65q-44 -29 -110 -43q-38 -8 -62 -8q-81 0 -128 54t-46 136q1 94 133 174q109 66 383 78l52 2q37 0 49 -2q291 -12 406 -141q56 -63 83 -162zM746 547q-13 -4 -43 -14q-132 -53 -154 -111q-6 -16 -6 -29q0 -31 24.5 -53.5t55.5 -23.5
q122 -2 125 213q0 9 -2 18zM340 1473q-7 38 -7 56q0 82 13 100q29 41 65 41q168 -138 238 -138q69 0 237 138q27 0 55 -32q18 -20 16 -118q-2 -95 -67 -124q-12 -13 -38 -30q-141 -69 -206 -69q-82 0 -241 87q-20 11 -45 51q-18 29 -20 38zM649 1690l-263 254l-112 117
q0 78 68 112q17 9 43 9q29 0 69 -11l164 -201q0 -76 -15 -78l45 -128z" />
    <glyph glyph-name="guillemotleft" unicode="&#xab;" horiz-adv-x="1335" 
d="M1239 889q15 -54 15 -160l2 -583q0 -146 -162 -167q-56 -7 -117 -8q-91 -1 -140.5 32t-86.5 118q-4 15 -13 35q-67 -141 -256 -179q-30 -6 -65 -6q-22 0 -49 4q-313 47 -312 394q0 184 139 273q116 75 312 75h43q87 0 110 4q68 12 83 59q0 71 -45 89q-20 8 -52 10
q-39 -2 -62 -13q-18 -9 -104 -65q-44 -29 -110 -43q-38 -8 -62 -8q-81 0 -128 54t-46 136q1 94 133 174q109 66 383 78l52 2q37 0 49 -2q291 -12 406 -141q56 -63 83 -162zM746 547q-13 -4 -43 -14q-132 -53 -154 -111q-6 -16 -6 -29q0 -31 24.5 -53.5t55.5 -23.5
q122 -2 125 213q0 9 -2 18zM966 1455q7 -30 7 -59q0 -85 -15 -106q-30 -43 -68 -43q-169 145 -241 145q-73 0 -242 -145q-29 0 -58 34q-17 20 -15 124q2 105 70 135q18 17 39 28q135 73 208 73q86 0 246 -96q16 -9 41.5 -41.5t27.5 -48.5zM278 1390l-263 254l-112 117
q0 78 68 112q17 9 43 9q29 0 69 -11l164 -201q0 -77 -15 -78l45 -128z" />
    <glyph glyph-name="logicalnot" unicode="&#xac;" horiz-adv-x="1346" 
d="M217 -19q-246 15 -246 148l305 1141q26 98 72 141q40 38 143 70q78 25 173 26q105 2 172 -14q213 -49 241 -162l297 -1202q0 -68 -88 -114q-65 -34 -174 -34q-285 0 -305 161l-12 96q-69 10 -123 10q-70 0 -129 -10l-25 -84q-30 -101 -88 -139q-54 -35 -164 -36
q-13 0 -49 2zM594 559q44 -12 86 -12q43 0 84 12l-92 465zM1000 1755q7 -35 7 -62q0 -91 -15 -112q-32 -45 -72 -45q-177 153 -254 153t-254 -153q-30 0 -61 36q-18 21 -16 130q2 110 73 143q17 16 42 29q144 77 219 77q88 0 258 -101q25 -15 51 -54q20 -30 22 -41z
M1309 1909q-13 -6 -38 -23q-8 -12 -8 -28v-62q-67 -40 -105 -40q-39 0 -108 40v84q0 31 35 70q5 6 20 19l22 16l6 4q37 25 38 49q1 28 -24 37q-6 3 -16 3q-22 0 -28 -17q-5 -22 -23 -59q-13 -14 -41 -18q-15 -2 -54 -2q-98 0 -98 67q0 12 1 23q1 2 5 21q30 82 143 104
q48 9 100 10q21 0 42 -1q78 -5 106 -14q107 -35 107 -136q0 -18 -1 -23q-9 -91 -81 -124z" />
    <glyph glyph-name="sfthyphen" unicode="&#xad;" horiz-adv-x="338" 
d="M8 174l33 122h246l-33 -122h-246z" />
    <glyph glyph-name="registered" unicode="&#xae;" horiz-adv-x="1335" 
d="M1239 889q15 -54 15 -160l2 -583q0 -146 -162 -167q-56 -7 -117 -8q-91 -1 -140.5 32t-86.5 118q-4 15 -13 35q-67 -141 -256 -179q-30 -6 -65 -6q-22 0 -49 4q-313 47 -312 394q0 184 139 273q116 75 312 75h43q87 0 110 4q68 12 83 59q0 71 -45 89q-20 8 -52 10
q-39 -2 -62 -13q-18 -9 -104 -65q-44 -29 -110 -43q-38 -8 -62 -8q-81 0 -128 54t-46 136q1 94 133 174q109 66 383 78l52 2q37 0 49 -2q291 -12 406 -141q56 -63 83 -162zM746 547q-13 -4 -43 -14q-132 -53 -154 -111q-6 -16 -6 -29q0 -31 24.5 -53.5t55.5 -23.5
q122 -2 125 213q0 9 -2 18zM341 1470q-7 37 -7 56q0 82 13 100q29 41 65 41q168 -138 238 -138q69 0 237 138q27 0 55 -32q18 -20 16 -118q-2 -95 -67 -124q-12 -13 -38 -30q-141 -69 -206 -69q-82 0 -241 87q-20 11 -45 51q-18 29 -20 38z" />
    <glyph glyph-name="macron" unicode="&#xaf;" horiz-adv-x="1409" 
d="M1335 1064v-980q0 -49 -108 -92q-63 -25 -146 -25q-11 0 -73 4q-76 5 -117 21q-111 44 -111 96v62q-5 -7 -26 -27q-156 -150 -324 -150q-171 0 -276 133q-51 64 -70 148q-5 20 -10 70l2 67v670q0 63 135 107q52 17 117 18q70 1 104 -4q79 -12 115 -31q80 -43 80 -80v-643
q0 -57 73 -57q72 0 72 53v637q0 70 174 115q60 9 121 10q92 1 164 -33q82 -39 99 -65l42 78q-51 13 -42 65l22 125q4 25 76 26q39 1 75 -15q53 -23 50 -41l-27 -150l-190 -114zM1074 1646l-112 -117l-263 -254l1 74l45 128q-15 1 -15 78l164 201q40 11 69 11q26 0 43 -9
q68 -34 68 -112z" />
    <glyph glyph-name="macron" unicode="&#x2c9;" horiz-adv-x="1409" 
d="M1335 1064v-980q0 -49 -108 -92q-63 -25 -146 -25q-11 0 -73 4q-76 5 -117 21q-111 44 -111 96v62q-5 -7 -26 -27q-156 -150 -324 -150q-171 0 -276 133q-51 64 -70 148q-5 20 -10 70l2 67v670q0 63 135 107q52 17 117 18q70 1 104 -4q79 -12 115 -31q80 -43 80 -80v-643
q0 -57 73 -57q72 0 72 53v637q0 70 174 115q60 9 121 10q92 1 164 -33q82 -39 99 -65l42 78q-51 13 -42 65l22 125q4 25 76 26q39 1 75 -15q53 -23 50 -41l-27 -150l-190 -114zM1074 1646l-112 -117l-263 -254l1 74l45 128q-15 1 -15 78l164 201q40 11 69 11q26 0 43 -9
q68 -34 68 -112z" />
    <glyph glyph-name="degree" unicode="&#xb0;" horiz-adv-x="1346" 
d="M217 -19q-246 15 -246 148l305 1141q26 98 72 141q40 38 143 70q78 25 173 26q105 2 172 -14q213 -49 241 -162l297 -1202q0 -68 -88 -114q-65 -34 -174 -34q-285 0 -305 161l-12 96q-69 10 -123 10q-70 0 -129 -10l-25 -84q-30 -101 -88 -139q-54 -35 -164 -36
q-13 0 -49 2zM594 559q44 -12 86 -12q43 0 84 12l-92 465zM331 1772q-8 41 -8 62q0 91 15 112q32 45 72 45q187 -153 264 -153t264 153q30 0 61 -36q19 -22 17 -131q-2 -104 -74 -138q-13 -14 -42 -33q-157 -77 -229 -77q-90 0 -268 97q-23 12 -50 56q-20 32 -22 43z" />
    <glyph glyph-name="plusminus" unicode="&#xb1;" horiz-adv-x="1272" 
d="M354 514l-369 828q-2 7 -4 18q0 57 122 107q34 14 108 24q87 0 102 -2q186 -25 211 -102l121 -377l127 393q15 46 160 82q37 9 98 8q60 -1 105 -14q155 -44 155 -105q0 -5 -4 -14l-362 -825v-436q0 -14 -51 -56q-75 -62 -191 -64q-34 -1 -123 8q-64 6 -110 26
q-95 41 -95 98v403zM797 1699q-13 -6 -38 -23q-8 -12 -8 -28v-62q-67 -40 -105 -40q-39 0 -108 40v84q0 31 35 70q5 6 20 19l22 16l6 4q37 25 38 49q1 28 -24 37q-6 3 -16 3q-22 0 -28 -17q-5 -22 -23 -59q-13 -14 -41 -18q-15 -2 -54 -2q-98 0 -98 67q0 12 1 23q1 2 5 21
q30 82 143 104q48 9 100 10q21 0 42 -1q78 -5 106 -14q107 -35 107 -136q0 -18 -1 -23q-9 -91 -81 -124z" />
    <glyph glyph-name="twosuperior" unicode="&#xb2;" 
 />
    <glyph glyph-name="threesuperior" unicode="&#xb3;" 
 />
    <glyph glyph-name="acute" unicode="&#xb4;" horiz-adv-x="1364" 
d="M66 367q-6 34 -6 67v291q0 30 6 66q24 141 78 217q58 81 184 139q83 38 213 43l102 4h39q9 0 28.5 1t29.5 1q210 -2 305 -47q118 -56 177 -143q53 -79 77 -215q6 -34 6 -66v-291q0 -60 -22 -141q-54 -200 -244 -283q-82 -36 -310 -45l-47 -2q-35 0 -47 2q-106 4 -157 9
q-92 9 -152 36q-122 54 -182 140q-53 78 -78 217zM600 402q0 -72 64 -84h37q63 10 63 84v356q0 69 -63 84h-37q-64 -12 -64 -84v-356zM1022 1455q7 -30 7 -59q0 -85 -15 -106q-30 -43 -68 -43q-169 145 -241 145q-73 0 -242 -145q-29 0 -58 34q-17 20 -15 124q2 105 70 135
q18 17 39 28q135 73 208 73q86 0 246 -96q16 -9 41.5 -41.5t27.5 -48.5z" />
    <glyph glyph-name="mu" unicode="&#xb5;" horiz-adv-x="1335" 
d="M1239 889q15 -54 15 -160l2 -583q0 -146 -162 -167q-56 -7 -117 -8q-91 -1 -140.5 32t-86.5 118q-4 15 -13 35q-67 -141 -256 -179q-30 -6 -65 -6q-22 0 -49 4q-313 47 -312 394q0 184 139 273q116 75 312 75h43q87 0 110 4q68 12 83 59q0 71 -45 89q-20 8 -52 10
q-39 -2 -62 -13q-18 -9 -104 -65q-44 -29 -110 -43q-38 -8 -62 -8q-81 0 -128 54t-46 136q1 94 133 174q109 66 383 78l52 2q37 0 49 -2q291 -12 406 -141q56 -63 83 -162zM746 547q-13 -4 -43 -14q-132 -53 -154 -111q-6 -16 -6 -29q0 -31 24.5 -53.5t55.5 -23.5
q122 -2 125 213q0 9 -2 18zM649 1345l-263 254l-112 117q0 78 68 112q17 9 43 9q29 0 69 -11l164 -201q0 -77 -15 -78l45 -128z" />
    <glyph glyph-name="mu" unicode="&#x3bc;" horiz-adv-x="1335" 
d="M1239 889q15 -54 15 -160l2 -583q0 -146 -162 -167q-56 -7 -117 -8q-91 -1 -140.5 32t-86.5 118q-4 15 -13 35q-67 -141 -256 -179q-30 -6 -65 -6q-22 0 -49 4q-313 47 -312 394q0 184 139 273q116 75 312 75h43q87 0 110 4q68 12 83 59q0 71 -45 89q-20 8 -52 10
q-39 -2 -62 -13q-18 -9 -104 -65q-44 -29 -110 -43q-38 -8 -62 -8q-81 0 -128 54t-46 136q1 94 133 174q109 66 383 78l52 2q37 0 49 -2q291 -12 406 -141q56 -63 83 -162zM746 547q-13 -4 -43 -14q-132 -53 -154 -111q-6 -16 -6 -29q0 -31 24.5 -53.5t55.5 -23.5
q122 -2 125 213q0 9 -2 18zM649 1345l-263 254l-112 117q0 78 68 112q17 9 43 9q29 0 69 -11l164 -201q0 -77 -15 -78l45 -128z" />
    <glyph glyph-name="paragraph" unicode="&#xb6;" horiz-adv-x="1417" 
d="M1344 1296v-874q0 -42 -4 -74q-14 -111 -65 -192q-90 -143 -376 -187q-68 -11 -141 -12q-78 -2 -147 4q-364 29 -464 189q-54 86 -69 221q-4 35 -4 57v940q0 84 197 117q14 1 41 5q5 0 9 1h7q115 0 178 -29q99 -45 99 -98v-987q0 -25 16 -51q30 -36 74 -37q27 -1 65 18
q53 26 53 80v983q0 51 127 99q9 3 88 20q51 5 88 4q70 -2 136 -31l26 142q5 29 93 32q47 2 91 -18q63 -29 61 -51l-34 -185z" />
    <glyph glyph-name="ch270" unicode="&#xb7;" horiz-adv-x="249" 
d="M38 348q0 80 80 80q81 0 81 -80q0 -81 -81 -81q-80 0 -80 81z" />
    <glyph glyph-name="ch270" unicode="&#x2219;" horiz-adv-x="249" 
d="M38 348q0 80 80 80q81 0 81 -80q0 -81 -81 -81q-80 0 -80 81z" />
    <glyph glyph-name="cedilla" unicode="&#xb8;" horiz-adv-x="1311" 
d="M383 -8l-398 1042q-2 9 -4 23q0 86 199 129q37 8 88 8q60 0 107 -10q88 -19 118 -33q62 -29 74 -88l97 -477l114 491q8 33 46 56q59 36 129 41q23 7 102 8q108 1 174 -29q96 -44 96 -86l-450 -1161q-12 -32 -31 -62q-123 -199 -322 -211l-67 -4h-51l-78 -4h-41
q-101 0 -143 27q-52 35 -54 129q8 76 55 98q30 14 117 14q40 0 51 -2q80 0 80 66q-3 22 -8 35zM560 1448q-15 -30 -50 -77q-37 -31 -62 -38l-101 -28q-25 -7 -50.5 12.5t-25.5 45.5q0 29 43 99q37 60 65 90q16 18 32 25l191 64l187 -144q15 30 50 77q36 30 62 38l91 28
q3 1 9 1q27 0 52 -17.5t25 -43.5q0 -15 -29 -72q-33 -66 -79 -115q-16 -18 -32 -25l-191 -64z" />
    <glyph glyph-name="onesuperior" unicode="&#xb9;" 
 />
    <glyph glyph-name="ordmasculine" unicode="&#xba;" horiz-adv-x="1335" 
d="M1239 889q15 -54 15 -160l2 -583q0 -146 -162 -167q-56 -7 -117 -8q-91 -1 -140.5 32t-86.5 118q-4 15 -13 35q-67 -141 -256 -179q-30 -6 -65 -6q-22 0 -49 4q-313 47 -312 394q0 184 139 273q116 75 312 75h43q87 0 110 4q68 12 83 59q0 71 -45 89q-20 8 -52 10
q-39 -2 -62 -13q-18 -9 -104 -65q-44 -29 -110 -43q-38 -8 -62 -8q-81 0 -128 54t-46 136q1 94 133 174q109 66 383 78l52 2q37 0 49 -2q291 -12 406 -141q56 -63 83 -162zM746 547q-13 -4 -43 -14q-132 -53 -154 -111q-6 -16 -6 -29q0 -31 24.5 -53.5t55.5 -23.5
q122 -2 125 213q0 9 -2 18zM343 1471q-7 37 -7 56q0 82 13 100q29 41 65 41q168 -138 238 -138q69 0 237 138q27 0 55 -32q18 -20 16 -118q-2 -95 -67 -124q-12 -13 -38 -30q-141 -69 -206 -69q-82 0 -241 87q-20 11 -45 51q-18 29 -20 38zM802 1848q-13 -6 -38 -23
q-8 -12 -8 -28v-62q-67 -40 -105 -40q-39 0 -108 40v84q0 32 35 70q3 3 20 19l22 16l6 4q37 25 38 49q1 28 -24 37q-6 3 -16 3q-22 0 -28 -17q-5 -22 -23 -59q-13 -14 -41 -18q-15 -2 -54 -2q-98 0 -98 67q0 12 1 23q1 2 5 21q30 82 143 104q48 9 100 10q21 0 42 -1
q78 -5 106 -14q107 -35 107 -136q0 -18 -1 -23q-9 -91 -81 -124z" />
    <glyph glyph-name="guillemotright" unicode="&#xbb;" horiz-adv-x="1335" 
d="M1239 889q15 -54 15 -160l2 -583q0 -146 -162 -167q-56 -7 -117 -8q-91 -1 -140.5 32t-86.5 118q-4 15 -13 35q-67 -141 -256 -179q-30 -6 -65 -6q-22 0 -49 4q-313 47 -312 394q0 184 139 273q116 75 312 75h43q87 0 110 4q68 12 83 59q0 71 -45 89q-20 8 -52 10
q-39 -2 -62 -13q-18 -9 -104 -65q-44 -29 -110 -43q-38 -8 -62 -8q-81 0 -128 54t-46 136q1 94 133 174q109 66 383 78l52 2q37 0 49 -2q291 -12 406 -141q56 -63 83 -162zM746 547q-13 -4 -43 -14q-132 -53 -154 -111q-6 -16 -6 -29q0 -31 24.5 -53.5t55.5 -23.5
q122 -2 125 213q0 9 -2 18zM965 1457q7 -30 7 -59q0 -85 -15 -106q-30 -43 -68 -43q-169 145 -241 145q-73 0 -242 -145q-29 0 -58 34q-17 20 -15 124q2 105 70 135q18 17 39 28q135 73 208 73q86 0 246 -96q16 -9 41.5 -41.5t27.5 -48.5zM1290 1613q-13 -6 -38 -23
q-8 -12 -8 -28v-62q-67 -40 -105 -40q-39 0 -108 40v84q0 32 35 70q3 3 20 19l22 16l6 4q37 25 38 49q1 28 -24 37q-6 3 -16 3q-22 0 -28 -17q-5 -22 -23 -59q-13 -14 -41 -18q-15 -2 -54 -2q-98 0 -98 67q0 12 1 23q1 2 5 21q30 82 143 104q48 9 100 10q21 0 42 -1
q78 -5 106 -14q107 -35 107 -136q0 -18 -1 -23q-9 -91 -81 -124z" />
    <glyph glyph-name="onequarter" unicode="&#xbc;" 
 />
    <glyph glyph-name="onehalf" unicode="&#xbd;" 
 />
    <glyph glyph-name="threequarters" unicode="&#xbe;" 
 />
    <glyph glyph-name="questiondown" unicode="&#xbf;" horiz-adv-x="1346" 
d="M217 -19q-246 15 -246 148l305 1141q26 98 72 141q40 38 143 70q78 25 173 26q105 2 172 -14q213 -49 241 -162l297 -1202q0 -68 -88 -114q-65 -34 -174 -34q-285 0 -305 161l-12 96q-69 10 -123 10q-70 0 -129 -10l-25 -84q-30 -101 -88 -139q-54 -35 -164 -36
q-13 0 -49 2zM594 559q44 -12 86 -12q43 0 84 12l-92 465zM331 1772q-8 41 -8 62q0 91 15 112q32 45 72 45q187 -153 264 -153t264 153q30 0 61 -36q19 -22 17 -131q-2 -104 -74 -138q-13 -14 -42 -33q-157 -77 -229 -77q-90 0 -268 97q-23 12 -50 56q-20 32 -22 43z
M1046 2363l-112 -117l-263 -254l1 74l45 128q-15 1 -15 78l164 201q40 11 69 11q26 0 43 -9q68 -34 68 -112z" />
    <glyph glyph-name="Agrave" unicode="&#xc0;" horiz-adv-x="1346" 
d="M673 1604l-263 254l-112 117q0 78 68 112q17 9 43 9q29 0 69 -11l164 -201q0 -76 -15 -78l45 -128zM217 -19q-246 15 -246 148l305 1141q26 98 72 141q40 38 143 70q78 25 173 26q105 2 172 -14q213 -49 241 -162l297 -1202q0 -68 -88 -114q-65 -34 -174 -34
q-285 0 -305 161l-12 96q-69 10 -123 10q-70 0 -129 -10l-25 -84q-30 -101 -88 -139q-54 -35 -164 -36q-13 0 -49 2zM594 559q44 -12 86 -12q43 0 84 12l-92 465z" />
    <glyph glyph-name="Aacute" unicode="&#xc1;" horiz-adv-x="1346" 
d="M217 -19q-246 15 -246 148l305 1141q26 98 72 141q40 38 143 70q78 25 173 26q105 2 172 -14q213 -49 241 -162l297 -1202q0 -68 -88 -114q-65 -34 -174 -34q-285 0 -305 161l-12 96q-69 10 -123 10q-70 0 -129 -10l-25 -84q-30 -101 -88 -139q-54 -35 -164 -36
q-13 0 -49 2zM594 559q44 -12 86 -12q43 0 84 12l-92 465zM1046 1975l-112 -117l-263 -254l1 74l45 128q-15 1 -15 78l164 201q40 11 69 11q26 0 43 -9q68 -34 68 -112z" />
    <glyph glyph-name="Acircumflex" unicode="&#xc2;" horiz-adv-x="1346" 
d="M217 -19q-246 15 -246 148l305 1141q26 98 72 141q40 38 143 70q78 25 173 26q105 2 172 -14q213 -49 241 -162l297 -1202q0 -68 -88 -114q-65 -34 -174 -34q-285 0 -305 161l-12 96q-69 10 -123 10q-70 0 -129 -10l-25 -84q-30 -101 -88 -139q-54 -35 -164 -36
q-13 0 -49 2zM594 559q44 -12 86 -12q43 0 84 12l-92 465zM1000 1755q7 -35 7 -62q0 -91 -15 -112q-32 -45 -72 -45q-177 153 -254 153t-254 -153q-30 0 -61 36q-18 21 -16 130q2 110 73 143q17 16 42 29q144 77 219 77q88 0 258 -101q25 -15 51 -54q20 -30 22 -41z" />
    <glyph glyph-name="Atilde" unicode="&#xc3;" horiz-adv-x="1346" 
d="M1374 129q0 -68 -88 -114q-65 -34 -174 -34q-285 0 -305 161l-12 96q-69 10 -123 10q-70 0 -129 -10l-25 -84q-30 -101 -88 -139q-54 -35 -164 -36q-8 0 -24.5 1t-24.5 1v0q-246 15 -246 148l305 1141q26 98 72 141q40 38 143 70q78 25 173 26q105 2 172 -14
q213 -49 241 -162zM764 559l-92 465l-78 -465q44 -12 86 -12q43 0 84 12zM563 1750q-15 -30 -50 -77q-37 -31 -62 -38l-101 -28q-25 -7 -50.5 12.5t-25.5 45.5q0 29 43 99q37 60 65 90q16 18 32 25l191 64l187 -144q15 30 50 77q36 30 62 38l91 28q3 1 9 1q27 0 52 -17.5
t25 -43.5q0 -15 -29 -72q-33 -66 -79 -115q-16 -18 -32 -25l-191 -64z" />
    <glyph glyph-name="Adieresis" unicode="&#xc4;" horiz-adv-x="1346" 
d="M673 1604l-263 254l-112 117q0 78 68 112q17 9 43 9q29 0 69 -11l164 -201q0 -76 -15 -78l45 -128zM217 -19q-246 15 -246 148l305 1141q26 98 72 141q40 38 143 70q78 25 173 26q105 2 172 -14q213 -49 241 -162l297 -1202q0 -68 -88 -114q-65 -34 -174 -34
q-285 0 -305 161l-12 96q-69 10 -123 10q-70 0 -129 -10l-25 -84q-30 -101 -88 -139q-54 -35 -164 -36q-13 0 -49 2zM594 559q44 -12 86 -12q43 0 84 12l-92 465z" />
    <glyph glyph-name="Aring" unicode="&#xc5;" horiz-adv-x="1346" 
d="M217 -19q-246 15 -246 148l305 1141q26 98 72 141q40 38 143 70q78 25 173 26q105 2 172 -14q213 -49 241 -162l297 -1202q0 -68 -88 -114q-65 -34 -174 -34q-285 0 -305 161l-12 96q-69 10 -123 10q-70 0 -129 -10l-25 -84q-30 -101 -88 -139q-54 -35 -164 -36
q-13 0 -49 2zM594 559q44 -12 86 -12q43 0 84 12l-92 465zM823 1749q-13 -6 -38 -23q-8 -12 -8 -28v-62q-67 -40 -105 -40q-39 0 -108 40v84q0 31 35 70q5 6 20 19l22 16l6 4q37 25 38 49q1 28 -24 37q-6 3 -16 3q-22 0 -28 -17q-5 -22 -23 -59q-13 -14 -41 -18
q-15 -2 -54 -2q-98 0 -98 67q0 12 1 23q1 2 5 21q30 82 143 104q48 9 100 10q21 0 42 -1q78 -5 106 -14q107 -35 107 -136q0 -18 -1 -23q-9 -91 -81 -124z" />
    <glyph glyph-name="AE" unicode="&#xc6;" horiz-adv-x="1405" 
d="M600 481q12 -126 84 -126q61 0 81 59q11 32 11 123v106q0 135 -92 133q-85 -2 -90 -194q-1 -30 6 -101zM770 1189h-89q-104 13 -104 152q9 74 77 107q2 1 23 10h93v59q0 55 113 95q80 29 176 24q66 -3 102 -14q170 -50 170 -109v-56h2q102 0 102 -125q0 -22 -5 -48
q-19 -97 -81 -97h-18v-1093q0 -57 -123 -111q-50 -22 -145 -22q-274 0 -285 172q-75 -133 -258 -164q-47 -8 -90 -8q-298 0 -360 377q-10 61 -10 221q0 431 167 557q84 63 212 64q21 0 61 -4q115 -12 221 -80q6 -4 49 -35v128z" />
    <glyph glyph-name="Ccedilla" unicode="&#xc7;" horiz-adv-x="1346" 
d="M1374 129q0 -68 -88 -114q-65 -34 -174 -34q-285 0 -305 161l-12 96q-69 10 -123 10q-70 0 -129 -10l-25 -84q-30 -101 -88 -139q-54 -35 -164 -36q-8 0 -24.5 1t-24.5 1v0q-246 15 -246 148l305 1141q26 98 72 141q40 38 143 70q78 25 173 26q105 2 172 -14
q213 -49 241 -162zM764 559l-92 465l-78 -465q44 -12 86 -12q43 0 84 12zM563 1750q-15 -30 -50 -77q-37 -31 -62 -38l-101 -28q-25 -7 -50.5 12.5t-25.5 45.5q0 29 43 99q37 60 65 90q16 18 32 25l191 64l187 -144q15 30 50 77q36 30 62 38l91 28q3 1 9 1q27 0 52 -17.5
t25 -43.5q0 -15 -29 -72q-33 -66 -79 -115q-16 -18 -32 -25l-191 -64z" />
    <glyph glyph-name="Egrave" unicode="&#xc8;" horiz-adv-x="1256" 
d="M74 107v1300q0 41 73 64q13 4 31 4h883q110 0 141 -131q6 -18 6 -91q-17 -156 -151 -157l-453 -2v-164l451 2q59 0 104 -104q15 -36 14 -84q-5 -178 -172 -179l-397 -2v-174l475 -2q133 -1 127 -227q-2 -68 -36 -112q-38 -48 -103 -48h-915q-47 0 -72 66q-6 16 -6 41z
M636 1606l-263 254l-112 117q0 78 68 112q17 9 43 9q29 0 69 -11l164 -201q0 -76 -15 -78l45 -128z" />
    <glyph glyph-name="Eacute" unicode="&#xc9;" horiz-adv-x="1256" 
d="M74 107v1300q0 41 73 64q13 4 31 4h883q110 0 141 -131q6 -18 6 -91q-17 -156 -151 -157l-453 -2v-164l451 2q59 0 104 -104q15 -36 14 -84q-5 -178 -172 -179l-397 -2v-174l475 -2q133 -1 127 -227q-2 -68 -36 -112q-38 -48 -103 -48h-915q-47 0 -72 66q-6 16 -6 41z
M1010 1980l-112 -117l-263 -254l1 74l45 128q-15 1 -15 78l164 201q40 11 69 11q26 0 43 -9q68 -34 68 -112z" />
    <glyph glyph-name="Ecircumflex" unicode="&#xca;" horiz-adv-x="1256" 
d="M968 1755q7 -35 7 -62q0 -91 -15 -112q-32 -45 -72 -45q-177 153 -254 153t-254 -153q-30 0 -61 36q-18 21 -16 130q2 110 73 143q17 16 42 29q144 77 219 77q88 0 258 -101q25 -15 51 -54q20 -30 22 -41zM74 107v1300q0 41 73 64q13 4 31 4h883q110 0 141 -131
q6 -18 6 -91q-17 -156 -151 -157l-453 -2v-164l451 2q59 0 104 -104q15 -36 14 -84q-5 -178 -172 -179l-397 -2v-174l475 -2q133 -1 127 -227q-2 -68 -36 -112q-38 -48 -103 -48h-915q-47 0 -72 66q-6 16 -6 41z" />
    <glyph glyph-name="Edieresis" unicode="&#xcb;" horiz-adv-x="1364" 
d="M66 367q-6 34 -6 67v291q0 30 6 66q24 141 78 217q58 81 184 139q83 38 213 43l102 4h39q9 0 28.5 1t29.5 1q210 -2 305 -47q118 -56 177 -143q53 -79 77 -215q6 -34 6 -66v-291q0 -60 -22 -141q-54 -200 -244 -283q-82 -36 -310 -45l-47 -2q-35 0 -47 2q-106 4 -157 9
q-92 9 -152 36q-122 54 -182 140q-53 78 -78 217zM600 402q0 -72 64 -84h37q63 10 63 84v356q0 69 -63 84h-37q-64 -12 -64 -84v-356zM1025 1455q7 -30 7 -59q0 -85 -15 -106q-30 -43 -68 -43q-169 145 -241 145q-73 0 -242 -145q-29 0 -58 34q-17 20 -15 124q2 105 70 135
q18 17 39 28q135 73 208 73q86 0 246 -96q16 -9 41.5 -41.5t27.5 -48.5zM1463 1763l-112 -117l-263 -254l1 74l45 128q-15 1 -15 78l164 201q40 11 69 11q26 0 43 -9q68 -34 68 -112z" />
    <glyph glyph-name="Igrave" unicode="&#xcc;" horiz-adv-x="678" 
d="M74 78v1300q0 50 112 95q65 26 172 24q54 -1 103 -16q143 -44 143 -103v-1292q0 -53 -147 -94q-25 -7 -84 -13q-70 0 -90 2q-49 5 -88 17q-121 38 -121 80zM340 1606l-263 254l-112 117q0 78 68 112q17 9 43 9q29 0 69 -11l164 -201q0 -76 -15 -78l45 -128z" />
    <glyph glyph-name="Iacute" unicode="&#xcd;" horiz-adv-x="678" 
d="M74 78v1300q0 50 112 95q65 26 172 24q54 -1 103 -16q143 -44 143 -103v-1292q0 -53 -147 -94q-25 -7 -84 -13q-70 0 -90 2q-49 5 -88 17q-121 38 -121 80zM714 1977l-112 -117l-263 -254l1 74l45 128q-15 1 -15 78l164 201q40 11 69 11q26 0 43 -9q68 -34 68 -112z" />
    <glyph glyph-name="Icircumflex" unicode="&#xce;" horiz-adv-x="1364" 
d="M600 402q0 -72 64 -84h37q63 10 63 84v356q0 69 -63 84h-37q-64 -12 -64 -84v-356zM1152 1083l45 83q-51 13 -42 65l22 125q4 25 76 26q39 1 75 -15q53 -23 50 -41l-27 -150l-181 -109q97 -91 129 -276q6 -35 6 -66v-291q0 -60 -22 -141q-54 -200 -244 -283
q-82 -36 -310 -45l-47 -2q-35 0 -47 2q-106 4 -157 9q-92 9 -152 36q-122 54 -182 140q-53 78 -78 217q-6 34 -6 67v291q0 30 6 66q24 141 78 217q58 81 184 139q83 38 213 43l102 4h39q9 0 28.5 1t29.5 1q210 -2 305 -47q67 -32 107 -66zM860 1496q-13 -6 -38 -23
q-8 -12 -8 -28v-62q-67 -40 -105 -40q-39 0 -108 40v84q0 31 35 70q5 6 20 19l22 16l6 4q37 25 38 49q1 28 -24 37q-6 3 -16 3q-22 0 -28 -17q-5 -22 -23 -59q-13 -14 -41 -18q-15 -2 -54 -2q-98 0 -98 67q0 12 1 23q1 2 5 21q30 82 143 104q48 9 100 10q21 0 42 -1
q78 -5 106 -14q107 -35 107 -136q0 -18 -1 -23q-9 -91 -81 -124z" />
    <glyph glyph-name="Idieresis" unicode="&#xcf;" horiz-adv-x="1364" 
d="M600 402q0 -72 64 -84h37q63 10 63 84v356q0 69 -63 84h-37q-64 -12 -64 -84v-356zM1152 1083l45 83q-51 13 -42 65l22 125q4 25 76 26q39 1 75 -15q53 -23 50 -41l-27 -150l-181 -109q97 -91 129 -276q6 -35 6 -66v-291q0 -60 -22 -141q-54 -200 -244 -283
q-82 -36 -310 -45l-47 -2q-35 0 -47 2q-106 4 -157 9q-92 9 -152 36q-122 54 -182 140q-53 78 -78 217q-6 34 -6 67v291q0 30 6 66q24 141 78 217q58 81 184 139q83 38 213 43l102 4h39q9 0 28.5 1t29.5 1q210 -2 305 -47q67 -32 107 -66zM605 1488q-15 -30 -50 -77
q-37 -31 -62 -38l-101 -28q-25 -7 -50.5 12.5t-25.5 45.5q0 29 43 99q37 60 65 90q16 18 32 25l191 64l187 -144q15 30 50 77q36 30 62 38l91 28q3 1 9 1q27 0 52 -17.5t25 -43.5q0 -15 -29 -72q-33 -66 -79 -115q-16 -18 -32 -25l-191 -64z" />
    <glyph glyph-name="Eth" unicode="&#xd0;" 
 />
    <glyph glyph-name="Ntilde" unicode="&#xd1;" horiz-adv-x="1346" 
d="M217 -19q-246 15 -246 148l305 1141q26 98 72 141q40 38 143 70q78 25 173 26q105 2 172 -14q213 -49 241 -162l297 -1202q0 -68 -88 -114q-65 -34 -174 -34q-285 0 -305 161l-12 96q-69 10 -123 10q-70 0 -129 -10l-25 -84q-30 -101 -88 -139q-54 -35 -164 -36
q-13 0 -49 2zM594 559q44 -12 86 -12q43 0 84 12l-92 465zM834 -267q-24 -88 -49 -88h-233q-28 0 -54 67q-8 21 -13 67q0 73 20 125q22 57 45 57h224q25 0 52 -69q14 -36 14 -106q0 -31 -6 -53z" />
    <glyph glyph-name="Ograve" unicode="&#xd2;" horiz-adv-x="1428" 
d="M78 455q-4 49 -4 88v393q0 35 4 86q22 278 194 394q146 100 441 102q120 1 231 -25q270 -63 349 -229q45 -95 57 -242q4 -49 4 -86v-393q0 -43 -4 -88q-25 -283 -184 -385q-170 -109 -453 -109q-282 0 -454 110q-158 101 -181 384zM604 389q0 -100 107 -100
q110 0 110 100v701q0 102 -110 100q-107 -2 -107 -100v-701zM716 1616l-263 254l-112 117q0 78 68 112q17 9 43 9q29 0 69 -11l164 -201q0 -76 -15 -78l45 -128z" />
    <glyph glyph-name="Oacute" unicode="&#xd3;" horiz-adv-x="1428" 
d="M78 455q-4 49 -4 88v393q0 35 4 86q22 278 194 394q146 100 441 102q120 1 231 -25q270 -63 349 -229q45 -95 57 -242q4 -49 4 -86v-393q0 -43 -4 -88q-25 -283 -184 -385q-170 -109 -453 -109q-282 0 -454 110q-158 101 -181 384zM604 389q0 -100 107 -100
q110 0 110 100v701q0 102 -110 100q-107 -2 -107 -100v-701zM1090 1990l-112 -117l-263 -254l1 74l45 128q-15 1 -15 78l164 201q40 11 69 11q26 0 43 -9q68 -34 68 -112z" />
    <glyph glyph-name="Ocircumflex" unicode="&#xd4;" horiz-adv-x="1428" 
d="M78 455q-4 49 -4 88v393q0 35 4 86q22 278 194 394q146 100 441 102q120 1 231 -25q270 -63 349 -229q45 -95 57 -242q4 -49 4 -86v-393q0 -43 -4 -88q-25 -283 -184 -385q-170 -109 -453 -109q-282 0 -454 110q-158 101 -181 384zM604 389q0 -100 107 -100
q110 0 110 100v701q0 102 -110 100q-107 -2 -107 -100v-701zM1048 1795q7 -35 7 -62q0 -91 -15 -112q-32 -45 -72 -45q-177 153 -254 153t-254 -153q-30 0 -61 36q-18 21 -16 130q2 110 73 143q17 16 42 29q144 77 219 77q88 0 258 -101q25 -15 51 -54q20 -30 22 -41z" />
    <glyph glyph-name="Otilde" unicode="&#xd5;" horiz-adv-x="1428" 
d="M78 455q-4 49 -4 88v393q0 35 4 86q22 278 194 394q146 100 441 102q120 1 231 -25q270 -63 349 -229q45 -95 57 -242q4 -49 4 -86v-393q0 -43 -4 -88q-25 -283 -184 -385q-170 -109 -453 -109q-282 0 -454 110q-158 101 -181 384zM604 389q0 -100 107 -100
q110 0 110 100v701q0 102 -110 100q-107 -2 -107 -100v-701zM607 1758q-15 -30 -50 -77q-37 -31 -62 -38l-101 -28q-25 -7 -50.5 12.5t-25.5 45.5q0 29 43 99q37 60 65 90q16 18 32 25l191 64l187 -144q15 30 50 77q36 30 62 38l91 28q3 1 9 1q27 0 52 -17.5t25 -43.5
q0 -15 -29 -72q-33 -66 -79 -115q-16 -18 -32 -25l-191 -64z" />
    <glyph glyph-name="Odieresis" unicode="&#xd6;" horiz-adv-x="1346" 
d="M217 -19q-246 15 -246 148l305 1141q26 98 72 141q40 38 143 70q78 25 173 26q105 2 172 -14q213 -49 241 -162l297 -1202q0 -68 -88 -114q-65 -34 -174 -34q-285 0 -305 161l-12 96q-69 10 -123 10q-70 0 -129 -10l-25 -84q-30 -101 -88 -139q-54 -35 -164 -36
q-13 0 -49 2zM594 559q44 -12 86 -12q43 0 84 12l-92 465zM331 1772q-8 41 -8 62q0 91 15 112q32 45 72 45q187 -153 264 -153t264 153q30 0 61 -36q19 -22 17 -131q-2 -104 -74 -138q-13 -14 -42 -33q-157 -77 -229 -77q-90 0 -268 97q-23 12 -50 56q-20 32 -22 43z
M834 -267q-24 -88 -49 -88h-233q-28 0 -54 67q-8 21 -13 67q0 73 20 125q22 57 45 57h224q25 0 52 -69q14 -36 14 -106q0 -31 -6 -53z" />
    <glyph glyph-name="multiply" unicode="&#xd7;" 
 />
    <glyph glyph-name="Oslash" unicode="&#xd8;" horiz-adv-x="1346" 
d="M217 -19q-246 15 -246 148l305 1141q26 98 72 141q40 38 143 70q78 25 173 26q105 2 172 -14q213 -49 241 -162l297 -1202q0 -68 -88 -114q-65 -34 -174 -34q-285 0 -305 161l-12 96q-69 10 -123 10q-70 0 -129 -10l-25 -84q-30 -101 -88 -139q-54 -35 -164 -36
q-13 0 -49 2zM594 559q44 -12 86 -12q43 0 84 12l-92 465zM331 1772q-8 41 -8 62q0 91 15 112q32 45 72 45q187 -153 264 -153t264 153q30 0 61 -36q19 -22 17 -131q-2 -104 -74 -138q-13 -14 -42 -33q-157 -77 -229 -77q-90 0 -268 97q-23 12 -50 56q-20 32 -22 43z
M673 1993l-263 254l-112 117q0 78 68 112q17 9 43 9q29 0 69 -11l164 -201q0 -76 -15 -78l45 -128z" />
    <glyph glyph-name="Ugrave" unicode="&#xd9;" horiz-adv-x="1417" 
d="M78 371l-4 57v940q0 84 197 117q14 1 41 5q5 0 9 1h7q115 0 178 -29q99 -45 99 -98v-987q0 -25 16 -51q30 -36 74 -37q27 -1 65 18q53 26 53 80v983q0 51 127 99q9 3 88 20q51 5 88 4q41 -1 86 -14q142 -41 142 -144v-913q0 -42 -4 -74q-14 -111 -65 -192
q-90 -143 -376 -187q-68 -11 -141 -12q-78 -2 -147 4q-364 29 -464 189q-60 96 -69 221zM706 1576l-263 254l-112 117q0 78 68 112q17 9 43 9q29 0 69 -11l164 -201q0 -76 -15 -78l45 -128z" />
    <glyph glyph-name="Uacute" unicode="&#xda;" horiz-adv-x="1417" 
d="M78 371l-4 57v940q0 84 197 117q14 1 41 5q5 0 9 1h7q115 0 178 -29q99 -45 99 -98v-987q0 -25 16 -51q30 -36 74 -37q27 -1 65 18q53 26 53 80v983q0 51 127 99q9 3 88 20q51 5 88 4q41 -1 86 -14q142 -41 142 -144v-913q0 -42 -4 -74q-14 -111 -65 -192
q-90 -143 -376 -187q-68 -11 -141 -12q-78 -2 -147 4q-364 29 -464 189q-60 96 -69 221zM1080 1950l-112 -117l-263 -254l1 74l45 128q-15 1 -15 78l164 201q40 11 69 11q26 0 43 -9q68 -34 68 -112z" />
    <glyph glyph-name="Ucircumflex" unicode="&#xdb;" horiz-adv-x="1409" 
d="M74 324l2 67v670q0 63 135 107q52 17 117 18q70 1 104 -4q79 -12 115 -31q80 -43 80 -80v-643q0 -57 73 -57q72 0 72 53v637q0 70 174 115q60 9 121 10q91 1 164 -33q104 -49 104 -82v-987q0 -49 -108 -92q-63 -25 -146 -25q-11 0 -73 4q-76 5 -117 21q-111 44 -111 96
v62q-5 -7 -26 -27q-156 -150 -324 -150q-171 0 -276 133q-51 64 -70 148q-5 20 -10 70zM1074 1646l-112 -117l-263 -254l1 74l45 128q-15 1 -15 78l164 201q40 11 69 11q26 0 43 -9q68 -34 68 -112z" />
    <glyph glyph-name="Udieresis" unicode="&#xdc;" horiz-adv-x="1346" 
d="M217 -19q-246 15 -246 148l305 1141q26 98 72 141q40 38 143 70q78 25 173 26q105 2 172 -14q213 -49 241 -162l297 -1202q0 -68 -88 -114q-65 -34 -174 -34q-285 0 -305 161l-12 96q-69 10 -123 10q-70 0 -129 -10l-25 -84q-30 -101 -88 -139q-54 -35 -164 -36
q-13 0 -49 2zM594 559q44 -12 86 -12q43 0 84 12l-92 465zM1000 1755q7 -35 7 -62q0 -91 -15 -112q-32 -45 -72 -45q-177 153 -254 153t-254 -153q-30 0 -61 36q-18 21 -16 130q2 110 73 143q17 16 42 29q144 77 219 77q88 0 258 -101q25 -15 51 -54q20 -30 22 -41z
M834 -267q-24 -88 -49 -88h-233q-28 0 -54 67q-8 21 -13 67q0 73 20 125q22 57 45 57h224q25 0 52 -69q14 -36 14 -106q0 -31 -6 -53z" />
    <glyph glyph-name="Yacute" unicode="&#xdd;" horiz-adv-x="1272" 
d="M354 514l-369 828q-2 7 -4 18q0 57 122 107q34 14 108 24q87 0 102 -2q186 -25 211 -102l121 -377l127 393q15 46 160 82q37 9 98 8q60 -1 105 -14q155 -44 155 -105q0 -5 -4 -14l-362 -825v-436q0 -14 -51 -56q-75 -62 -191 -64q-34 -1 -123 8q-64 6 -110 26
q-95 41 -95 98v403zM1020 1927l-112 -117l-263 -254l1 74l45 128q-15 1 -15 78l164 201q40 11 69 11q26 0 43 -9q68 -34 68 -112z" />
    <glyph glyph-name="Thorn" unicode="&#xde;" 
 />
    <glyph glyph-name="germandbls" unicode="&#xdf;" horiz-adv-x="1467" 
d="M604 996h21q42 0 84 -106q18 -46 21 -107q2 -41 -6 -98.5t-25 -99.5q-36 -90 -72 -90h-23v-169h84q174 0 174 131v465q0 32 -2 39q-5 93 -41 136q-39 46 -131 46h-84v-147zM74 509q-77 77 -77 264q0 46 10 84q31 119 67 136v410q0 47 80 68q16 1 41 4h753q19 0 72 -2
q239 -9 305 -118q35 -58 58 -177q10 -52 10 -156v-522q0 -162 -28 -256t-101 -156q-88 -75 -289 -86q-36 -2 -62 -2h-729q-110 0 -110 88v421z" />
    <glyph glyph-name="agrave" unicode="&#xe0;" horiz-adv-x="1335" 
d="M1239 889q15 -54 15 -160l2 -583q0 -146 -162 -167q-56 -7 -117 -8q-91 -1 -140.5 32t-86.5 118q-4 15 -13 35q-67 -141 -256 -179q-30 -6 -65 -6q-22 0 -49 4q-313 47 -312 394q0 184 139 273q116 75 312 75h43q87 0 110 4q68 12 83 59q0 71 -45 89q-20 8 -52 10
q-39 -2 -62 -13q-18 -9 -104 -65q-44 -29 -110 -43q-38 -8 -62 -8q-81 0 -128 54t-46 136q1 94 133 174q109 66 383 78l52 2q37 0 49 -2q291 -12 406 -141q56 -63 83 -162zM746 547q-13 -4 -43 -14q-132 -53 -154 -111q-6 -16 -6 -29q0 -31 24.5 -53.5t55.5 -23.5
q122 -2 125 213q0 9 -2 18zM649 1345l-263 254l-112 117q0 78 68 112q17 9 43 9q29 0 69 -11l164 -201q0 -77 -15 -78l45 -128z" />
    <glyph glyph-name="aacute" unicode="&#xe1;" horiz-adv-x="1335" 
d="M1239 889q15 -54 15 -160l2 -583q0 -146 -162 -167q-56 -7 -117 -8q-91 -1 -140.5 32t-86.5 118q-4 15 -13 35q-67 -141 -256 -179q-30 -6 -65 -6q-22 0 -49 4q-313 47 -312 394q0 184 139 273q116 75 312 75h43q87 0 110 4q68 12 83 59q0 71 -45 89q-20 8 -52 10
q-39 -2 -62 -13q-18 -9 -104 -65q-44 -29 -110 -43q-38 -8 -62 -8q-81 0 -128 54t-46 136q1 94 133 174q109 66 383 78l52 2q37 0 49 -2q291 -12 406 -141q56 -63 83 -162zM746 547q-13 -4 -43 -14q-132 -53 -154 -111q-6 -16 -6 -29q0 -31 24.5 -53.5t55.5 -23.5
q122 -2 125 213q0 9 -2 18zM1023 1716l-112 -117l-263 -254l1 74l45 128q-15 1 -15 78l164 201q40 11 69 11q26 0 43 -9q68 -34 68 -112z" />
    <glyph glyph-name="acircumflex" unicode="&#xe2;" horiz-adv-x="1335" 
d="M1239 889q15 -54 15 -160l2 -583q0 -146 -162 -167q-56 -7 -117 -8q-91 -1 -140.5 32t-86.5 118q-4 15 -13 35q-67 -141 -256 -179q-30 -6 -65 -6q-22 0 -49 4q-313 47 -312 394q0 184 139 273q116 75 312 75h43q87 0 110 4q68 12 83 59q0 71 -45 89q-20 8 -52 10
q-39 -2 -62 -13q-18 -9 -104 -65q-44 -29 -110 -43q-38 -8 -62 -8q-81 0 -128 54t-46 136q1 94 133 174q109 66 383 78l52 2q37 0 49 -2q291 -12 406 -141q56 -63 83 -162zM746 547q-13 -4 -43 -14q-132 -53 -154 -111q-6 -16 -6 -29q0 -31 24.5 -53.5t55.5 -23.5
q122 -2 125 213q0 9 -2 18zM966 1455q7 -30 7 -59q0 -85 -15 -106q-30 -43 -68 -43q-169 145 -241 145q-73 0 -242 -145q-29 0 -58 34q-17 20 -15 124q2 105 70 135q18 17 39 28q135 73 208 73q86 0 246 -96q16 -9 41.5 -41.5t27.5 -48.5z" />
    <glyph glyph-name="atilde" unicode="&#xe3;" horiz-adv-x="1335" 
d="M1239 889q15 -54 15 -160l2 -583q0 -146 -162 -167q-56 -7 -117 -8q-91 -1 -140.5 32t-86.5 118q-4 15 -13 35q-67 -141 -256 -179q-30 -6 -65 -6q-22 0 -49 4q-313 47 -312 394q0 184 139 273q116 75 312 75h43q87 0 110 4q68 12 83 59q0 71 -45 89q-20 8 -52 10
q-39 -2 -62 -13q-18 -9 -104 -65q-44 -29 -110 -43q-38 -8 -62 -8q-81 0 -128 54t-46 136q1 94 133 174q109 66 383 78l52 2q37 0 49 -2q291 -12 406 -141q56 -63 83 -162zM746 547q-13 -4 -43 -14q-132 -53 -154 -111q-6 -16 -6 -29q0 -31 24.5 -53.5t55.5 -23.5
q122 -2 125 213q0 9 -2 18zM545 1488q-15 -30 -50 -77q-37 -31 -62 -38l-101 -28q-25 -7 -50.5 12.5t-25.5 45.5q0 29 43 99q37 60 65 90q16 18 32 25l191 64l187 -144q15 30 50 77q36 30 62 38l91 28q3 1 9 1q27 0 52 -17.5t25 -43.5q0 -15 -29 -72q-33 -66 -79 -115
q-16 -18 -32 -25l-191 -64z" />
    <glyph glyph-name="adieresis" unicode="&#xe4;" horiz-adv-x="1378" 
d="M1329 686q4 -36 4 -53q0 -132 -96 -133l-662 -6v-58q0 -67 29 -104q37 -39 78 -39q68 0 178 109q35 35 187 34q56 0 106 -16q139 -44 139 -119q0 -51 -51 -133q-71 -114 -324 -172q-37 -9 -77 -15q-52 -8 -148 -10q-36 -1 -86 4q-172 16 -281 61q-190 78 -244 274
q-24 87 -24 243q0 38 6 92q40 362 239 463q109 55 298 76q54 6 111 6q93 0 178 -16q170 -32 256 -90q123 -83 160 -228q4 -18 12 -55v-8zM590 742l205 2v39q0 52 -66 75q-15 8 -37 9q-20 1 -39 -9q-63 -20 -63 -69v-47zM1083 1716l-112 -117l-263 -254l1 74l45 128
q-15 1 -15 78l164 201q40 11 69 11q26 0 43 -9q68 -34 68 -112z" />
    <glyph glyph-name="aring" unicode="&#xe5;" horiz-adv-x="1256" 
d="M74 107v1300q0 41 73 64q13 4 31 4h883q110 0 141 -131q6 -18 6 -91q-17 -156 -151 -157l-453 -2v-164l451 2q59 0 104 -104q15 -36 14 -84q-5 -178 -172 -179l-397 -2v-174l475 -2q133 -1 127 -227q-2 -68 -36 -112q-38 -48 -103 -48h-915q-47 0 -72 66q-6 16 -6 41z
M968 1755q7 -35 7 -62q0 -91 -15 -112q-32 -45 -72 -45q-177 153 -254 153t-254 -153q-30 0 -61 36q-18 21 -16 130q2 110 73 143q17 16 42 29q144 77 219 77q88 0 258 -101q25 -15 51 -54q20 -30 22 -41zM808 -327q-24 -88 -49 -88h-233q-28 0 -54 67q-7 18 -13 67
q0 73 20 125q22 57 45 57h224q25 0 52 -69q14 -36 14 -106q0 -31 -6 -53z" />
    <glyph glyph-name="ae" unicode="&#xe6;" horiz-adv-x="1335" 
d="M1239 889q15 -54 15 -160l2 -583q0 -146 -162 -167q-56 -7 -117 -8q-91 -1 -140.5 32t-86.5 118q-4 15 -13 35q-67 -141 -256 -179q-30 -6 -65 -6q-22 0 -49 4q-313 47 -312 394q0 184 139 273q116 75 312 75h43q87 0 110 4q68 12 83 59q0 71 -45 89q-20 8 -52 10
q-39 -2 -62 -13q-18 -9 -104 -65q-44 -29 -110 -43q-38 -8 -62 -8q-81 0 -128 54t-46 136q1 94 133 174q109 66 383 78l52 2q37 0 49 -2q291 -12 406 -141q56 -63 83 -162zM746 547q-13 -4 -43 -14q-132 -53 -154 -111q-6 -16 -6 -29q0 -31 24.5 -53.5t55.5 -23.5
q122 -2 125 213q0 9 -2 18zM341 1470q-7 37 -7 56q0 82 13 100q29 41 65 41q168 -138 238 -138q69 0 237 138q27 0 55 -32q18 -20 16 -118q-2 -95 -67 -124q-12 -13 -38 -30q-141 -69 -206 -69q-82 0 -241 87q-20 11 -45 51q-18 29 -20 38zM1023 2057l-112 -117l-263 -254
l1 74l45 128q-15 1 -15 78l164 201q40 11 69 11q26 0 43 -9q68 -34 68 -112z" />
    <glyph glyph-name="ccedilla" unicode="&#xe7;" horiz-adv-x="678" 
d="M74 78v1300q0 50 112 95q65 26 172 24q54 -1 103 -16q143 -44 143 -103v-1292q0 -53 -147 -94q-25 -7 -84 -13q-70 0 -90 2q-49 5 -88 17q-121 38 -121 80zM340 1606l-263 254l-112 117q0 78 68 112q17 9 43 9q29 0 69 -11l164 -201q0 -76 -15 -78l45 -128z" />
    <glyph glyph-name="egrave" unicode="&#xe8;" horiz-adv-x="1378" 
d="M1329 686q4 -36 4 -53q0 -132 -96 -133l-662 -6v-58q0 -67 29 -104q37 -39 78 -39q68 0 178 109q35 35 187 34q56 0 106 -16q139 -44 139 -119q0 -51 -51 -133q-71 -114 -324 -172q-37 -9 -77 -15q-52 -8 -148 -10q-36 -1 -86 4q-172 16 -281 61q-190 78 -244 274
q-24 87 -24 243q0 38 6 92q40 362 239 463q109 55 298 76q54 6 111 6q93 0 178 -16q170 -32 256 -90q123 -83 160 -228q4 -18 12 -55v-8zM590 742l205 2v39q0 52 -66 75q-15 8 -37 9q-20 1 -39 -9q-63 -20 -63 -69v-47zM709 1345l-263 254l-112 117q0 78 68 112q17 9 43 9
q29 0 69 -11l164 -201q0 -77 -15 -78l45 -128z" />
    <glyph glyph-name="eacute" unicode="&#xe9;" horiz-adv-x="1378" 
d="M1329 686q4 -36 4 -53q0 -132 -96 -133l-662 -6v-58q0 -67 29 -104q37 -39 78 -39q68 0 178 109q35 35 187 34q56 0 106 -16q139 -44 139 -119q0 -51 -51 -133q-71 -114 -324 -172q-37 -9 -77 -15q-52 -8 -148 -10q-36 -1 -86 4q-172 16 -281 61q-190 78 -244 274
q-24 87 -24 243q0 38 6 92q40 362 239 463q109 55 298 76q54 6 111 6q93 0 178 -16q170 -32 256 -90q123 -83 160 -228q4 -18 12 -55v-8zM590 742l205 2v39q0 52 -66 75q-15 8 -37 9q-20 1 -39 -9q-63 -20 -63 -69v-47zM1083 1716l-112 -117l-263 -254l1 74l45 128
q-15 1 -15 78l164 201q40 11 69 11q26 0 43 -9q68 -34 68 -112z" />
    <glyph glyph-name="ecircumflex" unicode="&#xea;" horiz-adv-x="1378" 
d="M1329 686q4 -36 4 -53q0 -132 -96 -133l-662 -6v-58q0 -67 29 -104q37 -39 78 -39q68 0 178 109q35 35 187 34q56 0 106 -16q139 -44 139 -119q0 -51 -51 -133q-71 -114 -324 -172q-37 -9 -77 -15q-52 -8 -148 -10q-36 -1 -86 4q-172 16 -281 61q-190 78 -244 274
q-24 87 -24 243q0 38 6 92q40 362 239 463q109 55 298 76q54 6 111 6q93 0 178 -16q170 -32 256 -90q123 -83 160 -228q4 -18 12 -55v-8zM590 742l205 2v39q0 52 -66 75q-15 8 -37 9q-20 1 -39 -9q-63 -20 -63 -69v-47zM1022 1455q7 -30 7 -59q0 -85 -15 -106
q-30 -43 -68 -43q-169 145 -241 145q-73 0 -242 -145q-29 0 -58 34q-17 20 -15 124q2 105 70 135q18 17 39 28q135 73 208 73q86 0 246 -96q16 -9 41.5 -41.5t27.5 -48.5z" />
    <glyph glyph-name="edieresis" unicode="&#xeb;" horiz-adv-x="678" 
d="M74 78v1300q0 50 112 95q65 26 172 24q54 -1 103 -16q143 -44 143 -103v-1292q0 -53 -147 -94q-25 -7 -84 -13q-70 0 -90 2q-49 5 -88 17q-121 38 -121 80zM514 -366q-24 -88 -49 -88h-233q-28 0 -54 67q-8 21 -13 67q0 73 20 125q22 57 45 57h224q25 0 52 -69
q14 -36 14 -106q0 -31 -6 -53z" />
    <glyph glyph-name="igrave" unicode="&#xec;" horiz-adv-x="717" 
d="M351 1343l-263 254l-112 117q0 78 68 112q17 9 43 9q29 0 69 -11l164 -201q0 -76 -15 -78l45 -128zM641 107q0 -52 -82 -92q-71 -35 -168 -42q-53 -4 -76 -4q-94 -1 -149 31q-92 53 -92 109l2 965q0 47 172 96q9 3 67 15q16 2 54 2q77 1 135 -21q139 -52 139 -86z" />
    <glyph glyph-name="iacute" unicode="&#xed;" horiz-adv-x="717" 
d="M641 107q0 -52 -82 -92q-71 -35 -168 -42q-53 -4 -76 -4q-94 -1 -149 31q-92 53 -92 109l2 965q0 47 172 96q9 3 67 15q16 2 54 2q77 1 135 -21q139 -52 139 -86zM726 1716l-112 -117l-263 -254l1 74l45 128q-15 1 -15 78l164 201q40 11 69 11q26 0 43 -9q68 -34 68 -112
z" />
    <glyph glyph-name="icircumflex" unicode="&#xee;" horiz-adv-x="1428" 
d="M78 455q-4 49 -4 88v393q0 35 4 86q22 278 194 394q146 100 441 102q120 1 231 -25q270 -63 349 -229q45 -95 57 -242q4 -49 4 -86v-393q0 -43 -4 -88q-25 -283 -184 -385q-170 -109 -453 -109q-282 0 -454 110q-158 101 -181 384zM604 389q0 -100 107 -100
q110 0 110 100v701q0 102 -110 100q-107 -2 -107 -100v-701zM607 1758q-15 -30 -50 -77q-37 -31 -62 -38l-101 -28q-25 -7 -50.5 12.5t-25.5 45.5q0 29 43 99q37 60 65 90q16 18 32 25l191 64l187 -144q15 30 50 77q36 30 62 38l91 28q3 1 9 1q27 0 52 -17.5t25 -43.5
q0 -15 -29 -72q-33 -66 -79 -115q-16 -18 -32 -25l-191 -64z" />
    <glyph glyph-name="idieresis" unicode="&#xef;" horiz-adv-x="1428" 
d="M78 455q-4 49 -4 88v393q0 35 4 86q22 278 194 394q146 100 441 102q120 1 231 -25q270 -63 349 -229q45 -95 57 -242q4 -49 4 -86v-393q0 -43 -4 -88q-25 -283 -184 -385q-170 -109 -453 -109q-282 0 -454 110q-158 101 -181 384zM604 389q0 -100 107 -100
q110 0 110 100v701q0 102 -110 100q-107 -2 -107 -100v-701zM1090 1990l-112 -117l-263 -254l1 74l45 128q-15 1 -15 78l164 201q40 11 69 11q26 0 43 -9q68 -34 68 -112z" />
    <glyph glyph-name="eth" unicode="&#xf0;" 
 />
    <glyph glyph-name="ntilde" unicode="&#xf1;" horiz-adv-x="1428" 
d="M78 455q-4 49 -4 88v393q0 35 4 86q22 278 194 394q146 100 441 102q120 1 231 -25q270 -63 349 -229q45 -95 57 -242q4 -49 4 -86v-393q0 -43 -4 -88q-25 -283 -184 -385q-170 -109 -453 -109q-282 0 -454 110q-158 101 -181 384zM604 389q0 -100 107 -100
q110 0 110 100v701q0 102 -110 100q-107 -2 -107 -100v-701zM887 -365q-24 -88 -49 -88h-233q-28 0 -54 67q-7 18 -13 67q0 73 20 125q22 57 45 57h224q25 0 52 -69q14 -36 14 -106q0 -31 -6 -53z" />
    <glyph glyph-name="ograve" unicode="&#xf2;" horiz-adv-x="1364" 
d="M66 367q-6 34 -6 67v291q0 30 6 66q24 141 78 217q58 81 184 139q83 38 213 43l102 4h39q9 0 28.5 1t29.5 1q210 -2 305 -47q118 -56 177 -143q53 -79 77 -215q6 -34 6 -66v-291q0 -60 -22 -141q-54 -200 -244 -283q-82 -36 -310 -45l-47 -2q-35 0 -47 2q-106 4 -157 9
q-92 9 -152 36q-122 54 -182 140q-53 78 -78 217zM600 402q0 -72 64 -84h37q63 10 63 84v356q0 69 -63 84h-37q-64 -12 -64 -84v-356zM709 1345l-263 254l-112 117q0 78 68 112q17 9 43 9q29 0 69 -11l164 -201q0 -77 -15 -78l45 -128z" />
    <glyph glyph-name="oacute" unicode="&#xf3;" horiz-adv-x="1364" 
d="M66 367q-6 34 -6 67v291q0 30 6 66q24 141 78 217q58 81 184 139q83 38 213 43l102 4h39q9 0 28.5 1t29.5 1q210 -2 305 -47q118 -56 177 -143q53 -79 77 -215q6 -34 6 -66v-291q0 -60 -22 -141q-54 -200 -244 -283q-82 -36 -310 -45l-47 -2q-35 0 -47 2q-106 4 -157 9
q-92 9 -152 36q-122 54 -182 140q-53 78 -78 217zM600 402q0 -72 64 -84h37q63 10 63 84v356q0 69 -63 84h-37q-64 -12 -64 -84v-356zM1083 1716l-112 -117l-263 -254l1 74l45 128q-15 1 -15 78l164 201q40 11 69 11q26 0 43 -9q68 -34 68 -112z" />
    <glyph glyph-name="ocircumflex" unicode="&#xf4;" horiz-adv-x="1364" 
d="M66 367q-6 34 -6 67v291q0 30 6 66q24 141 78 217q58 81 184 139q83 38 213 43l102 4h39q9 0 28.5 1t29.5 1q210 -2 305 -47q118 -56 177 -143q53 -79 77 -215q6 -34 6 -66v-291q0 -60 -22 -141q-54 -200 -244 -283q-82 -36 -310 -45l-47 -2q-35 0 -47 2q-106 4 -157 9
q-92 9 -152 36q-122 54 -182 140q-53 78 -78 217zM600 402q0 -72 64 -84h37q63 10 63 84v356q0 69 -63 84h-37q-64 -12 -64 -84v-356zM1022 1455q7 -30 7 -59q0 -85 -15 -106q-30 -43 -68 -43q-169 145 -241 145q-73 0 -242 -145q-29 0 -58 34q-17 20 -15 124q2 105 70 135
q18 17 39 28q135 73 208 73q86 0 246 -96q16 -9 41.5 -41.5t27.5 -48.5z" />
    <glyph glyph-name="otilde" unicode="&#xf5;" horiz-adv-x="1364" 
d="M66 367q-6 34 -6 67v291q0 30 6 66q24 141 78 217q58 81 184 139q83 38 213 43l102 4h39q9 0 28.5 1t29.5 1q210 -2 305 -47q118 -56 177 -143q53 -79 77 -215q6 -34 6 -66v-291q0 -60 -22 -141q-54 -200 -244 -283q-82 -36 -310 -45l-47 -2q-35 0 -47 2q-106 4 -157 9
q-92 9 -152 36q-122 54 -182 140q-53 78 -78 217zM600 402q0 -72 64 -84h37q63 10 63 84v356q0 69 -63 84h-37q-64 -12 -64 -84v-356zM605 1488q-15 -30 -50 -77q-37 -31 -62 -38l-101 -28q-25 -7 -50.5 12.5t-25.5 45.5q0 29 43 99q37 60 65 90q16 18 32 25l191 64
l187 -144q15 30 50 77q36 30 62 38l91 28q3 1 9 1q27 0 52 -17.5t25 -43.5q0 -15 -29 -72q-33 -66 -79 -115q-16 -18 -32 -25l-191 -64z" />
    <glyph glyph-name="odieresis" unicode="&#xf6;" horiz-adv-x="1428" 
d="M604 389q0 -100 107 -100q110 0 110 100v701q0 102 -110 100q-107 -2 -107 -100v-701zM1159 1412q-3 14 1 37l28 155q5 29 93 32q47 2 91 -18q63 -29 61 -51l-34 -185l-129 -77q14 -23 23 -41q45 -97 57 -242q4 -49 4 -86v-393q0 -43 -4 -88q-25 -283 -184 -385
q-170 -109 -453 -109q-282 0 -454 110q-158 101 -181 384q-4 49 -4 88v393q0 35 4 86q22 278 194 394q146 100 441 102q121 1 231 -25q137 -32 215 -81zM607 1758q-15 -30 -50 -77q-37 -31 -62 -38l-101 -28q-25 -7 -50.5 12.5t-25.5 45.5q0 29 43 99q37 60 65 90
q16 18 32 25l191 64l187 -144q15 30 50 77q36 30 62 38l91 28q3 1 9 1q27 0 52 -17.5t25 -43.5q0 -15 -29 -72q-33 -66 -79 -115q-16 -18 -32 -25l-191 -64z" />
    <glyph glyph-name="divide" unicode="&#xf7;" horiz-adv-x="1378" 
d="M1329 686q4 -36 4 -53q0 -132 -96 -133l-662 -6v-58q0 -67 29 -104q37 -39 78 -39q68 0 178 109q35 35 187 34q56 0 106 -16q139 -44 139 -119q0 -51 -51 -133q-71 -114 -324 -172q-37 -9 -77 -15q-52 -8 -148 -10q-36 -1 -86 4q-172 16 -281 61q-190 78 -244 274
q-24 87 -24 243q0 38 6 92q40 362 239 463q109 55 298 76q54 6 111 6q93 0 178 -16q170 -32 256 -90q123 -83 160 -228q4 -18 12 -55v-8zM590 742l205 2v39q0 52 -66 75q-15 8 -37 9q-20 1 -39 -9q-63 -20 -63 -69v-47zM1022 1455q7 -30 7 -59q0 -85 -15 -106
q-30 -43 -68 -43q-169 145 -241 145q-73 0 -242 -145q-29 0 -58 34q-17 20 -15 124q2 105 70 135q18 17 39 28q135 73 208 73q86 0 246 -96q16 -9 41.5 -41.5t27.5 -48.5zM862 -367q-24 -88 -49 -88h-233q-28 0 -54 67q-8 21 -13 67q0 73 20 125q22 57 45 57h224
q25 0 52 -69q14 -36 14 -106q0 -31 -6 -53z" />
    <glyph glyph-name="oslash" unicode="&#xf8;" horiz-adv-x="1346" 
d="M217 -19q-246 15 -246 148l305 1141q26 98 72 141q40 38 143 70q78 25 173 26q105 2 172 -14q213 -49 241 -162l297 -1202q0 -68 -88 -114q-65 -34 -174 -34q-285 0 -305 161l-12 96q-69 10 -123 10q-70 0 -129 -10l-25 -84q-30 -101 -88 -139q-54 -35 -164 -36
q-13 0 -49 2zM594 559q44 -12 86 -12q43 0 84 12l-92 465zM331 1772q-8 41 -8 62q0 91 15 112q32 45 72 45q187 -153 264 -153t264 153q30 0 61 -36q19 -22 17 -131q-2 -104 -74 -138q-13 -14 -42 -33q-157 -77 -229 -77q-90 0 -268 97q-23 12 -50 56q-20 32 -22 43z
M909 2150q-15 -30 -50 -77q-37 -31 -62 -38l-101 -28q-25 -7 -50.5 12.5t-25.5 45.5q0 29 43 99q37 60 65 90q16 18 32 25l191 64l187 -144q15 30 50 77q36 30 62 38l91 28q3 1 9 1q27 0 52 -17.5t25 -43.5q0 -15 -29 -72q-33 -66 -79 -115q-16 -18 -32 -25l-191 -64z" />
    <glyph glyph-name="ugrave" unicode="&#xf9;" horiz-adv-x="1409" 
d="M74 324l2 67v670q0 63 135 107q52 17 117 18q70 1 104 -4q79 -12 115 -31q80 -43 80 -80v-643q0 -57 73 -57q72 0 72 53v637q0 70 174 115q60 9 121 10q91 1 164 -33q104 -49 104 -82v-987q0 -49 -108 -92q-63 -25 -146 -25q-11 0 -73 4q-76 5 -117 21q-111 44 -111 96
v62q-5 -7 -26 -27q-156 -150 -324 -150q-171 0 -276 133q-51 64 -70 148q-5 20 -10 70zM700 1275l-263 254l-112 117q0 78 68 112q17 9 43 9q29 0 69 -11l164 -201q0 -76 -15 -78l45 -128z" />
    <glyph glyph-name="uacute" unicode="&#xfa;" horiz-adv-x="1409" 
d="M74 324l2 67v670q0 63 135 107q52 17 117 18q70 1 104 -4q79 -12 115 -31q80 -43 80 -80v-643q0 -57 73 -57q72 0 72 53v637q0 70 174 115q60 9 121 10q91 1 164 -33q104 -49 104 -82v-987q0 -49 -108 -92q-63 -25 -146 -25q-11 0 -73 4q-76 5 -117 21q-111 44 -111 96
v62q-5 -7 -26 -27q-156 -150 -324 -150q-171 0 -276 133q-51 64 -70 148q-5 20 -10 70zM1074 1646l-112 -117l-263 -254l1 74l45 128q-15 1 -15 78l164 201q40 11 69 11q26 0 43 -9q68 -34 68 -112z" />
    <glyph glyph-name="ucircumflex" unicode="&#xfb;" horiz-adv-x="1417" 
d="M78 371l-4 57v940q0 84 197 117q14 1 41 5q5 0 9 1h7q115 0 178 -29q99 -45 99 -98v-987q0 -25 16 -51q30 -36 74 -37q27 -1 65 18q53 26 53 80v983q0 51 127 99q9 3 88 20q51 5 88 4q41 -1 86 -14q142 -41 142 -144v-913q0 -42 -4 -74q-14 -111 -65 -192
q-90 -143 -376 -187q-68 -11 -141 -12q-78 -2 -147 4q-364 29 -464 189q-60 96 -69 221zM858 1719q-13 -6 -38 -23q-8 -12 -8 -28v-62q-67 -40 -105 -40q-39 0 -108 40v84q0 31 35 70q5 6 20 19l22 16l6 4q37 25 38 49q1 28 -24 37q-6 3 -16 3q-22 0 -28 -17q-5 -22 -23 -59
q-13 -14 -41 -18q-15 -2 -54 -2q-98 0 -98 67q0 12 1 23q1 2 5 21q30 82 143 104q48 9 100 10q21 0 42 -1q78 -5 106 -14q107 -35 107 -136q0 -18 -1 -23q-9 -91 -81 -124z" />
    <glyph glyph-name="udieresis" unicode="&#xfc;" horiz-adv-x="1417" 
d="M78 371l-4 57v940q0 84 197 117q14 1 41 5q5 0 9 1h7q115 0 178 -29q99 -45 99 -98v-987q0 -25 16 -51q30 -36 74 -37q27 -1 65 18q53 26 53 80v983q0 51 127 99q9 3 88 20q51 5 88 4q41 -1 86 -14q142 -41 142 -144v-913q0 -42 -4 -74q-14 -111 -65 -192
q-90 -143 -376 -187q-68 -11 -141 -12q-78 -2 -147 4q-364 29 -464 189q-60 96 -69 221zM597 1738q-15 -30 -50 -77q-37 -31 -62 -38l-101 -28q-25 -7 -50.5 12.5t-25.5 45.5q0 29 43 99q37 60 65 90q16 18 32 25l191 64l187 -144q15 30 50 77q36 30 62 38l91 28q3 1 9 1
q27 0 52 -17.5t25 -43.5q0 -15 -29 -72q-33 -66 -79 -115q-16 -18 -32 -25l-191 -64z" />
    <glyph glyph-name="yacute" unicode="&#xfd;" horiz-adv-x="1311" 
d="M383 -8l-398 1042q-2 9 -4 23q0 86 199 129q37 8 88 8q60 0 107 -10q88 -19 118 -33q62 -29 74 -88l97 -477l114 491q8 33 46 56q59 36 129 41q23 7 102 8q108 1 174 -29q96 -44 96 -86l-450 -1161q-12 -32 -31 -62q-123 -199 -322 -211l-67 -4h-51l-78 -4h-41
q-101 0 -143 27q-52 35 -54 129q8 76 55 98q30 14 117 14q40 0 51 -2q80 0 80 66q-3 22 -8 35zM1038 1646l-112 -117l-263 -254l1 74l45 128q-15 1 -15 78l164 201q40 11 69 11q26 0 43 -9q68 -34 68 -112z" />
    <glyph glyph-name="thorn" unicode="&#xfe;" 
 />
    <glyph glyph-name="ydieresis" unicode="&#xff;" horiz-adv-x="717" 
d="M641 107q0 -52 -82 -92q-71 -35 -168 -42q-53 -4 -76 -4q-94 -1 -149 31q-92 53 -92 109l2 965q0 47 172 96q9 3 67 15q16 2 54 2q77 1 135 -21q139 -52 139 -86zM503 1496q-13 -6 -38 -23q-8 -12 -8 -28v-62q-67 -40 -105 -40q-39 0 -108 40v84q0 32 35 70q3 3 20 19
l22 16l6 4q37 25 38 49q1 28 -24 37q-6 3 -16 3q-22 0 -28 -17q-5 -22 -23 -59q-13 -14 -41 -18q-15 -2 -54 -2q-98 0 -98 67q0 12 1 23q1 2 5 21q30 82 143 104q48 9 100 10q21 0 42 -1q78 -5 106 -14q107 -35 107 -136q0 -18 -1 -23q-9 -91 -81 -124z" />
    <glyph glyph-name="glyph271" unicode="&#x102;" horiz-adv-x="1346" 
d="M217 -19q-246 15 -246 148l305 1141q26 98 72 141q40 38 143 70q78 25 173 26q105 2 172 -14q213 -49 241 -162l297 -1202q0 -68 -88 -114q-65 -34 -174 -34q-285 0 -305 161l-12 96q-69 10 -123 10q-70 0 -129 -10l-25 -84q-30 -101 -88 -139q-54 -35 -164 -36
q-13 0 -49 2zM594 559q44 -12 86 -12q43 0 84 12l-92 465zM331 1772q-8 41 -8 62q0 91 15 112q32 45 72 45q187 -153 264 -153t264 153q30 0 61 -36q19 -22 17 -131q-2 -104 -74 -138q-13 -14 -42 -33q-157 -77 -229 -77q-90 0 -268 97q-23 12 -50 56q-20 32 -22 43z" />
    <glyph glyph-name="glyph272" unicode="&#x103;" horiz-adv-x="1335" 
d="M1239 889q15 -54 15 -160l2 -583q0 -146 -162 -167q-56 -7 -117 -8q-91 -1 -140.5 32t-86.5 118q-4 15 -13 35q-67 -141 -256 -179q-30 -6 -65 -6q-22 0 -49 4q-313 47 -312 394q0 184 139 273q116 75 312 75h43q87 0 110 4q68 12 83 59q0 71 -45 89q-20 8 -52 10
q-39 -2 -62 -13q-18 -9 -104 -65q-44 -29 -110 -43q-38 -8 -62 -8q-81 0 -128 54t-46 136q1 94 133 174q109 66 383 78l52 2q37 0 49 -2q291 -12 406 -141q56 -63 83 -162zM746 547q-13 -4 -43 -14q-132 -53 -154 -111q-6 -16 -6 -29q0 -31 24.5 -53.5t55.5 -23.5
q122 -2 125 213q0 9 -2 18zM341 1470q-7 37 -7 56q0 82 13 100q29 41 65 41q168 -138 238 -138q69 0 237 138q27 0 55 -32q18 -20 16 -118q-2 -95 -67 -124q-12 -13 -38 -30q-141 -69 -206 -69q-82 0 -241 87q-20 11 -45 51q-18 29 -20 38z" />
    <glyph glyph-name="Cacute" unicode="&#x106;" horiz-adv-x="711" 
d="M74 457v508q0 42 6 84q35 243 185 353q131 96 389 114q39 3 71 4q7 0 54 -2q202 -10 292 -45q208 -82 275 -250q39 -98 39 -170q0 -154 -189 -178q-40 -5 -104 -4q-182 3 -230 96q-25 48 -32 135q-4 52 -64 82q-6 3 -26 8q-94 0 -118 -51q-11 -24 -15 -74q-2 -25 -2 -33
v-616q0 -17 6 -39q28 -100 131 -100q68 11 91 85q11 36 15 134q3 80 119 121q57 20 133 20q277 0 279 -188q1 -74 -29 -156q-79 -217 -323 -289q-155 -46 -310 -39l-47 2l-61 2q-306 10 -445 200q-65 90 -86 224q-4 26 -4 62zM243 622q-6 34 -6 67v291q0 30 6 66
q24 141 78 217q58 81 184 139q83 38 213 43l102 4h39q9 0 28.5 1t29.5 1q210 -2 305 -47q118 -56 177 -143q53 -79 77 -215q6 -34 6 -66v-291q0 -60 -22 -141q-54 -200 -244 -283q-82 -36 -310 -45l-47 -2q-35 0 -47 2q-106 4 -157 9q-92 9 -152 36q-122 54 -182 140
q-53 78 -78 217zM777 657q0 -72 64 -84h37q63 10 63 84v356q0 69 -63 84h-37q-64 -12 -64 -84v-356zM1199 1710q7 -30 7 -59q0 -85 -15 -106q-30 -43 -68 -43q-169 145 -241 145q-73 0 -242 -145q-29 0 -58 34q-17 20 -15 124q2 105 70 135q18 17 39 28q135 73 208 73
q86 0 246 -96q16 -9 41.5 -41.5t27.5 -48.5z" />
    <glyph glyph-name="cacute" unicode="&#x107;" horiz-adv-x="441" 
d="M65 462q-5 61 -5 155q0 23 4 55q38 306 213 416q94 59 233 83q50 9 123 13q19 1 78 2q86 1 174 -17q210 -43 305 -149q30 -34 70 -113l6 -12l8 -18q14 -32 14 -68q0 -160 -268 -162q-151 -1 -201 46q-28 26 -53 79q-34 71 -84 72q-27 1 -53 -25q-29 -29 -29 -211v-104
q0 -138 54 -180q19 -14 40 -15q67 -2 103 140q18 73 170 86q9 1 37 2q84 1 147 -15q127 -33 127 -114q0 -39 -27 -115q-10 -29 -20 -45q-126 -268 -551 -269q-404 0 -535 207q-68 107 -80 276zM44 367q-6 34 -6 67v291q0 30 6 66q24 141 78 217q58 81 184 139q83 38 213 43
l102 4h39q9 0 28.5 1t29.5 1q210 -2 305 -47q118 -56 177 -143q53 -79 77 -215q6 -34 6 -66v-291q0 -60 -22 -141q-54 -200 -244 -283q-82 -36 -310 -45l-47 -2q-35 0 -47 2q-106 4 -157 9q-92 9 -152 36q-122 54 -182 140q-53 78 -78 217zM578 402q0 -72 64 -84h37
q63 10 63 84v356q0 69 -63 84h-37q-64 -12 -64 -84v-356zM1000 1455q7 -30 7 -59q0 -85 -15 -106q-30 -43 -68 -43q-169 145 -241 145q-73 0 -242 -145q-29 0 -58 34q-17 20 -15 124q2 105 70 135q18 17 39 28q135 73 208 73q86 0 246 -96q16 -9 41.5 -41.5t27.5 -48.5z" />
    <glyph glyph-name="Ccaron" unicode="&#x10c;" horiz-adv-x="711" 
d="M74 457v508q0 42 6 84q35 243 185 353q131 96 389 114q39 3 71 4q7 0 54 -2q202 -10 292 -45q208 -82 275 -250q39 -98 39 -170q0 -154 -189 -178q-40 -5 -104 -4q-182 3 -230 96q-25 48 -32 135q-4 52 -64 82q-6 3 -26 8q-94 0 -118 -51q-11 -24 -15 -74q-2 -25 -2 -33
v-616q0 -17 6 -39q28 -100 131 -100q68 11 91 85q11 36 15 134q3 80 119 121q57 20 133 20q277 0 279 -188q1 -74 -29 -156q-79 -217 -323 -289q-155 -46 -310 -39l-47 2l-61 2q-306 10 -445 200q-65 90 -86 224q-4 26 -4 62zM255 710q-4 49 -4 88v393q0 35 4 86
q22 278 194 394q146 100 441 102q120 1 231 -25q270 -63 349 -229q45 -95 57 -242q4 -49 4 -86v-393q0 -43 -4 -88q-25 -283 -184 -385q-170 -109 -453 -109q-282 0 -454 110q-158 101 -181 384zM781 644q0 -100 107 -100q110 0 110 100v701q0 102 -110 100
q-107 -2 -107 -100v-701zM1225 2050q7 -35 7 -62q0 -91 -15 -112q-32 -45 -72 -45q-177 153 -254 153t-254 -153q-30 0 -61 36q-18 21 -16 130q2 110 73 143q17 16 42 29q144 77 219 77q88 0 258 -101q25 -15 51 -54q20 -30 22 -41zM1647 2356l-112 -117l-263 -254l1 74
l45 128q-15 1 -15 78l164 201q40 10 69 10q26 0 43 -8q68 -34 68 -112z" />
    <glyph glyph-name="ccaron" unicode="&#x10d;" horiz-adv-x="441" 
d="M65 462q-5 61 -5 155q0 23 4 55q38 306 213 416q94 59 233 83q50 9 123 13q19 1 78 2q86 1 174 -17q210 -43 305 -149q30 -34 70 -113l6 -12l8 -18q14 -32 14 -68q0 -160 -268 -162q-151 -1 -201 46q-28 26 -53 79q-34 71 -84 72q-27 1 -53 -25q-29 -29 -29 -211v-104
q0 -138 54 -180q19 -14 40 -15q67 -2 103 140q18 73 170 86q9 1 37 2q84 1 147 -15q127 -33 127 -114q0 -39 -27 -115q-10 -29 -20 -45q-126 -268 -551 -269q-404 0 -535 207q-68 107 -80 276zM56 455q-4 49 -4 88v393q0 35 4 86q22 278 194 394q146 100 441 102
q120 1 231 -25q270 -63 349 -229q45 -95 57 -242q4 -49 4 -86v-393q0 -43 -4 -88q-25 -283 -184 -385q-170 -109 -453 -109q-282 0 -454 110q-158 101 -181 384zM582 389q0 -100 107 -100q110 0 110 100v701q0 102 -110 100q-107 -2 -107 -100v-701zM1026 1795q7 -35 7 -62
q0 -91 -15 -112q-32 -45 -72 -45q-177 153 -254 153t-254 -153q-30 0 -61 36q-18 21 -16 130q2 110 73 143q17 16 42 29q144 77 219 77q88 0 258 -101q25 -15 51 -54q20 -30 22 -41zM1448 2101l-112 -117l-263 -254l1 74l45 128q-15 1 -15 78l164 201q40 10 69 10
q26 0 43 -8q68 -34 68 -112z" />
    <glyph glyph-name="Dslash" unicode="&#x110;" horiz-adv-x="1467" 
d="M604 996h21q42 0 84 -106q18 -46 21 -107q2 -41 -6 -98.5t-25 -99.5q-36 -90 -72 -90h-23v-169h84q174 0 174 131v465q0 32 -2 39q-5 93 -41 136q-39 46 -131 46h-84v-147zM74 509q-77 77 -77 264q0 46 10 84q31 119 67 136v410q0 47 80 68q16 1 41 4h753q19 0 72 -2
q239 -9 305 -118q35 -58 58 -177q10 -52 10 -156v-522q0 -162 -28 -256t-101 -156q-88 -75 -289 -86q-36 -2 -62 -2h-729q-110 0 -110 88v421z" />
    <glyph glyph-name="dcroat" unicode="&#x111;" horiz-adv-x="1405" 
d="M600 481q12 -126 84 -126q61 0 81 59q11 32 11 123v106q0 135 -92 133q-85 -2 -90 -194q-1 -30 6 -101zM770 1189h-89q-104 13 -104 152q9 74 77 107q2 1 23 10h93v59q0 55 113 95q80 29 176 24q66 -3 102 -14q170 -50 170 -109v-56h2q102 0 102 -125q0 -22 -5 -48
q-19 -97 -81 -97h-18v-1093q0 -57 -123 -111q-50 -22 -145 -22q-274 0 -285 172q-75 -133 -258 -164q-47 -8 -90 -8q-298 0 -360 377q-10 61 -10 221q0 431 167 557q84 63 212 64q21 0 61 -4q115 -12 221 -80q6 -4 49 -35v128z" />
    <glyph glyph-name="Gbreve" unicode="&#x11e;" horiz-adv-x="767" 
d="M123 204q-49 97 -49 230v482q0 34 4 80q14 161 75 267q113 197 466 243q55 7 122 8q81 1 203 -17q163 -24 251 -67q117 -57 185 -176q41 -72 41 -129q0 -124 -145 -146q-73 -11 -152 -14l-53 -2q-150 0 -189 70q-20 35 -24 100q-4 59 -131 59q-18 0 -41 -6
q-82 -21 -82 -64v-718q0 -116 119 -129q166 0 166 100v96l-33 -2q-126 6 -125 160q0 54 23 103q28 61 76 61h505q39 0 67 -21q32 -23 32 -61l-2 -608q0 -124 -178 -124q-81 0 -120.5 32.5t-62.5 111.5q-6 21 -8 55l-10 -12l-29 -33q-102 -116 -232 -153q-72 -20 -163 -23
q-55 -2 -106 4q-296 36 -400 243zM1531 1319v-980q0 -49 -108 -92q-63 -25 -146 -25q-11 0 -73 4q-76 5 -117 21q-111 44 -111 96v62q-5 -7 -26 -27q-156 -150 -324 -150q-171 0 -276 133q-51 64 -70 148q-5 20 -10 70l2 67v670q0 63 135 107q52 17 117 18q70 1 104 -4
q79 -12 115 -31q80 -43 80 -80v-643q0 -57 73 -57q72 0 72 53v637q0 70 174 115q60 9 121 10q92 1 164 -33q82 -39 99 -65l42 78q-51 13 -42 65l22 125q4 25 76 26q39 1 75 -15q53 -23 50 -41l-27 -150l-190 -114zM1068 -112q-24 -88 -49 -88h-233q-28 0 -54 67
q-8 21 -13 67q0 73 20 125q22 57 45 57h224q25 0 52 -69q14 -36 14 -106q0 -31 -6 -53z" />
    <glyph glyph-name="gbreve" unicode="&#x11f;" horiz-adv-x="492" 
d="M584 1174q121 -31 199 -129q32 147 292 143q86 -1 156 -29q96 -38 96 -110v-807q0 -174 -26 -271q-62 -232 -250 -299q-101 -36 -266 -47q-30 -2 -52 -2h-124q-208 0 -308 45q-161 73 -161 170q0 107 209 133q32 4 57 4q87 0 184 -47q11 -5 55 -29q14 -6 60 -8
q67 19 67 119v84q0 8 -6 84q-2 -2 -28 -26q-130 -120 -312 -115q-126 3 -212 63q-156 108 -156 494v43q0 293 141 445q102 110 256 110q57 0 129 -18zM615 563q0 -44 8 -69q11 -33 43 -49q15 -5 29 -7q70 0 77 105q2 34 2 43l-2 76q-3 118 -96 118q-43 -9 -55 -50
q-6 -21 -6 -81v-86zM1331 1064v-980q0 -49 -108 -92q-63 -25 -146 -25q-11 0 -73 4q-76 5 -117 21q-111 44 -111 96v62q-5 -7 -26 -27q-156 -150 -324 -150q-171 0 -276 133q-51 64 -70 148q-5 20 -10 70l2 67v670q0 63 135 107q52 17 117 18q70 1 104 -4q79 -12 115 -31
q80 -43 80 -80v-643q0 -57 73 -57q72 0 72 53v637q0 70 174 115q60 9 121 10q92 1 164 -33q82 -39 99 -65l42 78q-51 13 -42 65l22 125q4 25 76 26q39 1 75 -15q53 -23 50 -41l-27 -150l-190 -114zM868 -367q-24 -88 -49 -88h-233q-28 0 -54 67q-8 21 -13 67q0 73 20 125
q22 57 45 57h224q25 0 52 -69q14 -36 14 -106q0 -31 -6 -53z" />
    <glyph glyph-name="glyph273" unicode="&#x128;" horiz-adv-x="678" 
d="M74 78v1300q0 50 112 95q65 26 172 24q54 -1 103 -16q143 -44 143 -103v-1292q0 -53 -147 -94q-25 -7 -84 -13q-70 0 -90 2q-49 5 -88 17q-121 38 -121 80zM237 1748q-15 -30 -50 -77q-37 -31 -62 -38l-101 -28q-25 -7 -50.5 12.5t-25.5 45.5q0 29 43 99q37 60 65 90
q16 18 32 25l191 64l187 -144q15 30 50 77q36 30 62 38l91 28q3 1 9 1q27 0 52 -17.5t25 -43.5q0 -15 -29 -72q-33 -66 -79 -115q-16 -18 -32 -25l-191 -64z" />
    <glyph glyph-name="glyph274" unicode="&#x129;" horiz-adv-x="717" 
d="M641 107q0 -52 -82 -92q-71 -35 -168 -42q-53 -4 -76 -4q-94 -1 -149 31q-92 53 -92 109l2 965q0 47 172 96q9 3 67 15q16 2 54 2q77 1 135 -21q139 -52 139 -86zM248 1488q-15 -30 -50 -77q-37 -31 -62 -38l-101 -28q-25 -7 -50.5 12.5t-25.5 45.5q0 29 43 99
q37 60 65 90q16 18 32 25l191 64l187 -144q15 30 50 77q36 30 62 38l91 28q3 1 9 1q27 0 52 -17.5t25 -43.5q0 -15 -29 -72q-33 -66 -79 -115q-16 -18 -32 -25l-191 -64z" />
    <glyph glyph-name="Idotaccent" unicode="&#x130;" horiz-adv-x="429" 
d="M74 78v1300q0 50 112 95q65 26 172 24q54 -1 103 -16q143 -44 143 -103v-1292q0 -53 -147 -94q-25 -7 -84 -13q-70 0 -90 2q-49 5 -88 17q-121 38 -121 80zM410 247l-398 1042q-2 9 -4 23q0 86 199 129q37 8 88 8q60 0 107 -10q88 -19 118 -33q62 -29 74 -88l97 -477
l114 491q8 33 46 56q59 36 129 41q22 7 102 8q108 1 174 -29q96 -44 96 -86l-450 -1161q-12 -32 -31 -62q-123 -199 -322 -211l-67 -4h-51l-78 -4h-41q-101 0 -143 27q-52 35 -54 129q8 76 55 98q30 14 117 14q40 0 51 -2q80 0 80 66q-3 22 -8 35zM690 1530l-263 254
l-112 117q0 78 68 112q17 8 43 8q29 0 69 -10l164 -201q0 -76 -15 -78l45 -128z" />
    <glyph glyph-name="dotlessi" unicode="&#x131;" horiz-adv-x="1409" 
d="M1335 1064v-980q0 -49 -108 -92q-63 -25 -146 -25q-11 0 -73 4q-76 5 -117 21q-111 44 -111 96v62q-5 -7 -26 -27q-156 -150 -324 -150q-171 0 -276 133q-51 64 -70 148q-5 20 -10 70l2 67v670q0 63 135 107q52 17 117 18q70 1 104 -4q79 -12 115 -31q80 -43 80 -80v-643
q0 -57 73 -57q72 0 72 53v637q0 70 174 115q60 9 121 10q92 1 164 -33q82 -39 99 -65l42 78q-51 13 -42 65l22 125q4 25 76 26q39 1 75 -15q53 -23 50 -41l-27 -150l-190 -114zM700 1275l-263 254l-112 117q0 78 68 112q17 9 43 9q29 0 69 -11l164 -201q0 -76 -15 -78
l45 -128z" />
    <glyph glyph-name="Lslash" unicode="&#x141;" 
 />
    <glyph glyph-name="lslash" unicode="&#x142;" 
 />
    <glyph glyph-name="OE" unicode="&#x152;" horiz-adv-x="1378" 
d="M1329 686q4 -36 4 -53q0 -132 -96 -133l-662 -6v-58q0 -67 29 -104q37 -39 78 -39q68 0 178 109q35 35 187 34q56 0 106 -16q139 -44 139 -119q0 -51 -51 -133q-71 -114 -324 -172q-37 -9 -77 -15q-52 -8 -148 -10q-36 -1 -86 4q-172 16 -281 61q-190 78 -244 274
q-24 87 -24 243q0 38 6 92q40 362 239 463q109 55 298 76q54 6 111 6q93 0 178 -16q170 -32 256 -90q123 -83 160 -228q4 -18 12 -55v-8zM590 742l205 2v39q0 52 -66 75q-15 8 -37 9q-20 1 -39 -9q-63 -20 -63 -69v-47zM860 1496q-13 -6 -38 -23q-8 -12 -8 -28v-62
q-67 -40 -105 -40q-39 0 -108 40v84q0 31 35 70q5 6 20 19l22 16l6 4q37 25 38 49q1 28 -24 37q-6 3 -16 3q-22 0 -28 -17q-5 -22 -23 -59q-13 -14 -41 -18q-15 -2 -54 -2q-98 0 -98 67q0 12 1 23q1 2 5 21q30 82 143 104q48 9 100 10q21 0 42 -1q78 -5 106 -14
q107 -35 107 -136q0 -18 -1 -23q-9 -91 -81 -124z" />
    <glyph glyph-name="oe" unicode="&#x153;" horiz-adv-x="1378" 
d="M1329 686q4 -36 4 -53q0 -132 -96 -133l-662 -6v-58q0 -67 29 -104q37 -39 78 -39q68 0 178 109q35 35 187 34q56 0 106 -16q139 -44 139 -119q0 -51 -51 -133q-71 -114 -324 -172q-37 -9 -77 -15q-52 -8 -148 -10q-36 -1 -86 4q-172 16 -281 61q-190 78 -244 274
q-24 87 -24 243q0 38 6 92q40 362 239 463q109 55 298 76q54 6 111 6q93 0 178 -16q170 -32 256 -90q123 -83 160 -228q4 -18 12 -55v-8zM590 742l205 2v39q0 52 -66 75q-15 8 -37 9q-20 1 -39 -9q-63 -20 -63 -69v-47zM605 1488q-15 -30 -50 -77q-37 -31 -62 -38l-101 -28
q-25 -7 -50.5 12.5t-25.5 45.5q0 29 43 99q37 60 65 90q16 18 32 25l191 64l187 -144q15 30 50 77q36 30 62 38l91 28q3 1 9 1q27 0 52 -17.5t25 -43.5q0 -15 -29 -72q-33 -66 -79 -115q-16 -18 -32 -25l-191 -64z" />
    <glyph glyph-name="Scedilla" unicode="&#x15e;" horiz-adv-x="656" 
d="M123 156q-62 94 -63 162q-2 110 119 147q69 20 211 19q72 -1 156 -42q39 -19 73 -112q14 -37 63 -55q16 -6 31 -6q45 0 77.5 33.5t33.5 78.5q2 118 -197 168l-8 2l-137 35q-18 5 -47 14q-174 57 -256 126q-113 96 -113 251q0 68 20 154q55 237 246 319q100 43 262 64
q46 6 84 6q223 0 301 -19q231 -56 312 -215q28 -55 28 -100q0 -125 -161 -141q-81 -8 -162 -9q-103 -1 -154 48q-19 18 -67 84q-33 44 -88 45q-72 1 -89 -76v-29q0 -64 89 -98l81 -31q27 -11 144 -41q9 -2 67 -20q288 -88 359 -226q39 -76 39 -188q0 -32 -4 -82
q-11 -139 -93 -248q-162 -217 -596 -217q-56 0 -92 2q-144 8 -221 33q-179 58 -248 164zM422 -8l-398 1042q-2 9 -4 23q0 86 199 129q37 8 88 8q60 0 107 -10q88 -19 118 -33q62 -29 74 -88l97 -477l114 491q8 33 46 56q59 36 129 41q22 7 102 8q108 1 174 -29
q96 -44 96 -86l-450 -1161q-12 -32 -31 -62q-123 -199 -322 -211l-67 -4h-51l-78 -4h-41q-101 0 -143 27q-52 35 -54 129q8 76 55 98q30 14 117 14q40 0 51 -2q80 0 80 66q-3 22 -8 35zM599 1448q-15 -30 -50 -77q-37 -31 -62 -38l-101 -28q-25 -7 -50.5 12.5t-25.5 45.5
q0 29 43 99q37 60 65 90q16 18 32 25l191 64l187 -144q15 30 50 77q36 30 62 38l91 28q3 1 9 1q27 0 52 -17.5t25 -43.5q0 -15 -29 -72q-33 -66 -79 -115q-16 -18 -32 -25l-191 -64z" />
    <glyph glyph-name="scedilla" unicode="&#x15f;" horiz-adv-x="383" 
d="M80 170q-26 48 -26 82q0 89 155 121q48 10 103 10q125 0 202 -55q40 -28 72 -76q16 -24 57 -24q20 0 39 6q51 16 52 71q0 6 -5 25q-17 65 -188 84l-18 2l-103 20q-102 20 -164 52q-106 55 -152 120q-50 72 -50 185q0 266 309 360q69 21 266 35q28 2 45 2q8 0 45 -2
q156 -9 240 -33q171 -50 237 -157q20 -33 21 -68q2 -101 -133 -121q-6 -1 -31 -3l-31 -3q-21 -2 -51 -2q-122 0 -207 74l-61 53q-16 14 -35 14q-20 0 -47 -12q-43 -19 -43 -66q0 -74 141 -100l86 -16l33 -4l78 -11l39 -4q13 -1 47 -10q259 -66 260 -301q0 -71 -31 -166
q-46 -141 -217 -213q-60 -25 -209 -47q-83 -12 -157 -13q-14 0 -60 2q-142 7 -277 46q-182 53 -231 143zM325 -8l-398 1042q-2 9 -4 23q0 86 199 129q37 8 88 8q60 0 107 -10q88 -19 118 -33q62 -29 74 -88l97 -477l114 491q8 33 46 56q59 36 129 41q22 7 102 8
q108 1 174 -29q96 -44 96 -86l-450 -1161q-12 -32 -31 -62q-123 -199 -322 -211l-67 -4h-51l-78 -4h-41q-101 0 -143 27q-52 35 -54 129q8 76 55 98q30 14 117 14q40 0 51 -2q80 0 80 66q-3 22 -8 35zM502 1448q-15 -30 -50 -77q-37 -31 -62 -38l-101 -28q-25 -7 -50.5 12.5
t-25.5 45.5q0 29 43 99q37 60 65 90q16 18 32 25l191 64l187 -144q15 30 50 77q36 30 62 38l91 28q3 1 9 1q27 0 52 -17.5t25 -43.5q0 -15 -29 -72q-33 -66 -79 -115q-16 -18 -32 -25l-191 -64z" />
    <glyph glyph-name="Scaron" unicode="&#x160;" 
 />
    <glyph glyph-name="scaron" unicode="&#x161;" 
 />
    <glyph glyph-name="ch903" unicode="&#x168;" horiz-adv-x="1417" 
d="M78 371l-4 57v940q0 84 197 117q14 1 41 5q5 0 9 1h7q115 0 178 -29q99 -45 99 -98v-987q0 -25 16 -51q30 -36 74 -37q27 -1 65 18q53 26 53 80v983q0 51 127 99q9 3 88 20q51 5 88 4q41 -1 86 -14q142 -41 142 -144v-913q0 -42 -4 -74q-14 -111 -65 -192
q-90 -143 -376 -187q-68 -11 -141 -12q-78 -2 -147 4q-364 29 -464 189q-60 96 -69 221zM597 1738q-15 -30 -50 -77q-37 -31 -62 -38l-101 -28q-25 -7 -50.5 12.5t-25.5 45.5q0 29 43 99q37 60 65 90q16 18 32 25l191 64l187 -144q15 30 50 77q36 30 62 38l91 28q3 1 9 1
q27 0 52 -17.5t25 -43.5q0 -15 -29 -72q-33 -66 -79 -115q-16 -18 -32 -25l-191 -64z" />
    <glyph glyph-name="ch904" unicode="&#x169;" horiz-adv-x="1409" 
d="M74 324l2 67v670q0 63 135 107q52 17 117 18q70 1 104 -4q79 -12 115 -31q80 -43 80 -80v-643q0 -57 73 -57q72 0 72 53v637q0 70 174 115q60 9 121 10q91 1 164 -33q104 -49 104 -82v-987q0 -49 -108 -92q-63 -25 -146 -25q-11 0 -73 4q-76 5 -117 21q-111 44 -111 96
v62q-5 -7 -26 -27q-156 -150 -324 -150q-171 0 -276 133q-51 64 -70 148q-5 20 -10 70zM596 1448q-15 -30 -50 -77q-37 -31 -62 -38l-101 -28q-25 -7 -50.5 12.5t-25.5 45.5q0 29 43 99q37 60 65 90q16 18 32 25l191 64l187 -144q15 30 50 77q36 30 62 38l91 28q3 1 9 1
q27 0 52 -17.5t25 -43.5q0 -15 -29 -72q-33 -66 -79 -115q-16 -18 -32 -25l-191 -64z" />
    <glyph glyph-name="Ydieresis" unicode="&#x178;" horiz-adv-x="1256" 
d="M74 107v1300q0 41 73 64q13 4 31 4h883q110 0 141 -131q6 -18 6 -91q-17 -156 -151 -157l-453 -2v-164l451 2q59 0 104 -104q15 -36 14 -84q-5 -178 -172 -179l-397 -2v-174l475 -2q133 -1 127 -227q-2 -68 -36 -112q-38 -48 -103 -48h-915q-47 0 -72 66q-6 16 -6 41z
M971 1755q7 -35 7 -62q0 -91 -15 -112q-32 -45 -72 -45q-177 153 -254 153t-254 -153q-30 0 -61 36q-18 21 -16 130q2 110 73 143q17 16 42 29q144 77 219 77q88 0 258 -101q25 -15 51 -54q20 -30 22 -41zM534 2150q-15 -30 -50 -77q-37 -31 -62 -38l-101 -28
q-25 -7 -50.5 12.5t-25.5 45.5q0 29 43 99q37 60 65 90q16 18 32 25l191 64l187 -144q15 30 50 77q36 30 62 38l91 28q3 1 9 1q27 0 52 -17.5t25 -43.5q0 -15 -29 -72q-33 -66 -79 -115q-16 -18 -32 -25l-191 -64z" />
    <glyph glyph-name="Zcaron" unicode="&#x17d;" 
 />
    <glyph glyph-name="zcaron" unicode="&#x17e;" 
 />
    <glyph glyph-name="florin" unicode="&#x192;" horiz-adv-x="1346" 
d="M217 -19q-246 15 -246 148l305 1141q26 98 72 141q40 38 143 70q78 25 173 26q105 2 172 -14q213 -49 241 -162l297 -1202q0 -68 -88 -114q-65 -34 -174 -34q-285 0 -305 161l-12 96q-69 10 -123 10q-70 0 -129 -10l-25 -84q-30 -101 -88 -139q-54 -35 -164 -36
q-13 0 -49 2zM594 559q44 -12 86 -12q43 0 84 12l-92 465zM1000 1755q7 -35 7 -62q0 -91 -15 -112q-32 -45 -72 -45q-177 153 -254 153t-254 -153q-30 0 -61 36q-18 21 -16 130q2 110 73 143q17 16 42 29q144 77 219 77q88 0 258 -101q25 -15 51 -54q20 -30 22 -41z
M1422 2061l-112 -117l-263 -254l1 74l45 128q-15 1 -15 78l164 201q40 11 69 11q26 0 43 -9q68 -34 68 -112z" />
    <glyph glyph-name="glyph277" unicode="&#x1a0;" horiz-adv-x="1428" 
d="M604 389q0 -100 107 -100q110 0 110 100v701q0 102 -110 100q-107 -2 -107 -100v-701zM1159 1412q-3 14 1 37l28 155q5 29 93 32q47 2 91 -18q63 -29 61 -51l-34 -185l-129 -77q14 -23 23 -41q45 -97 57 -242q4 -49 4 -86v-393q0 -43 -4 -88q-25 -283 -184 -385
q-170 -109 -453 -109q-282 0 -454 110q-158 101 -181 384q-4 49 -4 88v393q0 35 4 86q22 278 194 394q146 100 441 102q121 1 231 -25q137 -32 215 -81z" />
    <glyph glyph-name="glyph278" unicode="&#x1a1;" horiz-adv-x="1364" 
d="M600 402q0 -72 64 -84h37q63 10 63 84v356q0 69 -63 84h-37q-64 -12 -64 -84v-356zM1152 1083l45 83q-51 13 -42 65l22 125q4 25 76 26q39 1 75 -15q53 -23 50 -41l-27 -150l-181 -109q97 -91 129 -276q6 -35 6 -66v-291q0 -60 -22 -141q-54 -200 -244 -283
q-82 -36 -310 -45l-47 -2q-35 0 -47 2q-106 4 -157 9q-92 9 -152 36q-122 54 -182 140q-53 78 -78 217q-6 34 -6 67v291q0 30 6 66q24 141 78 217q58 81 184 139q83 38 213 43l102 4h39q9 0 28.5 1t29.5 1q210 -2 305 -47q67 -32 107 -66z" />
    <glyph glyph-name="glyph279" unicode="&#x1af;" horiz-adv-x="1417" 
d="M1344 1296v-874q0 -42 -4 -74q-14 -111 -65 -192q-90 -143 -376 -187q-68 -11 -141 -12q-78 -2 -147 4q-364 29 -464 189q-54 86 -69 221q-4 35 -4 57v940q0 84 197 117q14 1 41 5q5 0 9 1h7q115 0 178 -29q99 -45 99 -98v-987q0 -25 16 -51q30 -36 74 -37q27 -1 65 18
q53 26 53 80v983q0 51 127 99q9 3 88 20q51 5 88 4q70 -2 136 -31l26 142q5 29 93 32q47 2 91 -18q63 -29 61 -51l-34 -185z" />
    <glyph glyph-name="glyph280" unicode="&#x1b0;" horiz-adv-x="1409" 
d="M1335 1064v-980q0 -49 -108 -92q-63 -25 -146 -25q-11 0 -73 4q-76 5 -117 21q-111 44 -111 96v62q-5 -7 -26 -27q-156 -150 -324 -150q-171 0 -276 133q-51 64 -70 148q-5 20 -10 70l2 67v670q0 63 135 107q52 17 117 18q70 1 104 -4q79 -12 115 -31q80 -43 80 -80v-643
q0 -57 73 -57q72 0 72 53v637q0 70 174 115q60 9 121 10q92 1 164 -33q82 -39 99 -65l42 78q-51 13 -42 65l22 125q4 25 76 26q39 1 75 -15q53 -23 50 -41l-27 -150l-190 -114z" />
    <glyph glyph-name="circumflex" unicode="&#x2c6;" horiz-adv-x="1409" 
d="M1335 1064v-980q0 -49 -108 -92q-63 -25 -146 -25q-11 0 -73 4q-76 5 -117 21q-111 44 -111 96v62q-5 -7 -26 -27q-156 -150 -324 -150q-171 0 -276 133q-51 64 -70 148q-5 20 -10 70l2 67v670q0 63 135 107q52 17 117 18q70 1 104 -4q79 -12 115 -31q80 -43 80 -80v-643
q0 -57 73 -57q72 0 72 53v637q0 70 174 115q60 9 121 10q92 1 164 -33q82 -39 99 -65l42 78q-51 13 -42 65l22 125q4 25 76 26q39 1 75 -15q53 -23 50 -41l-27 -150l-190 -114zM851 1426q-13 -6 -38 -23q-8 -12 -8 -28v-62q-67 -40 -105 -40q-39 0 -108 40v84q0 32 35 70
q3 3 20 19l22 16l6 4q37 25 38 49q1 28 -24 37q-6 3 -16 3q-22 0 -28 -17q-5 -22 -23 -59q-13 -14 -41 -18q-15 -2 -54 -2q-98 0 -98 67q0 12 1 23q1 1 5 21q30 82 143 104q48 9 100 10q21 0 42 -1q78 -5 106 -14q107 -35 107 -136q0 -18 -1 -23q-9 -91 -81 -124z" />
    <glyph glyph-name="caron" unicode="&#x2c7;" horiz-adv-x="1428" 
d="M78 455q-4 49 -4 88v393q0 35 4 86q22 278 194 394q146 100 441 102q120 1 231 -25q270 -63 349 -229q45 -95 57 -242q4 -49 4 -86v-393q0 -43 -4 -88q-25 -283 -184 -385q-170 -109 -453 -109q-282 0 -454 110q-158 101 -181 384zM604 389q0 -100 107 -100
q110 0 110 100v701q0 102 -110 100q-107 -2 -107 -100v-701zM1048 1795q7 -35 7 -62q0 -91 -15 -112q-32 -45 -72 -45q-177 153 -254 153t-254 -153q-30 0 -61 36q-18 21 -16 130q2 110 73 143q17 16 42 29q144 77 219 77q88 0 258 -101q25 -15 51 -54q20 -30 22 -41z
M1470 2101l-112 -117l-263 -254l1 74l45 128q-15 1 -15 78l164 201q40 11 69 11q26 0 43 -9q68 -34 68 -112z" />
    <glyph glyph-name="breve" unicode="&#x2d8;" horiz-adv-x="1409" 
d="M1335 1064v-980q0 -49 -108 -92q-63 -25 -146 -25q-11 0 -73 4q-76 5 -117 21q-111 44 -111 96v62q-5 -7 -26 -27q-156 -150 -324 -150q-171 0 -276 133q-51 64 -70 148q-5 20 -10 70l2 67v670q0 63 135 107q52 17 117 18q70 1 104 -4q79 -12 115 -31q80 -43 80 -80v-643
q0 -57 73 -57q72 0 72 53v637q0 70 174 115q60 9 121 10q92 1 164 -33q82 -39 99 -65l42 78q-51 13 -42 65l22 125q4 25 76 26q39 1 75 -15q53 -23 50 -41l-27 -150l-190 -114zM872 -367q-24 -88 -49 -88h-233q-28 0 -54 67q-8 21 -13 67q0 73 20 125q22 57 45 57h224
q25 0 52 -69q14 -36 14 -106q0 -31 -6 -53z" />
    <glyph glyph-name="dotaccent" unicode="&#x2d9;" horiz-adv-x="1311" 
d="M383 -8l-398 1042q-2 9 -4 23q0 86 199 129q37 8 88 8q60 0 107 -10q88 -19 118 -33q62 -29 74 -88l97 -477l114 491q8 33 46 56q59 36 129 41q23 7 102 8q108 1 174 -29q96 -44 96 -86l-450 -1161q-12 -32 -31 -62q-123 -199 -322 -211l-67 -4h-51l-78 -4h-41
q-101 0 -143 27q-52 35 -54 129q8 76 55 98q30 14 117 14q40 0 51 -2q80 0 80 66q-3 22 -8 35zM663 1275l-263 254l-112 117q0 78 68 112q17 9 43 9q29 0 69 -11l164 -201q0 -76 -15 -78l45 -128z" />
    <glyph glyph-name="ring" unicode="&#x2da;" horiz-adv-x="1311" 
d="M383 -8l-398 1042q-2 9 -4 23q0 86 199 129q37 8 88 8q60 0 107 -10q88 -19 118 -33q62 -29 74 -88l97 -477l114 491q8 33 46 56q59 36 129 41q23 7 102 8q108 1 174 -29q96 -44 96 -86l-450 -1161q-12 -32 -31 -62q-123 -199 -322 -211l-67 -4h-51l-78 -4h-41
q-101 0 -143 27q-52 35 -54 129q8 76 55 98q30 14 117 14q40 0 51 -2q80 0 80 66q-3 22 -8 35zM815 1426q-13 -6 -38 -23q-8 -12 -8 -28v-62q-67 -40 -105 -40q-39 0 -108 40v84q0 32 35 70q3 3 20 19l22 16l6 4q37 25 38 49q1 28 -24 37q-6 3 -16 3q-22 0 -28 -17
q-5 -22 -23 -59q-13 -14 -41 -18q-15 -2 -54 -2q-98 0 -98 67q0 12 1 23q1 2 5 21q30 82 143 104q48 9 100 10q21 0 42 -1q78 -5 106 -14q107 -35 107 -136q0 -18 -1 -23q-9 -91 -81 -124z" />
    <glyph glyph-name="ogonek" unicode="&#x2db;" horiz-adv-x="1311" 
d="M383 -8l-398 1042q-2 9 -4 23q0 86 199 129q37 8 88 8q60 0 107 -10q88 -19 118 -33q62 -29 74 -88l97 -477l114 491q8 33 46 56q59 36 129 41q23 7 102 8q108 1 174 -29q96 -44 96 -86l-450 -1161q-12 -32 -31 -62q-123 -199 -322 -211l-67 -4h-51l-78 -4h-41
q-101 0 -143 27q-52 35 -54 129q8 76 55 98q30 14 117 14q40 0 51 -2q80 0 80 66q-3 22 -8 35zM1252 -367q-24 -88 -49 -88h-233q-28 0 -54 67q-7 18 -13 67q0 73 20 125q22 57 45 57h224q25 0 52 -69q14 -36 14 -106q0 -31 -6 -53z" />
    <glyph glyph-name="tilde" unicode="&#x2dc;" horiz-adv-x="1409" 
d="M1335 1064v-980q0 -49 -108 -92q-63 -25 -146 -25q-11 0 -73 4q-76 5 -117 21q-111 44 -111 96v62q-5 -7 -26 -27q-156 -150 -324 -150q-171 0 -276 133q-51 64 -70 148q-5 20 -10 70l2 67v670q0 63 135 107q52 17 117 18q70 1 104 -4q79 -12 115 -31q80 -43 80 -80v-643
q0 -57 73 -57q72 0 72 53v637q0 70 174 115q60 9 121 10q92 1 164 -33q82 -39 99 -65l42 78q-51 13 -42 65l22 125q4 25 76 26q39 1 75 -15q53 -23 50 -41l-27 -150l-190 -114zM596 1448q-15 -30 -50 -77q-37 -31 -62 -38l-101 -28q-25 -7 -50.5 12.5t-25.5 45.5q0 29 43 99
q37 60 65 90q16 18 32 25l191 64l187 -144q15 30 50 77q36 30 62 38l91 28q3 1 9 1q27 0 52 -17.5t25 -43.5q0 -15 -29 -72q-33 -66 -79 -115q-16 -18 -32 -25l-191 -64z" />
    <glyph glyph-name="hungarumlaut" unicode="&#x2dd;" horiz-adv-x="1311" 
d="M383 -8l-398 1042q-2 9 -4 23q0 86 199 129q37 8 88 8q60 0 107 -10q88 -19 118 -33q62 -29 74 -88l97 -477l114 491q8 33 46 56q59 36 129 41q23 7 102 8q108 1 174 -29q96 -44 96 -86l-450 -1161q-12 -32 -31 -62q-123 -199 -322 -211l-67 -4h-51l-78 -4h-41
q-101 0 -143 27q-52 35 -54 129q8 76 55 98q30 14 117 14q40 0 51 -2q80 0 80 66q-3 22 -8 35zM1038 1646l-112 -117l-263 -254l1 74l45 128q-15 1 -15 78l164 201q40 11 69 11q26 0 43 -9q68 -34 68 -112z" />
    <glyph glyph-name="Delta" unicode="&#x394;" horiz-adv-x="1335" 
d="M1239 889q15 -54 15 -160l2 -583q0 -146 -162 -167q-56 -7 -117 -8q-91 -1 -140.5 32t-86.5 118q-4 15 -13 35q-67 -141 -256 -179q-30 -6 -65 -6q-22 0 -49 4q-313 47 -312 394q0 184 139 273q116 75 312 75h43q87 0 110 4q68 12 83 59q0 71 -45 89q-20 8 -52 10
q-39 -2 -62 -13q-18 -9 -104 -65q-44 -29 -110 -43q-38 -8 -62 -8q-81 0 -128 54t-46 136q1 94 133 174q109 66 383 78l52 2q37 0 49 -2q291 -12 406 -141q56 -63 83 -162zM746 547q-13 -4 -43 -14q-132 -53 -154 -111q-6 -16 -6 -29q0 -31 24.5 -53.5t55.5 -23.5
q122 -2 125 213q0 9 -2 18zM820 -367q-24 -88 -49 -88h-233q-28 0 -54 67q-7 18 -13 67q0 73 20 125q22 57 45 57h224q25 0 52 -69q14 -36 14 -106q0 -31 -6 -53zM341 1470q-7 37 -7 56q0 82 13 100q29 41 65 41q168 -138 238 -138q69 0 237 138q27 0 55 -32q18 -20 16 -118
q-2 -95 -67 -124q-12 -13 -38 -30q-141 -69 -206 -69q-82 0 -241 87q-20 11 -45 51q-18 29 -20 38z" />
    <glyph glyph-name="Delta" unicode="&#x2206;" horiz-adv-x="1335" 
d="M1239 889q15 -54 15 -160l2 -583q0 -146 -162 -167q-56 -7 -117 -8q-91 -1 -140.5 32t-86.5 118q-4 15 -13 35q-67 -141 -256 -179q-30 -6 -65 -6q-22 0 -49 4q-313 47 -312 394q0 184 139 273q116 75 312 75h43q87 0 110 4q68 12 83 59q0 71 -45 89q-20 8 -52 10
q-39 -2 -62 -13q-18 -9 -104 -65q-44 -29 -110 -43q-38 -8 -62 -8q-81 0 -128 54t-46 136q1 94 133 174q109 66 383 78l52 2q37 0 49 -2q291 -12 406 -141q56 -63 83 -162zM746 547q-13 -4 -43 -14q-132 -53 -154 -111q-6 -16 -6 -29q0 -31 24.5 -53.5t55.5 -23.5
q122 -2 125 213q0 9 -2 18zM820 -367q-24 -88 -49 -88h-233q-28 0 -54 67q-7 18 -13 67q0 73 20 125q22 57 45 57h224q25 0 52 -69q14 -36 14 -106q0 -31 -6 -53zM341 1470q-7 37 -7 56q0 82 13 100q29 41 65 41q168 -138 238 -138q69 0 237 138q27 0 55 -32q18 -20 16 -118
q-2 -95 -67 -124q-12 -13 -38 -30q-141 -69 -206 -69q-82 0 -241 87q-20 11 -45 51q-18 29 -20 38z" />
    <glyph glyph-name="Omega" unicode="&#x3a9;" horiz-adv-x="1335" 
d="M1239 889q15 -54 15 -160l2 -583q0 -146 -162 -167q-56 -7 -117 -8q-91 -1 -140.5 32t-86.5 118q-4 15 -13 35q-67 -141 -256 -179q-30 -6 -65 -6q-22 0 -49 4q-313 47 -312 394q0 184 139 273q116 75 312 75h43q87 0 110 4q68 12 83 59q0 71 -45 89q-20 8 -52 10
q-39 -2 -62 -13q-18 -9 -104 -65q-44 -29 -110 -43q-38 -8 -62 -8q-81 0 -128 54t-46 136q1 94 133 174q109 66 383 78l52 2q37 0 49 -2q291 -12 406 -141q56 -63 83 -162zM746 547q-13 -4 -43 -14q-132 -53 -154 -111q-6 -16 -6 -29q0 -31 24.5 -53.5t55.5 -23.5
q122 -2 125 213q0 9 -2 18zM343 1472q-7 37 -7 56q0 82 13 100q29 41 65 41q168 -138 238 -138q69 0 237 138q27 0 55 -32q18 -20 16 -118q-2 -95 -67 -124q-12 -13 -38 -30q-141 -69 -206 -69q-82 0 -241 87q-20 11 -45 51q-18 29 -20 38zM888 1846q-15 -30 -50 -77
q-37 -31 -62 -38l-101 -28q-25 -7 -50.5 12.5t-25.5 45.5q0 29 43 99q37 60 65 90q16 18 32 25l191 64l187 -144q15 30 50 77q36 30 62 38l91 28q3 1 9 1q27 0 52 -17.5t25 -43.5q0 -15 -29 -72q-33 -66 -79 -115q-16 -18 -32 -25l-191 -64z" />
    <glyph glyph-name="Omega" unicode="&#x2126;" horiz-adv-x="1335" 
d="M1239 889q15 -54 15 -160l2 -583q0 -146 -162 -167q-56 -7 -117 -8q-91 -1 -140.5 32t-86.5 118q-4 15 -13 35q-67 -141 -256 -179q-30 -6 -65 -6q-22 0 -49 4q-313 47 -312 394q0 184 139 273q116 75 312 75h43q87 0 110 4q68 12 83 59q0 71 -45 89q-20 8 -52 10
q-39 -2 -62 -13q-18 -9 -104 -65q-44 -29 -110 -43q-38 -8 -62 -8q-81 0 -128 54t-46 136q1 94 133 174q109 66 383 78l52 2q37 0 49 -2q291 -12 406 -141q56 -63 83 -162zM746 547q-13 -4 -43 -14q-132 -53 -154 -111q-6 -16 -6 -29q0 -31 24.5 -53.5t55.5 -23.5
q122 -2 125 213q0 9 -2 18zM343 1472q-7 37 -7 56q0 82 13 100q29 41 65 41q168 -138 238 -138q69 0 237 138q27 0 55 -32q18 -20 16 -118q-2 -95 -67 -124q-12 -13 -38 -30q-141 -69 -206 -69q-82 0 -241 87q-20 11 -45 51q-18 29 -20 38zM888 1846q-15 -30 -50 -77
q-37 -31 -62 -38l-101 -28q-25 -7 -50.5 12.5t-25.5 45.5q0 29 43 99q37 60 65 90q16 18 32 25l191 64l187 -144q15 30 50 77q36 30 62 38l91 28q3 1 9 1q27 0 52 -17.5t25 -43.5q0 -15 -29 -72q-33 -66 -79 -115q-16 -18 -32 -25l-191 -64z" />
    <glyph glyph-name="pi" unicode="&#x3c0;" horiz-adv-x="1335" 
d="M1239 889q15 -54 15 -160l2 -583q0 -146 -162 -167q-56 -7 -117 -8q-91 -1 -140.5 32t-86.5 118q-4 15 -13 35q-67 -141 -256 -179q-30 -6 -65 -6q-22 0 -49 4q-313 47 -312 394q0 184 139 273q116 75 312 75h43q87 0 110 4q68 12 83 59q0 71 -45 89q-20 8 -52 10
q-39 -2 -62 -13q-18 -9 -104 -65q-44 -29 -110 -43q-38 -8 -62 -8q-81 0 -128 54t-46 136q1 94 133 174q109 66 383 78l52 2q37 0 49 -2q291 -12 406 -141q56 -63 83 -162zM746 547q-13 -4 -43 -14q-132 -53 -154 -111q-6 -16 -6 -29q0 -31 24.5 -53.5t55.5 -23.5
q122 -2 125 213q0 9 -2 18zM820 -367q-24 -88 -49 -88h-233q-28 0 -54 67q-7 18 -13 67q0 73 20 125q22 57 45 57h224q25 0 52 -69q14 -36 14 -106q0 -31 -6 -53z" />
    <glyph glyph-name="glyph281" unicode="&#x1ea0;" horiz-adv-x="1346" 
d="M217 -19q-246 15 -246 148l305 1141q26 98 72 141q40 38 143 70q78 25 173 26q105 2 172 -14q213 -49 241 -162l297 -1202q0 -68 -88 -114q-65 -34 -174 -34q-285 0 -305 161l-12 96q-69 10 -123 10q-70 0 -129 -10l-25 -84q-30 -101 -88 -139q-54 -35 -164 -36
q-13 0 -49 2zM594 559q44 -12 86 -12q43 0 84 12l-92 465zM834 -267q-24 -88 -49 -88h-233q-28 0 -54 67q-8 21 -13 67q0 73 20 125q22 57 45 57h224q25 0 52 -69q14 -36 14 -106q0 -31 -6 -53z" />
    <glyph glyph-name="glyph282" unicode="&#x1ea1;" horiz-adv-x="1335" 
d="M1239 889q15 -54 15 -160l2 -583q0 -146 -162 -167q-56 -7 -117 -8q-91 -1 -140.5 32t-86.5 118q-4 15 -13 35q-67 -141 -256 -179q-30 -6 -65 -6q-22 0 -49 4q-313 47 -312 394q0 184 139 273q116 75 312 75h43q87 0 110 4q68 12 83 59q0 71 -45 89q-20 8 -52 10
q-39 -2 -62 -13q-18 -9 -104 -65q-44 -29 -110 -43q-38 -8 -62 -8q-81 0 -128 54t-46 136q1 94 133 174q109 66 383 78l52 2q37 0 49 -2q291 -12 406 -141q56 -63 83 -162zM746 547q-13 -4 -43 -14q-132 -53 -154 -111q-6 -16 -6 -29q0 -31 24.5 -53.5t55.5 -23.5
q122 -2 125 213q0 9 -2 18zM820 -367q-24 -88 -49 -88h-233q-28 0 -54 67q-7 18 -13 67q0 73 20 125q22 57 45 57h224q25 0 52 -69q14 -36 14 -106q0 -31 -6 -53z" />
    <glyph glyph-name="glyph283" unicode="&#x1ea2;" horiz-adv-x="1346" 
d="M217 -19q-246 15 -246 148l305 1141q26 98 72 141q40 38 143 70q78 25 173 26q105 2 172 -14q213 -49 241 -162l297 -1202q0 -68 -88 -114q-65 -34 -174 -34q-285 0 -305 161l-12 96q-69 10 -123 10q-70 0 -129 -10l-25 -84q-30 -101 -88 -139q-54 -35 -164 -36
q-13 0 -49 2zM594 559q44 -12 86 -12q43 0 84 12l-92 465zM823 1749q-13 -6 -38 -23q-8 -12 -8 -28v-62q-67 -40 -105 -40q-39 0 -108 40v84q0 31 35 70q5 6 20 19l22 16l6 4q37 25 38 49q1 28 -24 37q-6 3 -16 3q-22 0 -28 -17q-5 -22 -23 -59q-13 -14 -41 -18
q-15 -2 -54 -2q-98 0 -98 67q0 12 1 23q1 2 5 21q30 82 143 104q48 9 100 10q21 0 42 -1q78 -5 106 -14q107 -35 107 -136q0 -18 -1 -23q-9 -91 -81 -124z" />
    <glyph glyph-name="glyph284" unicode="&#x1ea3;" horiz-adv-x="1335" 
d="M1239 889q15 -54 15 -160l2 -583q0 -146 -162 -167q-56 -7 -117 -8q-91 -1 -140.5 32t-86.5 118q-4 15 -13 35q-67 -141 -256 -179q-30 -6 -65 -6q-22 0 -49 4q-313 47 -312 394q0 184 139 273q116 75 312 75h43q87 0 110 4q68 12 83 59q0 71 -45 89q-20 8 -52 10
q-39 -2 -62 -13q-18 -9 -104 -65q-44 -29 -110 -43q-38 -8 -62 -8q-81 0 -128 54t-46 136q1 94 133 174q109 66 383 78l52 2q37 0 49 -2q291 -12 406 -141q56 -63 83 -162zM746 547q-13 -4 -43 -14q-132 -53 -154 -111q-6 -16 -6 -29q0 -31 24.5 -53.5t55.5 -23.5
q122 -2 125 213q0 9 -2 18zM800 1496q-13 -6 -38 -23q-8 -12 -8 -28v-62q-67 -40 -105 -40q-39 0 -108 40v84q0 32 35 70q3 3 20 19l22 16l6 4q37 25 38 49q1 28 -24 37q-6 3 -16 3q-22 0 -28 -17q-5 -22 -23 -59q-13 -14 -41 -18q-15 -2 -54 -2q-98 0 -98 67q0 12 1 23
q1 2 5 21q30 82 143 104q48 9 100 10q21 0 42 -1q78 -5 106 -14q107 -35 107 -136q0 -18 -1 -23q-9 -91 -81 -124z" />
    <glyph glyph-name="glyph285" unicode="&#x1ea4;" horiz-adv-x="1346" 
d="M217 -19q-246 15 -246 148l305 1141q26 98 72 141q40 38 143 70q78 25 173 26q105 2 172 -14q213 -49 241 -162l297 -1202q0 -68 -88 -114q-65 -34 -174 -34q-285 0 -305 161l-12 96q-69 10 -123 10q-70 0 -129 -10l-25 -84q-30 -101 -88 -139q-54 -35 -164 -36
q-13 0 -49 2zM594 559q44 -12 86 -12q43 0 84 12l-92 465zM1000 1755q7 -35 7 -62q0 -91 -15 -112q-32 -45 -72 -45q-177 153 -254 153t-254 -153q-30 0 -61 36q-18 21 -16 130q2 110 73 143q17 16 42 29q144 77 219 77q88 0 258 -101q25 -15 51 -54q20 -30 22 -41z
M1422 2061l-112 -117l-263 -254l1 74l45 128q-15 1 -15 78l164 201q40 11 69 11q26 0 43 -9q68 -34 68 -112z" />
    <glyph glyph-name="glyph286" unicode="&#x1ea5;" horiz-adv-x="1335" 
d="M1239 889q15 -54 15 -160l2 -583q0 -146 -162 -167q-56 -7 -117 -8q-91 -1 -140.5 32t-86.5 118q-4 15 -13 35q-67 -141 -256 -179q-30 -6 -65 -6q-22 0 -49 4q-313 47 -312 394q0 184 139 273q116 75 312 75h43q87 0 110 4q68 12 83 59q0 71 -45 89q-20 8 -52 10
q-39 -2 -62 -13q-18 -9 -104 -65q-44 -29 -110 -43q-38 -8 -62 -8q-81 0 -128 54t-46 136q1 94 133 174q109 66 383 78l52 2q37 0 49 -2q291 -12 406 -141q56 -63 83 -162zM746 547q-13 -4 -43 -14q-132 -53 -154 -111q-6 -16 -6 -29q0 -31 24.5 -53.5t55.5 -23.5
q122 -2 125 213q0 9 -2 18zM965 1455q7 -30 7 -59q0 -85 -15 -106q-30 -43 -68 -43q-169 145 -241 145q-73 0 -242 -145q-29 0 -58 34q-17 20 -15 124q2 105 70 135q18 17 39 28q135 73 208 73q86 0 246 -96q16 -9 41.5 -41.5t27.5 -48.5zM1403 1763l-112 -117l-263 -254
l1 74l45 128q-15 1 -15 78l164 201q40 11 69 11q26 0 43 -9q68 -34 68 -112z" />
    <glyph glyph-name="glyph287" unicode="&#x1ea6;" horiz-adv-x="1346" 
d="M217 -19q-246 15 -246 148l305 1141q26 98 72 141q40 38 143 70q78 25 173 26q105 2 172 -14q213 -49 241 -162l297 -1202q0 -68 -88 -114q-65 -34 -174 -34q-285 0 -305 161l-12 96q-69 10 -123 10q-70 0 -129 -10l-25 -84q-30 -101 -88 -139q-54 -35 -164 -36
q-13 0 -49 2zM594 559q44 -12 86 -12q43 0 84 12l-92 465zM1000 1755q7 -35 7 -62q0 -91 -15 -112q-32 -45 -72 -45q-177 153 -254 153t-254 -153q-30 0 -61 36q-18 21 -16 130q2 110 73 143q17 16 42 29q144 77 219 77q88 0 258 -101q25 -15 51 -54q20 -30 22 -41z
M296 1688l-263 254l-112 117q0 78 68 112q17 9 43 9q29 0 69 -11l164 -201q0 -76 -15 -78l45 -128z" />
    <glyph glyph-name="glyph288" unicode="&#x1ea7;" horiz-adv-x="1335" 
d="M1239 889q15 -54 15 -160l2 -583q0 -146 -162 -167q-56 -7 -117 -8q-91 -1 -140.5 32t-86.5 118q-4 15 -13 35q-67 -141 -256 -179q-30 -6 -65 -6q-22 0 -49 4q-313 47 -312 394q0 184 139 273q116 75 312 75h43q87 0 110 4q68 12 83 59q0 71 -45 89q-20 8 -52 10
q-39 -2 -62 -13q-18 -9 -104 -65q-44 -29 -110 -43q-38 -8 -62 -8q-81 0 -128 54t-46 136q1 94 133 174q109 66 383 78l52 2q37 0 49 -2q291 -12 406 -141q56 -63 83 -162zM746 547q-13 -4 -43 -14q-132 -53 -154 -111q-6 -16 -6 -29q0 -31 24.5 -53.5t55.5 -23.5
q122 -2 125 213q0 9 -2 18zM966 1455q7 -30 7 -59q0 -85 -15 -106q-30 -43 -68 -43q-169 145 -241 145q-73 0 -242 -145q-29 0 -58 34q-17 20 -15 124q2 105 70 135q18 17 39 28q135 73 208 73q86 0 246 -96q16 -9 41.5 -41.5t27.5 -48.5zM278 1390l-263 254l-112 117
q0 78 68 112q17 9 43 9q29 0 69 -11l164 -201q0 -77 -15 -78l45 -128z" />
    <glyph glyph-name="glyph289" unicode="&#x1ea8;" horiz-adv-x="1346" 
d="M217 -19q-246 15 -246 148l305 1141q26 98 72 141q40 38 143 70q78 25 173 26q105 2 172 -14q213 -49 241 -162l297 -1202q0 -68 -88 -114q-65 -34 -174 -34q-285 0 -305 161l-12 96q-69 10 -123 10q-70 0 -129 -10l-25 -84q-30 -101 -88 -139q-54 -35 -164 -36
q-13 0 -49 2zM594 559q44 -12 86 -12q43 0 84 12l-92 465zM1000 1755q7 -35 7 -62q0 -91 -15 -112q-32 -45 -72 -45q-177 153 -254 153t-254 -153q-30 0 -61 36q-18 21 -16 130q2 110 73 143q17 16 42 29q144 77 219 77q88 0 258 -101q25 -15 51 -54q20 -30 22 -41z
M1309 1909q-13 -6 -38 -23q-8 -12 -8 -28v-62q-67 -40 -105 -40q-39 0 -108 40v84q0 31 35 70q5 6 20 19l22 16l6 4q37 25 38 49q1 28 -24 37q-6 3 -16 3q-22 0 -28 -17q-5 -22 -23 -59q-13 -14 -41 -18q-15 -2 -54 -2q-98 0 -98 67q0 12 1 23q1 2 5 21q30 82 143 104
q48 9 100 10q21 0 42 -1q78 -5 106 -14q107 -35 107 -136q0 -18 -1 -23q-9 -91 -81 -124z" />
    <glyph glyph-name="glyph290" unicode="&#x1ea9;" horiz-adv-x="1335" 
d="M1239 889q15 -54 15 -160l2 -583q0 -146 -162 -167q-56 -7 -117 -8q-91 -1 -140.5 32t-86.5 118q-4 15 -13 35q-67 -141 -256 -179q-30 -6 -65 -6q-22 0 -49 4q-313 47 -312 394q0 184 139 273q116 75 312 75h43q87 0 110 4q68 12 83 59q0 71 -45 89q-20 8 -52 10
q-39 -2 -62 -13q-18 -9 -104 -65q-44 -29 -110 -43q-38 -8 -62 -8q-81 0 -128 54t-46 136q1 94 133 174q109 66 383 78l52 2q37 0 49 -2q291 -12 406 -141q56 -63 83 -162zM746 547q-13 -4 -43 -14q-132 -53 -154 -111q-6 -16 -6 -29q0 -31 24.5 -53.5t55.5 -23.5
q122 -2 125 213q0 9 -2 18zM965 1457q7 -30 7 -59q0 -85 -15 -106q-30 -43 -68 -43q-169 145 -241 145q-73 0 -242 -145q-29 0 -58 34q-17 20 -15 124q2 105 70 135q18 17 39 28q135 73 208 73q86 0 246 -96q16 -9 41.5 -41.5t27.5 -48.5zM1290 1613q-13 -6 -38 -23
q-8 -12 -8 -28v-62q-67 -40 -105 -40q-39 0 -108 40v84q0 32 35 70q3 3 20 19l22 16l6 4q37 25 38 49q1 28 -24 37q-6 3 -16 3q-22 0 -28 -17q-5 -22 -23 -59q-13 -14 -41 -18q-15 -2 -54 -2q-98 0 -98 67q0 12 1 23q1 2 5 21q30 82 143 104q48 9 100 10q21 0 42 -1
q78 -5 106 -14q107 -35 107 -136q0 -18 -1 -23q-9 -91 -81 -124z" />
    <glyph glyph-name="glyph291" unicode="&#x1eaa;" horiz-adv-x="1346" 
d="M217 -19q-246 15 -246 148l305 1141q26 98 72 141q40 38 143 70q78 25 173 26q105 2 172 -14q213 -49 241 -162l297 -1202q0 -68 -88 -114q-65 -34 -174 -34q-285 0 -305 161l-12 96q-69 10 -123 10q-70 0 -129 -10l-25 -84q-30 -101 -88 -139q-54 -35 -164 -36
q-13 0 -49 2zM594 559q44 -12 86 -12q43 0 84 12l-92 465zM1000 1755q7 -35 7 -62q0 -91 -15 -112q-32 -45 -72 -45q-177 153 -254 153t-254 -153q-30 0 -61 36q-18 21 -16 130q2 110 73 143q17 16 42 29q144 77 219 77q88 0 258 -101q25 -15 51 -54q20 -30 22 -41z
M563 2150q-15 -30 -50 -77q-37 -31 -62 -38l-101 -28q-25 -7 -50.5 12.5t-25.5 45.5q0 29 43 99q37 60 65 90q16 18 32 25l191 64l187 -144q15 30 50 77q36 30 62 38l91 28q3 1 9 1q27 0 52 -17.5t25 -43.5q0 -15 -29 -72q-33 -66 -79 -115q-16 -18 -32 -25l-191 -64z" />
    <glyph glyph-name="glyph292" unicode="&#x1eab;" horiz-adv-x="1335" 
d="M1239 889q15 -54 15 -160l2 -583q0 -146 -162 -167q-56 -7 -117 -8q-91 -1 -140.5 32t-86.5 118q-4 15 -13 35q-67 -141 -256 -179q-30 -6 -65 -6q-22 0 -49 4q-313 47 -312 394q0 184 139 273q116 75 312 75h43q87 0 110 4q68 12 83 59q0 71 -45 89q-20 8 -52 10
q-39 -2 -62 -13q-18 -9 -104 -65q-44 -29 -110 -43q-38 -8 -62 -8q-81 0 -128 54t-46 136q1 94 133 174q109 66 383 78l52 2q37 0 49 -2q291 -12 406 -141q56 -63 83 -162zM746 547q-13 -4 -43 -14q-132 -53 -154 -111q-6 -16 -6 -29q0 -31 24.5 -53.5t55.5 -23.5
q122 -2 125 213q0 9 -2 18zM966 1456q7 -30 7 -59q0 -85 -15 -106q-30 -43 -68 -43q-169 145 -241 145q-73 0 -242 -145q-29 0 -58 34q-17 20 -15 124q2 105 70 135q18 17 39 28q135 73 208 73q86 0 246 -96q16 -9 41.5 -41.5t27.5 -48.5zM545 1853q-15 -30 -50 -77
q-37 -31 -62 -38l-101 -28q-25 -7 -50.5 12.5t-25.5 45.5q0 29 43 99q37 60 65 90q16 18 32 25l191 64l187 -144q15 30 50 77q36 30 62 38l91 28q3 1 9 1q27 0 52 -17.5t25 -43.5q0 -15 -29 -72q-33 -66 -79 -115q-16 -18 -32 -25l-191 -64z" />
    <glyph glyph-name="glyph293" unicode="&#x1eac;" horiz-adv-x="1346" 
d="M217 -19q-246 15 -246 148l305 1141q26 98 72 141q40 38 143 70q78 25 173 26q105 2 172 -14q213 -49 241 -162l297 -1202q0 -68 -88 -114q-65 -34 -174 -34q-285 0 -305 161l-12 96q-69 10 -123 10q-70 0 -129 -10l-25 -84q-30 -101 -88 -139q-54 -35 -164 -36
q-13 0 -49 2zM594 559q44 -12 86 -12q43 0 84 12l-92 465zM1000 1755q7 -35 7 -62q0 -91 -15 -112q-32 -45 -72 -45q-177 153 -254 153t-254 -153q-30 0 -61 36q-18 21 -16 130q2 110 73 143q17 16 42 29q144 77 219 77q88 0 258 -101q25 -15 51 -54q20 -30 22 -41z
M834 -267q-24 -88 -49 -88h-233q-28 0 -54 67q-8 21 -13 67q0 73 20 125q22 57 45 57h224q25 0 52 -69q14 -36 14 -106q0 -31 -6 -53z" />
    <glyph glyph-name="glyph294" unicode="&#x1ead;" horiz-adv-x="1335" 
d="M1239 889q15 -54 15 -160l2 -583q0 -146 -162 -167q-56 -7 -117 -8q-91 -1 -140.5 32t-86.5 118q-4 15 -13 35q-67 -141 -256 -179q-30 -6 -65 -6q-22 0 -49 4q-313 47 -312 394q0 184 139 273q116 75 312 75h43q87 0 110 4q68 12 83 59q0 71 -45 89q-20 8 -52 10
q-39 -2 -62 -13q-18 -9 -104 -65q-44 -29 -110 -43q-38 -8 -62 -8q-81 0 -128 54t-46 136q1 94 133 174q109 66 383 78l52 2q37 0 49 -2q291 -12 406 -141q56 -63 83 -162zM746 547q-13 -4 -43 -14q-132 -53 -154 -111q-6 -16 -6 -29q0 -31 24.5 -53.5t55.5 -23.5
q122 -2 125 213q0 9 -2 18zM966 1455q7 -30 7 -59q0 -85 -15 -106q-30 -43 -68 -43q-169 145 -241 145q-73 0 -242 -145q-29 0 -58 34q-17 20 -15 124q2 105 70 135q18 17 39 28q135 73 208 73q86 0 246 -96q16 -9 41.5 -41.5t27.5 -48.5zM820 -367q-24 -88 -49 -88h-233
q-28 0 -54 67q-7 18 -13 67q0 73 20 125q22 57 45 57h224q25 0 52 -69q14 -36 14 -106q0 -31 -6 -53z" />
    <glyph glyph-name="glyph295" unicode="&#x1eae;" horiz-adv-x="1346" 
d="M217 -19q-246 15 -246 148l305 1141q26 98 72 141q40 38 143 70q78 25 173 26q105 2 172 -14q213 -49 241 -162l297 -1202q0 -68 -88 -114q-65 -34 -174 -34q-285 0 -305 161l-12 96q-69 10 -123 10q-70 0 -129 -10l-25 -84q-30 -101 -88 -139q-54 -35 -164 -36
q-13 0 -49 2zM594 559q44 -12 86 -12q43 0 84 12l-92 465zM331 1772q-8 41 -8 62q0 91 15 112q32 45 72 45q187 -153 264 -153t264 153q30 0 61 -36q19 -22 17 -131q-2 -104 -74 -138q-13 -14 -42 -33q-157 -77 -229 -77q-90 0 -268 97q-23 12 -50 56q-20 32 -22 43z
M1046 2363l-112 -117l-263 -254l1 74l45 128q-15 1 -15 78l164 201q40 11 69 11q26 0 43 -9q68 -34 68 -112z" />
    <glyph glyph-name="glyph296" unicode="&#x1eaf;" horiz-adv-x="1335" 
d="M1239 889q15 -54 15 -160l2 -583q0 -146 -162 -167q-56 -7 -117 -8q-91 -1 -140.5 32t-86.5 118q-4 15 -13 35q-67 -141 -256 -179q-30 -6 -65 -6q-22 0 -49 4q-313 47 -312 394q0 184 139 273q116 75 312 75h43q87 0 110 4q68 12 83 59q0 71 -45 89q-20 8 -52 10
q-39 -2 -62 -13q-18 -9 -104 -65q-44 -29 -110 -43q-38 -8 -62 -8q-81 0 -128 54t-46 136q1 94 133 174q109 66 383 78l52 2q37 0 49 -2q291 -12 406 -141q56 -63 83 -162zM746 547q-13 -4 -43 -14q-132 -53 -154 -111q-6 -16 -6 -29q0 -31 24.5 -53.5t55.5 -23.5
q122 -2 125 213q0 9 -2 18zM341 1470q-7 37 -7 56q0 82 13 100q29 41 65 41q168 -138 238 -138q69 0 237 138q27 0 55 -32q18 -20 16 -118q-2 -95 -67 -124q-12 -13 -38 -30q-141 -69 -206 -69q-82 0 -241 87q-20 11 -45 51q-18 29 -20 38zM1023 2057l-112 -117l-263 -254
l1 74l45 128q-15 1 -15 78l164 201q40 11 69 11q26 0 43 -9q68 -34 68 -112z" />
    <glyph glyph-name="glyph297" unicode="&#x1eb0;" horiz-adv-x="1346" 
d="M217 -19q-246 15 -246 148l305 1141q26 98 72 141q40 38 143 70q78 25 173 26q105 2 172 -14q213 -49 241 -162l297 -1202q0 -68 -88 -114q-65 -34 -174 -34q-285 0 -305 161l-12 96q-69 10 -123 10q-70 0 -129 -10l-25 -84q-30 -101 -88 -139q-54 -35 -164 -36
q-13 0 -49 2zM594 559q44 -12 86 -12q43 0 84 12l-92 465zM331 1772q-8 41 -8 62q0 91 15 112q32 45 72 45q187 -153 264 -153t264 153q30 0 61 -36q19 -22 17 -131q-2 -104 -74 -138q-13 -14 -42 -33q-157 -77 -229 -77q-90 0 -268 97q-23 12 -50 56q-20 32 -22 43z
M673 1993l-263 254l-112 117q0 78 68 112q17 9 43 9q29 0 69 -11l164 -201q0 -76 -15 -78l45 -128z" />
    <glyph glyph-name="glyph298" unicode="&#x1eb1;" horiz-adv-x="1335" 
d="M1239 889q15 -54 15 -160l2 -583q0 -146 -162 -167q-56 -7 -117 -8q-91 -1 -140.5 32t-86.5 118q-4 15 -13 35q-67 -141 -256 -179q-30 -6 -65 -6q-22 0 -49 4q-313 47 -312 394q0 184 139 273q116 75 312 75h43q87 0 110 4q68 12 83 59q0 71 -45 89q-20 8 -52 10
q-39 -2 -62 -13q-18 -9 -104 -65q-44 -29 -110 -43q-38 -8 -62 -8q-81 0 -128 54t-46 136q1 94 133 174q109 66 383 78l52 2q37 0 49 -2q291 -12 406 -141q56 -63 83 -162zM746 547q-13 -4 -43 -14q-132 -53 -154 -111q-6 -16 -6 -29q0 -31 24.5 -53.5t55.5 -23.5
q122 -2 125 213q0 9 -2 18zM340 1473q-7 38 -7 56q0 82 13 100q29 41 65 41q168 -138 238 -138q69 0 237 138q27 0 55 -32q18 -20 16 -118q-2 -95 -67 -124q-12 -13 -38 -30q-141 -69 -206 -69q-82 0 -241 87q-20 11 -45 51q-18 29 -20 38zM649 1690l-263 254l-112 117
q0 78 68 112q17 9 43 9q29 0 69 -11l164 -201q0 -76 -15 -78l45 -128z" />
    <glyph glyph-name="glyph299" unicode="&#x1eb2;" horiz-adv-x="1346" 
d="M217 -19q-246 15 -246 148l305 1141q26 98 72 141q40 38 143 70q78 25 173 26q105 2 172 -14q213 -49 241 -162l297 -1202q0 -68 -88 -114q-65 -34 -174 -34q-285 0 -305 161l-12 96q-69 10 -123 10q-70 0 -129 -10l-25 -84q-30 -101 -88 -139q-54 -35 -164 -36
q-13 0 -49 2zM594 559q44 -12 86 -12q43 0 84 12l-92 465zM331 1772q-8 41 -8 62q0 91 15 112q32 45 72 45q187 -153 264 -153t264 153q30 0 61 -36q19 -22 17 -131q-2 -104 -74 -138q-13 -14 -42 -33q-157 -77 -229 -77q-90 0 -268 97q-23 12 -50 56q-20 32 -22 43z
M823 2143q-13 -6 -38 -23q-8 -12 -8 -28v-62q-67 -40 -105 -40q-39 0 -108 40v84q0 31 35 70q5 6 20 19l22 16l6 4q37 25 38 49q1 28 -24 37q-6 3 -16 3q-22 0 -28 -17q-5 -22 -23 -59q-13 -14 -41 -18q-15 -2 -54 -2q-98 0 -98 67q0 12 1 23q1 2 5 21q30 82 143 104
q48 9 100 10q21 0 42 -1q78 -5 106 -14q107 -35 107 -136q0 -18 -1 -23q-9 -91 -81 -124z" />
    <glyph glyph-name="glyph300" unicode="&#x1eb3;" horiz-adv-x="1335" 
d="M1239 889q15 -54 15 -160l2 -583q0 -146 -162 -167q-56 -7 -117 -8q-91 -1 -140.5 32t-86.5 118q-4 15 -13 35q-67 -141 -256 -179q-30 -6 -65 -6q-22 0 -49 4q-313 47 -312 394q0 184 139 273q116 75 312 75h43q87 0 110 4q68 12 83 59q0 71 -45 89q-20 8 -52 10
q-39 -2 -62 -13q-18 -9 -104 -65q-44 -29 -110 -43q-38 -8 -62 -8q-81 0 -128 54t-46 136q1 94 133 174q109 66 383 78l52 2q37 0 49 -2q291 -12 406 -141q56 -63 83 -162zM746 547q-13 -4 -43 -14q-132 -53 -154 -111q-6 -16 -6 -29q0 -31 24.5 -53.5t55.5 -23.5
q122 -2 125 213q0 9 -2 18zM343 1471q-7 37 -7 56q0 82 13 100q29 41 65 41q168 -138 238 -138q69 0 237 138q27 0 55 -32q18 -20 16 -118q-2 -95 -67 -124q-12 -13 -38 -30q-141 -69 -206 -69q-82 0 -241 87q-20 11 -45 51q-18 29 -20 38zM802 1848q-13 -6 -38 -23
q-8 -12 -8 -28v-62q-67 -40 -105 -40q-39 0 -108 40v84q0 32 35 70q3 3 20 19l22 16l6 4q37 25 38 49q1 28 -24 37q-6 3 -16 3q-22 0 -28 -17q-5 -22 -23 -59q-13 -14 -41 -18q-15 -2 -54 -2q-98 0 -98 67q0 12 1 23q1 2 5 21q30 82 143 104q48 9 100 10q21 0 42 -1
q78 -5 106 -14q107 -35 107 -136q0 -18 -1 -23q-9 -91 -81 -124z" />
    <glyph glyph-name="glyph301" unicode="&#x1eb4;" horiz-adv-x="1346" 
d="M217 -19q-246 15 -246 148l305 1141q26 98 72 141q40 38 143 70q78 25 173 26q105 2 172 -14q213 -49 241 -162l297 -1202q0 -68 -88 -114q-65 -34 -174 -34q-285 0 -305 161l-12 96q-69 10 -123 10q-70 0 -129 -10l-25 -84q-30 -101 -88 -139q-54 -35 -164 -36
q-13 0 -49 2zM594 559q44 -12 86 -12q43 0 84 12l-92 465zM331 1772q-8 41 -8 62q0 91 15 112q32 45 72 45q187 -153 264 -153t264 153q30 0 61 -36q19 -22 17 -131q-2 -104 -74 -138q-13 -14 -42 -33q-157 -77 -229 -77q-90 0 -268 97q-23 12 -50 56q-20 32 -22 43z
M909 2150q-15 -30 -50 -77q-37 -31 -62 -38l-101 -28q-25 -7 -50.5 12.5t-25.5 45.5q0 29 43 99q37 60 65 90q16 18 32 25l191 64l187 -144q15 30 50 77q36 30 62 38l91 28q3 1 9 1q27 0 52 -17.5t25 -43.5q0 -15 -29 -72q-33 -66 -79 -115q-16 -18 -32 -25l-191 -64z" />
    <glyph glyph-name="glyph302" unicode="&#x1eb5;" horiz-adv-x="1335" 
d="M1239 889q15 -54 15 -160l2 -583q0 -146 -162 -167q-56 -7 -117 -8q-91 -1 -140.5 32t-86.5 118q-4 15 -13 35q-67 -141 -256 -179q-30 -6 -65 -6q-22 0 -49 4q-313 47 -312 394q0 184 139 273q116 75 312 75h43q87 0 110 4q68 12 83 59q0 71 -45 89q-20 8 -52 10
q-39 -2 -62 -13q-18 -9 -104 -65q-44 -29 -110 -43q-38 -8 -62 -8q-81 0 -128 54t-46 136q1 94 133 174q109 66 383 78l52 2q37 0 49 -2q291 -12 406 -141q56 -63 83 -162zM746 547q-13 -4 -43 -14q-132 -53 -154 -111q-6 -16 -6 -29q0 -31 24.5 -53.5t55.5 -23.5
q122 -2 125 213q0 9 -2 18zM343 1472q-7 37 -7 56q0 82 13 100q29 41 65 41q168 -138 238 -138q69 0 237 138q27 0 55 -32q18 -20 16 -118q-2 -95 -67 -124q-12 -13 -38 -30q-141 -69 -206 -69q-82 0 -241 87q-20 11 -45 51q-18 29 -20 38zM888 1846q-15 -30 -50 -77
q-37 -31 -62 -38l-101 -28q-25 -7 -50.5 12.5t-25.5 45.5q0 29 43 99q37 60 65 90q16 18 32 25l191 64l187 -144q15 30 50 77q36 30 62 38l91 28q3 1 9 1q27 0 52 -17.5t25 -43.5q0 -15 -29 -72q-33 -66 -79 -115q-16 -18 -32 -25l-191 -64z" />
    <glyph glyph-name="glyph303" unicode="&#x1eb6;" horiz-adv-x="1346" 
d="M217 -19q-246 15 -246 148l305 1141q26 98 72 141q40 38 143 70q78 25 173 26q105 2 172 -14q213 -49 241 -162l297 -1202q0 -68 -88 -114q-65 -34 -174 -34q-285 0 -305 161l-12 96q-69 10 -123 10q-70 0 -129 -10l-25 -84q-30 -101 -88 -139q-54 -35 -164 -36
q-13 0 -49 2zM594 559q44 -12 86 -12q43 0 84 12l-92 465zM331 1772q-8 41 -8 62q0 91 15 112q32 45 72 45q187 -153 264 -153t264 153q30 0 61 -36q19 -22 17 -131q-2 -104 -74 -138q-13 -14 -42 -33q-157 -77 -229 -77q-90 0 -268 97q-23 12 -50 56q-20 32 -22 43z
M834 -267q-24 -88 -49 -88h-233q-28 0 -54 67q-8 21 -13 67q0 73 20 125q22 57 45 57h224q25 0 52 -69q14 -36 14 -106q0 -31 -6 -53z" />
    <glyph glyph-name="glyph304" unicode="&#x1eb7;" horiz-adv-x="1335" 
d="M1239 889q15 -54 15 -160l2 -583q0 -146 -162 -167q-56 -7 -117 -8q-91 -1 -140.5 32t-86.5 118q-4 15 -13 35q-67 -141 -256 -179q-30 -6 -65 -6q-22 0 -49 4q-313 47 -312 394q0 184 139 273q116 75 312 75h43q87 0 110 4q68 12 83 59q0 71 -45 89q-20 8 -52 10
q-39 -2 -62 -13q-18 -9 -104 -65q-44 -29 -110 -43q-38 -8 -62 -8q-81 0 -128 54t-46 136q1 94 133 174q109 66 383 78l52 2q37 0 49 -2q291 -12 406 -141q56 -63 83 -162zM746 547q-13 -4 -43 -14q-132 -53 -154 -111q-6 -16 -6 -29q0 -31 24.5 -53.5t55.5 -23.5
q122 -2 125 213q0 9 -2 18zM820 -367q-24 -88 -49 -88h-233q-28 0 -54 67q-7 18 -13 67q0 73 20 125q22 57 45 57h224q25 0 52 -69q14 -36 14 -106q0 -31 -6 -53zM341 1470q-7 37 -7 56q0 82 13 100q29 41 65 41q168 -138 238 -138q69 0 237 138q27 0 55 -32q18 -20 16 -118
q-2 -95 -67 -124q-12 -13 -38 -30q-141 -69 -206 -69q-82 0 -241 87q-20 11 -45 51q-18 29 -20 38z" />
    <glyph glyph-name="glyph305" unicode="&#x1eb8;" horiz-adv-x="1256" 
d="M74 107v1300q0 41 73 64q13 4 31 4h883q110 0 141 -131q6 -18 6 -91q-17 -156 -151 -157l-453 -2v-164l451 2q59 0 104 -104q15 -36 14 -84q-5 -178 -172 -179l-397 -2v-174l475 -2q133 -1 127 -227q-2 -68 -36 -112q-38 -48 -103 -48h-915q-47 0 -72 66q-6 16 -6 41z
M808 -327q-24 -88 -49 -88h-233q-28 0 -54 67q-7 18 -13 67q0 73 20 125q22 57 45 57h224q25 0 52 -69q14 -36 14 -106q0 -31 -6 -53z" />
    <glyph glyph-name="glyph306" unicode="&#x1eb9;" horiz-adv-x="1378" 
d="M1329 686q4 -36 4 -53q0 -132 -96 -133l-662 -6v-58q0 -67 29 -104q37 -39 78 -39q68 0 178 109q35 35 187 34q56 0 106 -16q139 -44 139 -119q0 -51 -51 -133q-71 -114 -324 -172q-37 -9 -77 -15q-52 -8 -148 -10q-36 -1 -86 4q-172 16 -281 61q-190 78 -244 274
q-24 87 -24 243q0 38 6 92q40 362 239 463q109 55 298 76q54 6 111 6q93 0 178 -16q170 -32 256 -90q123 -83 160 -228q4 -18 12 -55v-8zM590 742l205 2v39q0 52 -66 75q-15 8 -37 9q-20 1 -39 -9q-63 -20 -63 -69v-47zM862 -367q-24 -88 -49 -88h-233q-28 0 -54 67
q-8 21 -13 67q0 73 20 125q22 57 45 57h224q25 0 52 -69q14 -36 14 -106q0 -31 -6 -53z" />
    <glyph glyph-name="glyph307" unicode="&#x1eba;" horiz-adv-x="1256" 
d="M74 107v1300q0 41 73 64q13 4 31 4h883q110 0 141 -131q6 -18 6 -91q-17 -156 -151 -157l-453 -2v-164l451 2q59 0 104 -104q15 -36 14 -84q-5 -178 -172 -179l-397 -2v-174l475 -2q133 -1 127 -227q-2 -68 -36 -112q-38 -48 -103 -48h-915q-47 0 -72 66q-6 16 -6 41z
M788 1749q-13 -6 -38 -23q-8 -12 -8 -28v-62q-67 -40 -105 -40q-39 0 -108 40v84q0 31 35 70q5 6 20 19l22 16l6 4q37 25 38 49q1 28 -24 37q-6 3 -16 3q-22 0 -28 -17q-5 -22 -23 -59q-13 -14 -41 -18q-15 -2 -54 -2q-98 0 -98 67q0 12 1 23q1 2 5 21q30 82 143 104
q48 9 100 10q21 0 42 -1q78 -5 106 -14q107 -35 107 -136q0 -18 -1 -23q-9 -91 -81 -124z" />
    <glyph glyph-name="glyph308" unicode="&#x1ebb;" horiz-adv-x="1378" 
d="M1329 686q4 -36 4 -53q0 -132 -96 -133l-662 -6v-58q0 -67 29 -104q37 -39 78 -39q68 0 178 109q35 35 187 34q56 0 106 -16q139 -44 139 -119q0 -51 -51 -133q-71 -114 -324 -172q-37 -9 -77 -15q-52 -8 -148 -10q-36 -1 -86 4q-172 16 -281 61q-190 78 -244 274
q-24 87 -24 243q0 38 6 92q40 362 239 463q109 55 298 76q54 6 111 6q93 0 178 -16q170 -32 256 -90q123 -83 160 -228q4 -18 12 -55v-8zM590 742l205 2v39q0 52 -66 75q-15 8 -37 9q-20 1 -39 -9q-63 -20 -63 -69v-47zM860 1496q-13 -6 -38 -23q-8 -12 -8 -28v-62
q-67 -40 -105 -40q-39 0 -108 40v84q0 31 35 70q5 6 20 19l22 16l6 4q37 25 38 49q1 28 -24 37q-6 3 -16 3q-22 0 -28 -17q-5 -22 -23 -59q-13 -14 -41 -18q-15 -2 -54 -2q-98 0 -98 67q0 12 1 23q1 2 5 21q30 82 143 104q48 9 100 10q21 0 42 -1q78 -5 106 -14
q107 -35 107 -136q0 -18 -1 -23q-9 -91 -81 -124z" />
    <glyph glyph-name="glyph309" unicode="&#x1ebc;" horiz-adv-x="1256" 
d="M74 107v1300q0 41 73 64q13 4 31 4h883q110 0 141 -131q6 -18 6 -91q-17 -156 -151 -157l-453 -2v-164l451 2q59 0 104 -104q15 -36 14 -84q-5 -178 -172 -179l-397 -2v-174l475 -2q133 -1 127 -227q-2 -68 -36 -112q-38 -48 -103 -48h-915q-47 0 -72 66q-6 16 -6 41z
M534 1750q-15 -30 -50 -77q-37 -31 -62 -38l-101 -28q-25 -7 -50.5 12.5t-25.5 45.5q0 29 43 99q37 60 65 90q16 18 32 25l191 64l187 -144q15 30 50 77q36 30 62 38l91 28q3 1 9 1q27 0 52 -17.5t25 -43.5q0 -15 -29 -72q-33 -66 -79 -115q-16 -18 -32 -25l-191 -64z" />
    <glyph glyph-name="glyph310" unicode="&#x1ebd;" horiz-adv-x="1378" 
d="M1329 686q4 -36 4 -53q0 -132 -96 -133l-662 -6v-58q0 -67 29 -104q37 -39 78 -39q68 0 178 109q35 35 187 34q56 0 106 -16q139 -44 139 -119q0 -51 -51 -133q-71 -114 -324 -172q-37 -9 -77 -15q-52 -8 -148 -10q-36 -1 -86 4q-172 16 -281 61q-190 78 -244 274
q-24 87 -24 243q0 38 6 92q40 362 239 463q109 55 298 76q54 6 111 6q93 0 178 -16q170 -32 256 -90q123 -83 160 -228q4 -18 12 -55v-8zM590 742l205 2v39q0 52 -66 75q-15 8 -37 9q-20 1 -39 -9q-63 -20 -63 -69v-47zM605 1488q-15 -30 -50 -77q-37 -31 -62 -38l-101 -28
q-25 -7 -50.5 12.5t-25.5 45.5q0 29 43 99q37 60 65 90q16 18 32 25l191 64l187 -144q15 30 50 77q36 30 62 38l91 28q3 1 9 1q27 0 52 -17.5t25 -43.5q0 -15 -29 -72q-33 -66 -79 -115q-16 -18 -32 -25l-191 -64z" />
    <glyph glyph-name="glyph311" unicode="&#x1ebe;" horiz-adv-x="1256" 
d="M74 107v1300q0 41 73 64q13 4 31 4h883q110 0 141 -131q6 -18 6 -91q-17 -156 -151 -157l-453 -2v-164l451 2q59 0 104 -104q15 -36 14 -84q-5 -178 -172 -179l-397 -2v-174l475 -2q133 -1 127 -227q-2 -68 -36 -112q-38 -48 -103 -48h-915q-47 0 -72 66q-6 16 -6 41z
M968 1755q7 -35 7 -62q0 -91 -15 -112q-32 -45 -72 -45q-177 153 -254 153t-254 -153q-30 0 -61 36q-18 21 -16 130q2 110 73 143q17 16 42 29q144 77 219 77q88 0 258 -101q25 -15 51 -54q20 -30 22 -41zM1390 2061l-112 -117l-263 -254l1 74l45 128q-15 1 -15 78l164 201
q40 11 69 11q26 0 43 -9q68 -34 68 -112z" />
    <glyph glyph-name="glyph312" unicode="&#x1ebf;" horiz-adv-x="1378" 
d="M1329 686q4 -36 4 -53q0 -132 -96 -133l-662 -6v-58q0 -67 29 -104q37 -39 78 -39q68 0 178 109q35 35 187 34q56 0 106 -16q139 -44 139 -119q0 -51 -51 -133q-71 -114 -324 -172q-37 -9 -77 -15q-52 -8 -148 -10q-36 -1 -86 4q-172 16 -281 61q-190 78 -244 274
q-24 87 -24 243q0 38 6 92q40 362 239 463q109 55 298 76q54 6 111 6q93 0 178 -16q170 -32 256 -90q123 -83 160 -228q4 -18 12 -55v-8zM590 742l205 2v39q0 52 -66 75q-15 8 -37 9q-20 1 -39 -9q-63 -20 -63 -69v-47zM1025 1455q7 -30 7 -59q0 -85 -15 -106
q-30 -43 -68 -43q-169 145 -241 145q-73 0 -242 -145q-29 0 -58 34q-17 20 -15 124q2 105 70 135q18 17 39 28q135 73 208 73q86 0 246 -96q16 -9 41.5 -41.5t27.5 -48.5zM1463 1763l-112 -117l-263 -254l1 74l45 128q-15 1 -15 78l164 201q40 11 69 11q26 0 43 -9
q68 -34 68 -112z" />
    <glyph glyph-name="glyph313" unicode="&#x1ec0;" horiz-adv-x="1256" 
d="M74 107v1300q0 41 73 64q13 4 31 4h883q110 0 141 -131q6 -18 6 -91q-17 -156 -151 -157l-453 -2v-164l451 2q59 0 104 -104q15 -36 14 -84q-5 -178 -172 -179l-397 -2v-174l475 -2q133 -1 127 -227q-2 -68 -36 -112q-38 -48 -103 -48h-915q-47 0 -72 66q-6 16 -6 41z
M970 1755q7 -35 7 -62q0 -91 -15 -112q-32 -45 -72 -45q-177 153 -254 153t-254 -153q-30 0 -61 36q-18 21 -16 130q2 110 73 143q17 16 42 29q144 77 219 77q88 0 258 -101q25 -15 51 -54q20 -30 22 -41zM266 1688l-263 254l-112 117q0 78 68 112q17 9 43 9q29 0 69 -11
l164 -201q0 -76 -15 -78l45 -128z" />
    <glyph glyph-name="glyph314" unicode="&#x1ec1;" horiz-adv-x="1378" 
d="M1329 686q4 -36 4 -53q0 -132 -96 -133l-662 -6v-58q0 -67 29 -104q37 -39 78 -39q68 0 178 109q35 35 187 34q56 0 106 -16q139 -44 139 -119q0 -51 -51 -133q-71 -114 -324 -172q-37 -9 -77 -15q-52 -8 -148 -10q-36 -1 -86 4q-172 16 -281 61q-190 78 -244 274
q-24 87 -24 243q0 38 6 92q40 362 239 463q109 55 298 76q54 6 111 6q93 0 178 -16q170 -32 256 -90q123 -83 160 -228q4 -18 12 -55v-8zM590 742l205 2v39q0 52 -66 75q-15 8 -37 9q-20 1 -39 -9q-63 -20 -63 -69v-47zM1022 1455q7 -30 7 -59q0 -85 -15 -106
q-30 -43 -68 -43q-169 145 -241 145q-73 0 -242 -145q-29 0 -58 34q-17 20 -15 124q2 105 70 135q18 17 39 28q135 73 208 73q86 0 246 -96q16 -9 41.5 -41.5t27.5 -48.5zM334 1390l-263 254l-112 117q0 78 68 112q17 9 43 9q29 0 69 -11l164 -201q0 -77 -15 -78l45 -128z
" />
    <glyph glyph-name="glyph315" unicode="&#x1ec2;" horiz-adv-x="1256" 
d="M74 107v1300q0 41 73 64q13 4 31 4h883q110 0 141 -131q6 -18 6 -91q-17 -156 -151 -157l-453 -2v-164l451 2q59 0 104 -104q15 -36 14 -84q-5 -178 -172 -179l-397 -2v-174l475 -2q133 -1 127 -227q-2 -68 -36 -112q-38 -48 -103 -48h-915q-47 0 -72 66q-6 16 -6 41z
M971 1755q7 -35 7 -62q0 -91 -15 -112q-32 -45 -72 -45q-177 153 -254 153t-254 -153q-30 0 -61 36q-18 21 -16 130q2 110 73 143q17 16 42 29q144 77 219 77q88 0 258 -101q25 -15 51 -54q20 -30 22 -41zM1280 1909q-13 -6 -38 -23q-8 -12 -8 -28v-62q-67 -40 -105 -40
q-39 0 -108 40v84q0 32 35 70q3 3 20 19l22 16l6 4q37 25 38 49q1 28 -24 37q-6 3 -16 3q-22 0 -28 -17q-5 -22 -23 -59q-13 -14 -41 -18q-15 -2 -54 -2q-98 0 -98 67q0 12 1 23q1 2 5 21q30 82 143 104q48 9 100 10q21 0 42 -1q78 -5 106 -14q107 -35 107 -136
q0 -18 -1 -23q-9 -91 -81 -124z" />
    <glyph glyph-name="glyph316" unicode="&#x1ec3;" horiz-adv-x="1378" 
d="M1329 686q4 -36 4 -53q0 -132 -96 -133l-662 -6v-58q0 -67 29 -104q37 -39 78 -39q68 0 178 109q35 35 187 34q56 0 106 -16q139 -44 139 -119q0 -51 -51 -133q-71 -114 -324 -172q-37 -9 -77 -15q-52 -8 -148 -10q-36 -1 -86 4q-172 16 -281 61q-190 78 -244 274
q-24 87 -24 243q0 38 6 92q40 362 239 463q109 55 298 76q54 6 111 6q93 0 178 -16q170 -32 256 -90q123 -83 160 -228q4 -18 12 -55v-8zM590 742l205 2v39q0 52 -66 75q-15 8 -37 9q-20 1 -39 -9q-63 -20 -63 -69v-47zM1025 1457q7 -30 7 -59q0 -85 -15 -106
q-30 -43 -68 -43q-169 145 -241 145q-73 0 -242 -145q-29 0 -58 34q-17 20 -15 124q2 105 70 135q18 17 39 28q135 73 208 73q86 0 246 -96q16 -9 41.5 -41.5t27.5 -48.5zM1350 1613q-13 -6 -38 -23q-8 -12 -8 -28v-62q-67 -40 -105 -40q-39 0 -108 40v84q0 32 35 70
q3 3 20 19l22 16l6 4q37 25 38 49q1 28 -24 37q-6 3 -16 3q-22 0 -28 -17q-5 -22 -23 -59q-13 -14 -41 -18q-15 -2 -54 -2q-98 0 -98 67q0 12 1 23q1 2 5 21q30 82 143 104q48 9 100 10q21 0 42 -1q78 -5 106 -14q107 -35 107 -136q0 -18 -1 -23q-9 -91 -81 -124z" />
    <glyph glyph-name="glyph317" unicode="&#x1ec4;" horiz-adv-x="1256" 
d="M74 107v1300q0 41 73 64q13 4 31 4h883q110 0 141 -131q6 -18 6 -91q-17 -156 -151 -157l-453 -2v-164l451 2q59 0 104 -104q15 -36 14 -84q-5 -178 -172 -179l-397 -2v-174l475 -2q133 -1 127 -227q-2 -68 -36 -112q-38 -48 -103 -48h-915q-47 0 -72 66q-6 16 -6 41z
M971 1755q7 -35 7 -62q0 -91 -15 -112q-32 -45 -72 -45q-177 153 -254 153t-254 -153q-30 0 -61 36q-18 21 -16 130q2 110 73 143q17 16 42 29q144 77 219 77q88 0 258 -101q25 -15 51 -54q20 -30 22 -41zM534 2150q-15 -30 -50 -77q-37 -31 -62 -38l-101 -28
q-25 -7 -50.5 12.5t-25.5 45.5q0 29 43 99q37 60 65 90q16 18 32 25l191 64l187 -144q15 30 50 77q36 30 62 38l91 28q3 1 9 1q27 0 52 -17.5t25 -43.5q0 -15 -29 -72q-33 -66 -79 -115q-16 -18 -32 -25l-191 -64z" />
    <glyph glyph-name="glyph318" unicode="&#x1ec5;" horiz-adv-x="1378" 
d="M1329 686q4 -36 4 -53q0 -132 -96 -133l-662 -6v-58q0 -67 29 -104q37 -39 78 -39q68 0 178 109q35 35 187 34q56 0 106 -16q139 -44 139 -119q0 -51 -51 -133q-71 -114 -324 -172q-37 -9 -77 -15q-52 -8 -148 -10q-36 -1 -86 4q-172 16 -281 61q-190 78 -244 274
q-24 87 -24 243q0 38 6 92q40 362 239 463q109 55 298 76q54 6 111 6q93 0 178 -16q170 -32 256 -90q123 -83 160 -228q4 -18 12 -55v-8zM590 742l205 2v39q0 52 -66 75q-15 8 -37 9q-20 1 -39 -9q-63 -20 -63 -69v-47zM1026 1456q7 -30 7 -59q0 -85 -15 -106
q-30 -43 -68 -43q-169 145 -241 145q-73 0 -242 -145q-29 0 -58 34q-17 20 -15 124q2 105 70 135q18 17 39 28q135 73 208 73q86 0 246 -96q16 -9 41.5 -41.5t27.5 -48.5zM605 1853q-15 -30 -50 -77q-37 -31 -62 -38l-101 -28q-25 -7 -50.5 12.5t-25.5 45.5q0 29 43 99
q37 60 65 90q16 18 32 25l191 64l187 -144q15 30 50 77q36 30 62 38l91 28q3 1 9 1q27 0 52 -17.5t25 -43.5q0 -15 -29 -72q-33 -66 -79 -115q-16 -18 -32 -25l-191 -64z" />
    <glyph glyph-name="glyph319" unicode="&#x1ec6;" horiz-adv-x="1256" 
d="M74 107v1300q0 41 73 64q13 4 31 4h883q110 0 141 -131q6 -18 6 -91q-17 -156 -151 -157l-453 -2v-164l451 2q59 0 104 -104q15 -36 14 -84q-5 -178 -172 -179l-397 -2v-174l475 -2q133 -1 127 -227q-2 -68 -36 -112q-38 -48 -103 -48h-915q-47 0 -72 66q-6 16 -6 41z
M968 1755q7 -35 7 -62q0 -91 -15 -112q-32 -45 -72 -45q-177 153 -254 153t-254 -153q-30 0 -61 36q-18 21 -16 130q2 110 73 143q17 16 42 29q144 77 219 77q88 0 258 -101q25 -15 51 -54q20 -30 22 -41zM808 -327q-24 -88 -49 -88h-233q-28 0 -54 67q-7 18 -13 67
q0 73 20 125q22 57 45 57h224q25 0 52 -69q14 -36 14 -106q0 -31 -6 -53z" />
    <glyph glyph-name="glyph320" unicode="&#x1ec7;" horiz-adv-x="1378" 
d="M1329 686q4 -36 4 -53q0 -132 -96 -133l-662 -6v-58q0 -67 29 -104q37 -39 78 -39q68 0 178 109q35 35 187 34q56 0 106 -16q139 -44 139 -119q0 -51 -51 -133q-71 -114 -324 -172q-37 -9 -77 -15q-52 -8 -148 -10q-36 -1 -86 4q-172 16 -281 61q-190 78 -244 274
q-24 87 -24 243q0 38 6 92q40 362 239 463q109 55 298 76q54 6 111 6q93 0 178 -16q170 -32 256 -90q123 -83 160 -228q4 -18 12 -55v-8zM590 742l205 2v39q0 52 -66 75q-15 8 -37 9q-20 1 -39 -9q-63 -20 -63 -69v-47zM1022 1455q7 -30 7 -59q0 -85 -15 -106
q-30 -43 -68 -43q-169 145 -241 145q-73 0 -242 -145q-29 0 -58 34q-17 20 -15 124q2 105 70 135q18 17 39 28q135 73 208 73q86 0 246 -96q16 -9 41.5 -41.5t27.5 -48.5zM862 -367q-24 -88 -49 -88h-233q-28 0 -54 67q-8 21 -13 67q0 73 20 125q22 57 45 57h224
q25 0 52 -69q14 -36 14 -106q0 -31 -6 -53z" />
    <glyph glyph-name="glyph321" unicode="&#x1ec8;" horiz-adv-x="678" 
d="M74 78v1300q0 50 112 95q65 26 172 24q54 -1 103 -16q143 -44 143 -103v-1292q0 -53 -147 -94q-25 -7 -84 -13q-70 0 -90 2q-49 5 -88 17q-121 38 -121 80zM491 1749q-13 -6 -38 -23q-8 -12 -8 -28v-62q-67 -40 -105 -40q-39 0 -108 40v84q0 31 35 70q5 6 20 19l22 16
l6 4q37 25 38 49q1 28 -24 37q-6 3 -16 3q-22 0 -28 -17q-5 -22 -23 -59q-13 -14 -41 -18q-15 -2 -54 -2q-98 0 -98 67q0 12 1 23q1 2 5 21q30 82 143 104q48 9 100 10q21 0 42 -1q78 -5 106 -14q107 -35 107 -136q0 -18 -1 -23q-9 -91 -81 -124z" />
    <glyph glyph-name="glyph322" unicode="&#x1ec9;" horiz-adv-x="717" 
d="M641 107q0 -52 -82 -92q-71 -35 -168 -42q-53 -4 -76 -4q-94 -1 -149 31q-92 53 -92 109l2 965q0 47 172 96q9 3 67 15q16 2 54 2q77 1 135 -21q139 -52 139 -86zM503 1496q-13 -6 -38 -23q-8 -12 -8 -28v-62q-67 -40 -105 -40q-39 0 -108 40v84q0 32 35 70q3 3 20 19
l22 16l6 4q37 25 38 49q1 28 -24 37q-6 3 -16 3q-22 0 -28 -17q-5 -22 -23 -59q-13 -14 -41 -18q-15 -2 -54 -2q-98 0 -98 67q0 12 1 23q1 2 5 21q30 82 143 104q48 9 100 10q21 0 42 -1q78 -5 106 -14q107 -35 107 -136q0 -18 -1 -23q-9 -91 -81 -124z" />
    <glyph glyph-name="glyph323" unicode="&#x1eca;" horiz-adv-x="678" 
d="M74 78v1300q0 50 112 95q65 26 172 24q54 -1 103 -16q143 -44 143 -103v-1292q0 -53 -147 -94q-25 -7 -84 -13q-70 0 -90 2q-49 5 -88 17q-121 38 -121 80zM514 -366q-24 -88 -49 -88h-233q-28 0 -54 67q-8 21 -13 67q0 73 20 125q22 57 45 57h224q25 0 52 -69
q14 -36 14 -106q0 -31 -6 -53z" />
    <glyph glyph-name="glyph324" unicode="&#x1ecb;" horiz-adv-x="717" 
d="M525 -367q-24 -88 -49 -88h-233q-28 0 -54 67q-8 21 -13 67q0 73 20 125q22 57 45 57h224q25 0 52 -69q14 -36 14 -106q0 -31 -6 -53zM643 1165h-567v242q0 47 172 96q9 3 67 15q16 2 54 2q77 1 135 -21q139 -52 139 -86v-248zM74 109v983h567v-985q0 -52 -82 -92
q-71 -35 -168 -42q-53 -4 -76 -4q-94 -1 -149 31q-92 53 -92 109z" />
    <glyph glyph-name="glyph325" unicode="&#x1ecc;" horiz-adv-x="1428" 
d="M78 455q-4 49 -4 88v393q0 35 4 86q22 278 194 394q146 100 441 102q120 1 231 -25q270 -63 349 -229q45 -95 57 -242q4 -49 4 -86v-393q0 -43 -4 -88q-25 -283 -184 -385q-170 -109 -453 -109q-282 0 -454 110q-158 101 -181 384zM604 389q0 -100 107 -100
q110 0 110 100v701q0 102 -110 100q-107 -2 -107 -100v-701zM887 -365q-24 -88 -49 -88h-233q-28 0 -54 67q-7 18 -13 67q0 73 20 125q22 57 45 57h224q25 0 52 -69q14 -36 14 -106q0 -31 -6 -53z" />
    <glyph glyph-name="glyph326" unicode="&#x1ecd;" horiz-adv-x="1364" 
d="M66 367q-6 34 -6 67v291q0 30 6 66q24 141 78 217q58 81 184 139q83 38 213 43l102 4h39q9 0 28.5 1t29.5 1q210 -2 305 -47q118 -56 177 -143q53 -79 77 -215q6 -34 6 -66v-291q0 -60 -22 -141q-54 -200 -244 -283q-82 -36 -310 -45l-47 -2q-35 0 -47 2q-106 4 -157 9
q-92 9 -152 36q-122 54 -182 140q-53 78 -78 217zM600 402q0 -72 64 -84h37q63 10 63 84v356q0 69 -63 84h-37q-64 -12 -64 -84v-356zM850 -367q-24 -88 -49 -88h-233q-28 0 -54 67q-7 18 -13 67q0 73 20 125q22 57 45 57h224q25 0 52 -69q14 -36 14 -106q0 -31 -6 -53z" />
    <glyph glyph-name="glyph327" unicode="&#x1ece;" horiz-adv-x="1428" 
d="M78 455q-4 49 -4 88v393q0 35 4 86q22 278 194 394q146 100 441 102q120 1 231 -25q270 -63 349 -229q45 -95 57 -242q4 -49 4 -86v-393q0 -43 -4 -88q-25 -283 -184 -385q-170 -109 -453 -109q-282 0 -454 110q-158 101 -181 384zM604 389q0 -100 107 -100
q110 0 110 100v701q0 102 -110 100q-107 -2 -107 -100v-701zM868 1759q-13 -6 -38 -23q-8 -12 -8 -28v-62q-67 -40 -105 -40q-39 0 -108 40v84q0 31 35 70q5 6 20 19l22 16l6 4q37 25 38 49q1 28 -24 37q-6 3 -16 3q-22 0 -28 -17q-5 -22 -23 -59q-13 -14 -41 -18
q-15 -2 -54 -2q-98 0 -98 67q0 12 1 23q1 1 5 21q30 82 143 104q48 9 100 10q21 0 42 -1q78 -5 106 -14q107 -35 107 -136q0 -18 -1 -23q-9 -91 -81 -124z" />
    <glyph glyph-name="glyph328" unicode="&#x1ecf;" horiz-adv-x="1364" 
d="M66 367q-6 34 -6 67v291q0 30 6 66q24 141 78 217q58 81 184 139q83 38 213 43l102 4h39q9 0 28.5 1t29.5 1q210 -2 305 -47q118 -56 177 -143q53 -79 77 -215q6 -34 6 -66v-291q0 -60 -22 -141q-54 -200 -244 -283q-82 -36 -310 -45l-47 -2q-35 0 -47 2q-106 4 -157 9
q-92 9 -152 36q-122 54 -182 140q-53 78 -78 217zM600 402q0 -72 64 -84h37q63 10 63 84v356q0 69 -63 84h-37q-64 -12 -64 -84v-356zM860 1496q-13 -6 -38 -23q-8 -12 -8 -28v-62q-67 -40 -105 -40q-39 0 -108 40v84q0 31 35 70q5 6 20 19l22 16l6 4q37 25 38 49
q1 28 -24 37q-6 3 -16 3q-22 0 -28 -17q-5 -22 -23 -59q-13 -14 -41 -18q-15 -2 -54 -2q-98 0 -98 67q0 12 1 23q1 2 5 21q30 82 143 104q48 9 100 10q21 0 42 -1q78 -5 106 -14q107 -35 107 -136q0 -18 -1 -23q-9 -91 -81 -124z" />
    <glyph glyph-name="glyph329" unicode="&#x1ed0;" horiz-adv-x="1428" 
d="M78 455q-4 49 -4 88v393q0 35 4 86q22 278 194 394q146 100 441 102q120 1 231 -25q270 -63 349 -229q45 -95 57 -242q4 -49 4 -86v-393q0 -43 -4 -88q-25 -283 -184 -385q-170 -109 -453 -109q-282 0 -454 110q-158 101 -181 384zM604 389q0 -100 107 -100
q110 0 110 100v701q0 102 -110 100q-107 -2 -107 -100v-701zM1048 1795q7 -35 7 -62q0 -91 -15 -112q-32 -45 -72 -45q-177 153 -254 153t-254 -153q-30 0 -61 36q-18 21 -16 130q2 110 73 143q17 16 42 29q144 77 219 77q88 0 258 -101q25 -15 51 -54q20 -30 22 -41z
M1470 2101l-112 -117l-263 -254l1 74l45 128q-15 1 -15 78l164 201q40 11 69 11q26 0 43 -9q68 -34 68 -112z" />
    <glyph glyph-name="glyph330" unicode="&#x1ed1;" horiz-adv-x="1364" 
d="M66 367q-6 34 -6 67v291q0 30 6 66q24 141 78 217q58 81 184 139q83 38 213 43l102 4h39q9 0 28.5 1t29.5 1q210 -2 305 -47q118 -56 177 -143q53 -79 77 -215q6 -34 6 -66v-291q0 -60 -22 -141q-54 -200 -244 -283q-82 -36 -310 -45l-47 -2q-35 0 -47 2q-106 4 -157 9
q-92 9 -152 36q-122 54 -182 140q-53 78 -78 217zM600 402q0 -72 64 -84h37q63 10 63 84v356q0 69 -63 84h-37q-64 -12 -64 -84v-356zM1025 1455q7 -30 7 -59q0 -85 -15 -106q-30 -43 -68 -43q-169 145 -241 145q-73 0 -242 -145q-29 0 -58 34q-17 20 -15 124q2 105 70 135
q18 17 39 28q135 73 208 73q86 0 246 -96q16 -9 41.5 -41.5t27.5 -48.5zM1463 1763l-112 -117l-263 -254l1 74l45 128q-15 1 -15 78l164 201q40 11 69 11q26 0 43 -9q68 -34 68 -112z" />
    <glyph glyph-name="glyph331" unicode="&#x1ed2;" horiz-adv-x="1428" 
d="M78 455q-4 49 -4 88v393q0 35 4 86q22 278 194 394q146 100 441 102q120 1 231 -25q270 -63 349 -229q45 -95 57 -242q4 -49 4 -86v-393q0 -43 -4 -88q-25 -283 -184 -385q-170 -109 -453 -109q-282 0 -454 110q-158 101 -181 384zM604 389q0 -100 107 -100
q110 0 110 100v701q0 102 -110 100q-107 -2 -107 -100v-701zM1048 1755q7 -35 7 -62q0 -91 -15 -112q-32 -45 -72 -45q-177 153 -254 153t-254 -153q-30 0 -61 36q-18 21 -16 130q2 110 73 143q17 16 42 29q144 77 219 77q88 0 258 -101q25 -15 51 -54q20 -30 22 -41z
M344 1688l-263 254l-112 117q0 78 68 112q17 9 43 9q29 0 69 -11l164 -201q0 -76 -15 -78l45 -128z" />
    <glyph glyph-name="glyph332" unicode="&#x1ed3;" horiz-adv-x="1364" 
d="M66 367q-6 34 -6 67v291q0 30 6 66q24 141 78 217q58 81 184 139q83 38 213 43l102 4h39q9 0 28.5 1t29.5 1q210 -2 305 -47q118 -56 177 -143q53 -79 77 -215q6 -34 6 -66v-291q0 -60 -22 -141q-54 -200 -244 -283q-82 -36 -310 -45l-47 -2q-35 0 -47 2q-106 4 -157 9
q-92 9 -152 36q-122 54 -182 140q-53 78 -78 217zM600 402q0 -72 64 -84h37q63 10 63 84v356q0 69 -63 84h-37q-64 -12 -64 -84v-356zM1022 1455q7 -30 7 -59q0 -85 -15 -106q-30 -43 -68 -43q-169 145 -241 145q-73 0 -242 -145q-29 0 -58 34q-17 20 -15 124q2 105 70 135
q18 17 39 28q135 73 208 73q86 0 246 -96q16 -9 41.5 -41.5t27.5 -48.5zM334 1390l-263 254l-112 117q0 78 68 112q17 9 43 9q29 0 69 -11l164 -201q0 -77 -15 -78l45 -128z" />
    <glyph glyph-name="glyph333" unicode="&#x1ed4;" horiz-adv-x="1428" 
d="M78 455q-4 49 -4 88v393q0 35 4 86q22 278 194 394q146 100 441 102q120 1 231 -25q270 -63 349 -229q45 -95 57 -242q4 -49 4 -86v-393q0 -43 -4 -88q-25 -283 -184 -385q-170 -109 -453 -109q-282 0 -454 110q-158 101 -181 384zM604 389q0 -100 107 -100
q110 0 110 100v701q0 102 -110 100q-107 -2 -107 -100v-701zM1049 1755q7 -35 7 -62q0 -91 -15 -112q-32 -45 -72 -45q-177 153 -254 153t-254 -153q-30 0 -61 36q-18 21 -16 130q2 110 73 143q17 16 42 29q144 77 219 77q88 0 258 -101q25 -15 51 -54q20 -30 22 -41z
M1358 1909q-13 -6 -38 -23q-8 -12 -8 -28v-62q-67 -40 -105 -40q-39 0 -108 40v84q0 32 35 70q3 3 20 19l22 16l6 4q37 25 38 49q1 28 -24 37q-6 3 -16 3q-22 0 -28 -17q-5 -22 -23 -59q-13 -14 -41 -18q-15 -2 -54 -2q-98 0 -98 67q0 12 1 23q1 2 5 21q30 82 143 104
q48 9 100 10q21 0 42 -1q78 -5 106 -14q107 -35 107 -136q0 -18 -1 -23q-9 -91 -81 -124z" />
    <glyph glyph-name="glyph334" unicode="&#x1ed5;" horiz-adv-x="1364" 
d="M66 367q-6 34 -6 67v291q0 30 6 66q24 141 78 217q58 81 184 139q83 38 213 43l102 4h39q9 0 28.5 1t29.5 1q210 -2 305 -47q118 -56 177 -143q53 -79 77 -215q6 -34 6 -66v-291q0 -60 -22 -141q-54 -200 -244 -283q-82 -36 -310 -45l-47 -2q-35 0 -47 2q-106 4 -157 9
q-92 9 -152 36q-122 54 -182 140q-53 78 -78 217zM600 402q0 -72 64 -84h37q63 10 63 84v356q0 69 -63 84h-37q-64 -12 -64 -84v-356zM1025 1457q7 -30 7 -59q0 -85 -15 -106q-30 -43 -68 -43q-169 145 -241 145q-73 0 -242 -145q-29 0 -58 34q-17 20 -15 124q2 105 70 135
q18 17 39 28q135 73 208 73q86 0 246 -96q16 -9 41.5 -41.5t27.5 -48.5zM1350 1613q-13 -6 -38 -23q-8 -12 -8 -28v-62q-67 -40 -105 -40q-39 0 -108 40v84q0 32 35 70q3 3 20 19l22 16l6 4q37 25 38 49q1 28 -24 37q-6 3 -16 3q-22 0 -28 -17q-5 -22 -23 -59
q-13 -14 -41 -18q-15 -2 -54 -2q-98 0 -98 67q0 12 1 23q1 2 5 21q30 82 143 104q48 9 100 10q21 0 42 -1q78 -5 106 -14q107 -35 107 -136q0 -18 -1 -23q-9 -91 -81 -124z" />
    <glyph glyph-name="glyph335" unicode="&#x1ed6;" horiz-adv-x="1428" 
d="M78 455q-4 49 -4 88v393q0 35 4 86q22 278 194 394q146 100 441 102q120 1 231 -25q270 -63 349 -229q45 -95 57 -242q4 -49 4 -86v-393q0 -43 -4 -88q-25 -283 -184 -385q-170 -109 -453 -109q-282 0 -454 110q-158 101 -181 384zM604 389q0 -100 107 -100
q110 0 110 100v701q0 102 -110 100q-107 -2 -107 -100v-701zM1049 1755q7 -35 7 -62q0 -91 -15 -112q-32 -45 -72 -45q-177 153 -254 153t-254 -153q-30 0 -61 36q-18 21 -16 130q2 110 73 143q17 16 42 29q144 77 219 77q88 0 258 -101q25 -15 51 -54q20 -30 22 -41z
M612 2150q-15 -30 -50 -77q-37 -31 -62 -38l-101 -28q-25 -7 -50.5 12.5t-25.5 45.5q0 29 43 99q37 60 65 90q16 18 32 25l191 64l187 -144q15 30 50 77q36 30 62 38l91 28q3 1 9 1q27 0 52 -17.5t25 -43.5q0 -15 -29 -72q-33 -66 -79 -115q-16 -18 -32 -25l-191 -64z" />
    <glyph glyph-name="glyph336" unicode="&#x1ed7;" horiz-adv-x="1364" 
d="M66 367q-6 34 -6 67v291q0 30 6 66q24 141 78 217q58 81 184 139q83 38 213 43l102 4h39q9 0 28.5 1t29.5 1q210 -2 305 -47q118 -56 177 -143q53 -79 77 -215q6 -34 6 -66v-291q0 -60 -22 -141q-54 -200 -244 -283q-82 -36 -310 -45l-47 -2q-35 0 -47 2q-106 4 -157 9
q-92 9 -152 36q-122 54 -182 140q-53 78 -78 217zM600 402q0 -72 64 -84h37q63 10 63 84v356q0 69 -63 84h-37q-64 -12 -64 -84v-356zM1026 1456q7 -30 7 -59q0 -85 -15 -106q-30 -43 -68 -43q-169 145 -241 145q-73 0 -242 -145q-29 0 -58 34q-17 20 -15 124q2 105 70 135
q18 17 39 28q135 73 208 73q86 0 246 -96q16 -9 41.5 -41.5t27.5 -48.5zM605 1853q-15 -30 -50 -77q-37 -31 -62 -38l-101 -28q-25 -7 -50.5 12.5t-25.5 45.5q0 29 43 99q37 60 65 90q16 18 32 25l191 64l187 -144q15 30 50 77q36 30 62 38l91 28q3 1 9 1q27 0 52 -17.5
t25 -43.5q0 -15 -29 -72q-33 -66 -79 -115q-16 -18 -32 -25l-191 -64z" />
    <glyph glyph-name="glyph337" unicode="&#x1ed8;" horiz-adv-x="1428" 
d="M78 455q-4 49 -4 88v393q0 35 4 86q22 278 194 394q146 100 441 102q120 1 231 -25q270 -63 349 -229q45 -95 57 -242q4 -49 4 -86v-393q0 -43 -4 -88q-25 -283 -184 -385q-170 -109 -453 -109q-282 0 -454 110q-158 101 -181 384zM604 389q0 -100 107 -100
q110 0 110 100v701q0 102 -110 100q-107 -2 -107 -100v-701zM1048 1795q7 -35 7 -62q0 -91 -15 -112q-32 -45 -72 -45q-177 153 -254 153t-254 -153q-30 0 -61 36q-18 21 -16 130q2 110 73 143q17 16 42 29q144 77 219 77q88 0 258 -101q25 -15 51 -54q20 -30 22 -41z
M887 -365q-24 -88 -49 -88h-233q-28 0 -54 67q-7 18 -13 67q0 73 20 125q22 57 45 57h224q25 0 52 -69q14 -36 14 -106q0 -31 -6 -53z" />
    <glyph glyph-name="glyph338" unicode="&#x1ed9;" horiz-adv-x="1364" 
d="M66 367q-6 34 -6 67v291q0 30 6 66q24 141 78 217q58 81 184 139q83 38 213 43l102 4h39q9 0 28.5 1t29.5 1q210 -2 305 -47q118 -56 177 -143q53 -79 77 -215q6 -34 6 -66v-291q0 -60 -22 -141q-54 -200 -244 -283q-82 -36 -310 -45l-47 -2q-35 0 -47 2q-106 4 -157 9
q-92 9 -152 36q-122 54 -182 140q-53 78 -78 217zM600 402q0 -72 64 -84h37q63 10 63 84v356q0 69 -63 84h-37q-64 -12 -64 -84v-356zM1022 1455q7 -30 7 -59q0 -85 -15 -106q-30 -43 -68 -43q-169 145 -241 145q-73 0 -242 -145q-29 0 -58 34q-17 20 -15 124q2 105 70 135
q18 17 39 28q135 73 208 73q86 0 246 -96q16 -9 41.5 -41.5t27.5 -48.5zM850 -367q-24 -88 -49 -88h-233q-28 0 -54 67q-7 18 -13 67q0 73 20 125q22 57 45 57h224q25 0 52 -69q14 -36 14 -106q0 -31 -6 -53z" />
    <glyph glyph-name="glyph339" unicode="&#x1eda;" horiz-adv-x="1428" 
d="M604 389q0 -100 107 -100q110 0 110 100v701q0 102 -110 100q-107 -2 -107 -100v-701zM1159 1412q-3 14 1 37l28 155q5 29 93 32q47 2 91 -18q63 -29 61 -51l-34 -185l-129 -77q14 -23 23 -41q45 -97 57 -242q4 -49 4 -86v-393q0 -43 -4 -88q-25 -283 -184 -385
q-170 -109 -453 -109q-282 0 -454 110q-158 101 -181 384q-4 49 -4 88v393q0 35 4 86q22 278 194 394q146 100 441 102q121 1 231 -25q137 -32 215 -81zM1090 1990l-112 -117l-263 -254l1 74l45 128q-15 1 -15 78l164 201q40 11 69 11q26 0 43 -9q68 -34 68 -112z" />
    <glyph glyph-name="glyph340" unicode="&#x1edb;" horiz-adv-x="1364" 
d="M600 402q0 -72 64 -84h37q63 10 63 84v356q0 69 -63 84h-37q-64 -12 -64 -84v-356zM1152 1083l45 83q-51 13 -42 65l22 125q4 25 76 26q39 1 75 -15q53 -23 50 -41l-27 -150l-181 -109q97 -91 129 -276q6 -35 6 -66v-291q0 -60 -22 -141q-54 -200 -244 -283
q-82 -36 -310 -45l-47 -2q-35 0 -47 2q-106 4 -157 9q-92 9 -152 36q-122 54 -182 140q-53 78 -78 217q-6 34 -6 67v291q0 30 6 66q24 141 78 217q58 81 184 139q83 38 213 43l102 4h39q9 0 28.5 1t29.5 1q210 -2 305 -47q67 -32 107 -66zM1083 1716l-112 -117l-263 -254
l1 74l45 128q-15 1 -15 78l164 201q40 11 69 11q26 0 43 -9q68 -34 68 -112z" />
    <glyph glyph-name="glyph341" unicode="&#x1edc;" horiz-adv-x="1428" 
d="M604 389q0 -100 107 -100q110 0 110 100v701q0 102 -110 100q-107 -2 -107 -100v-701zM1159 1412q-3 14 1 37l28 155q5 29 93 32q47 2 91 -18q63 -29 61 -51l-34 -185l-129 -77q14 -23 23 -41q45 -97 57 -242q4 -49 4 -86v-393q0 -43 -4 -88q-25 -283 -184 -385
q-170 -109 -453 -109q-282 0 -454 110q-158 101 -181 384q-4 49 -4 88v393q0 35 4 86q22 278 194 394q146 100 441 102q121 1 231 -25q137 -32 215 -81zM716 1616l-263 254l-112 117q0 78 68 112q17 9 43 9q29 0 69 -11l164 -201q0 -76 -15 -78l45 -128z" />
    <glyph glyph-name="glyph342" unicode="&#x1edd;" horiz-adv-x="1364" 
d="M600 402q0 -72 64 -84h37q63 10 63 84v356q0 69 -63 84h-37q-64 -12 -64 -84v-356zM1152 1083l45 83q-51 13 -42 65l22 125q4 25 76 26q39 1 75 -15q53 -23 50 -41l-27 -150l-181 -109q97 -91 129 -276q6 -35 6 -66v-291q0 -60 -22 -141q-54 -200 -244 -283
q-82 -36 -310 -45l-47 -2q-35 0 -47 2q-106 4 -157 9q-92 9 -152 36q-122 54 -182 140q-53 78 -78 217q-6 34 -6 67v291q0 30 6 66q24 141 78 217q58 81 184 139q83 38 213 43l102 4h39q9 0 28.5 1t29.5 1q210 -2 305 -47q67 -32 107 -66zM709 1345l-263 254l-112 117
q0 78 68 112q17 9 43 9q29 0 69 -11l164 -201q0 -77 -15 -78l45 -128z" />
    <glyph glyph-name="glyph343" unicode="&#x1ede;" horiz-adv-x="1428" 
d="M604 389q0 -100 107 -100q110 0 110 100v701q0 102 -110 100q-107 -2 -107 -100v-701zM1159 1412q-3 14 1 37l28 155q5 29 93 32q47 2 91 -18q63 -29 61 -51l-34 -185l-129 -77q14 -23 23 -41q45 -97 57 -242q4 -49 4 -86v-393q0 -43 -4 -88q-25 -283 -184 -385
q-170 -109 -453 -109q-282 0 -454 110q-158 101 -181 384q-4 49 -4 88v393q0 35 4 86q22 278 194 394q146 100 441 102q121 1 231 -25q137 -32 215 -81zM868 1759q-13 -6 -38 -23q-8 -12 -8 -28v-62q-67 -40 -105 -40q-39 0 -108 40v84q0 31 35 70q5 6 20 19l22 16l6 4
q37 25 38 49q1 28 -24 37q-6 3 -16 3q-22 0 -28 -17q-5 -22 -23 -59q-13 -14 -41 -18q-15 -2 -54 -2q-98 0 -98 67q0 12 1 23q1 1 5 21q30 82 143 104q48 9 100 10q21 0 42 -1q78 -5 106 -14q107 -35 107 -136q0 -18 -1 -23q-9 -91 -81 -124z" />
    <glyph glyph-name="glyph344" unicode="&#x1edf;" horiz-adv-x="1364" 
d="M600 402q0 -72 64 -84h37q63 10 63 84v356q0 69 -63 84h-37q-64 -12 -64 -84v-356zM1152 1083l45 83q-51 13 -42 65l22 125q4 25 76 26q39 1 75 -15q53 -23 50 -41l-27 -150l-181 -109q97 -91 129 -276q6 -35 6 -66v-291q0 -60 -22 -141q-54 -200 -244 -283
q-82 -36 -310 -45l-47 -2q-35 0 -47 2q-106 4 -157 9q-92 9 -152 36q-122 54 -182 140q-53 78 -78 217q-6 34 -6 67v291q0 30 6 66q24 141 78 217q58 81 184 139q83 38 213 43l102 4h39q9 0 28.5 1t29.5 1q210 -2 305 -47q67 -32 107 -66zM860 1496q-13 -6 -38 -23
q-8 -12 -8 -28v-62q-67 -40 -105 -40q-39 0 -108 40v84q0 31 35 70q5 6 20 19l22 16l6 4q37 25 38 49q1 28 -24 37q-6 3 -16 3q-22 0 -28 -17q-5 -22 -23 -59q-13 -14 -41 -18q-15 -2 -54 -2q-98 0 -98 67q0 12 1 23q1 2 5 21q30 82 143 104q48 9 100 10q21 0 42 -1
q78 -5 106 -14q107 -35 107 -136q0 -18 -1 -23q-9 -91 -81 -124z" />
    <glyph glyph-name="glyph345" unicode="&#x1ee0;" horiz-adv-x="1428" 
d="M604 389q0 -100 107 -100q110 0 110 100v701q0 102 -110 100q-107 -2 -107 -100v-701zM1159 1412q-3 14 1 37l28 155q5 29 93 32q47 2 91 -18q63 -29 61 -51l-34 -185l-129 -77q14 -23 23 -41q45 -97 57 -242q4 -49 4 -86v-393q0 -43 -4 -88q-25 -283 -184 -385
q-170 -109 -453 -109q-282 0 -454 110q-158 101 -181 384q-4 49 -4 88v393q0 35 4 86q22 278 194 394q146 100 441 102q121 1 231 -25q137 -32 215 -81zM607 1758q-15 -30 -50 -77q-37 -31 -62 -38l-101 -28q-25 -7 -50.5 12.5t-25.5 45.5q0 29 43 99q37 60 65 90
q16 18 32 25l191 64l187 -144q15 30 50 77q36 30 62 38l91 28q3 1 9 1q27 0 52 -17.5t25 -43.5q0 -15 -29 -72q-33 -66 -79 -115q-16 -18 -32 -25l-191 -64z" />
    <glyph glyph-name="glyph346" unicode="&#x1ee1;" horiz-adv-x="1364" 
d="M600 402q0 -72 64 -84h37q63 10 63 84v356q0 69 -63 84h-37q-64 -12 -64 -84v-356zM1152 1083l45 83q-51 13 -42 65l22 125q4 25 76 26q39 1 75 -15q53 -23 50 -41l-27 -150l-181 -109q97 -91 129 -276q6 -35 6 -66v-291q0 -60 -22 -141q-54 -200 -244 -283
q-82 -36 -310 -45l-47 -2q-35 0 -47 2q-106 4 -157 9q-92 9 -152 36q-122 54 -182 140q-53 78 -78 217q-6 34 -6 67v291q0 30 6 66q24 141 78 217q58 81 184 139q83 38 213 43l102 4h39q9 0 28.5 1t29.5 1q210 -2 305 -47q67 -32 107 -66zM605 1488q-15 -30 -50 -77
q-37 -31 -62 -38l-101 -28q-25 -7 -50.5 12.5t-25.5 45.5q0 29 43 99q37 60 65 90q16 18 32 25l191 64l187 -144q15 30 50 77q36 30 62 38l91 28q3 1 9 1q27 0 52 -17.5t25 -43.5q0 -15 -29 -72q-33 -66 -79 -115q-16 -18 -32 -25l-191 -64z" />
    <glyph glyph-name="glyph347" unicode="&#x1ee2;" horiz-adv-x="1428" 
d="M604 389q0 -100 107 -100q110 0 110 100v701q0 102 -110 100q-107 -2 -107 -100v-701zM1159 1412q-3 14 1 37l28 155q5 29 93 32q47 2 91 -18q63 -29 61 -51l-34 -185l-129 -77q14 -23 23 -41q45 -97 57 -242q4 -49 4 -86v-393q0 -43 -4 -88q-25 -283 -184 -385
q-170 -109 -453 -109q-282 0 -454 110q-158 101 -181 384q-4 49 -4 88v393q0 35 4 86q22 278 194 394q146 100 441 102q121 1 231 -25q137 -32 215 -81zM887 -365q-24 -88 -49 -88h-233q-28 0 -54 67q-7 18 -13 67q0 73 20 125q22 57 45 57h224q25 0 52 -69q14 -36 14 -106
q0 -31 -6 -53z" />
    <glyph glyph-name="glyph348" unicode="&#x1ee3;" horiz-adv-x="1364" 
d="M600 402q0 -72 64 -84h37q63 10 63 84v356q0 69 -63 84h-37q-64 -12 -64 -84v-356zM1152 1083l45 83q-51 13 -42 65l22 125q4 25 76 26q39 1 75 -15q53 -23 50 -41l-27 -150l-181 -109q97 -91 129 -276q6 -35 6 -66v-291q0 -60 -22 -141q-54 -200 -244 -283
q-82 -36 -310 -45l-47 -2q-35 0 -47 2q-106 4 -157 9q-92 9 -152 36q-122 54 -182 140q-53 78 -78 217q-6 34 -6 67v291q0 30 6 66q24 141 78 217q58 81 184 139q83 38 213 43l102 4h39q9 0 28.5 1t29.5 1q210 -2 305 -47q67 -32 107 -66zM850 -367q-24 -88 -49 -88h-233
q-28 0 -54 67q-7 18 -13 67q0 73 20 125q22 57 45 57h224q25 0 52 -69q14 -36 14 -106q0 -31 -6 -53z" />
    <glyph glyph-name="glyph349" unicode="&#x1ee4;" horiz-adv-x="1417" 
d="M78 371l-4 57v940q0 84 197 117q14 1 41 5q5 0 9 1h7q115 0 178 -29q99 -45 99 -98v-987q0 -25 16 -51q30 -36 74 -37q27 -1 65 18q53 26 53 80v983q0 51 127 99q9 3 88 20q51 5 88 4q41 -1 86 -14q142 -41 142 -144v-913q0 -42 -4 -74q-14 -111 -65 -192
q-90 -143 -376 -187q-68 -11 -141 -12q-78 -2 -147 4q-364 29 -464 189q-60 96 -69 221zM877 -365q-24 -88 -49 -88h-233q-28 0 -54 67q-7 18 -13 67q0 73 20 125q22 57 45 57h224q25 0 52 -69q14 -36 14 -106q0 -31 -6 -53z" />
    <glyph glyph-name="glyph350" unicode="&#x1ee5;" horiz-adv-x="1409" 
d="M74 324l2 67v670q0 63 135 107q52 17 117 18q70 1 104 -4q79 -12 115 -31q80 -43 80 -80v-643q0 -57 73 -57q72 0 72 53v637q0 70 174 115q60 9 121 10q91 1 164 -33q104 -49 104 -82v-987q0 -49 -108 -92q-63 -25 -146 -25q-11 0 -73 4q-76 5 -117 21q-111 44 -111 96
v62q-5 -7 -26 -27q-156 -150 -324 -150q-171 0 -276 133q-51 64 -70 148q-5 20 -10 70zM872 -367q-24 -88 -49 -88h-233q-28 0 -54 67q-8 21 -13 67q0 73 20 125q22 57 45 57h224q25 0 52 -69q14 -36 14 -106q0 -31 -6 -53z" />
    <glyph glyph-name="glyph351" unicode="&#x1ee6;" horiz-adv-x="1417" 
d="M78 371l-4 57v940q0 84 197 117q14 1 41 5q5 0 9 1h7q115 0 178 -29q99 -45 99 -98v-987q0 -25 16 -51q30 -36 74 -37q27 -1 65 18q53 26 53 80v983q0 51 127 99q9 3 88 20q51 5 88 4q41 -1 86 -14q142 -41 142 -144v-913q0 -42 -4 -74q-14 -111 -65 -192
q-90 -143 -376 -187q-68 -11 -141 -12q-78 -2 -147 4q-364 29 -464 189q-60 96 -69 221zM858 1719q-13 -6 -38 -23q-8 -12 -8 -28v-62q-67 -40 -105 -40q-39 0 -108 40v84q0 31 35 70q5 6 20 19l22 16l6 4q37 25 38 49q1 28 -24 37q-6 3 -16 3q-22 0 -28 -17q-5 -22 -23 -59
q-13 -14 -41 -18q-15 -2 -54 -2q-98 0 -98 67q0 12 1 23q1 2 5 21q30 82 143 104q48 9 100 10q21 0 42 -1q78 -5 106 -14q107 -35 107 -136q0 -18 -1 -23q-9 -91 -81 -124z" />
    <glyph glyph-name="glyph352" unicode="&#x1ee7;" horiz-adv-x="1409" 
d="M74 324l2 67v670q0 63 135 107q52 17 117 18q70 1 104 -4q79 -12 115 -31q80 -43 80 -80v-643q0 -57 73 -57q72 0 72 53v637q0 70 174 115q60 9 121 10q91 1 164 -33q104 -49 104 -82v-987q0 -49 -108 -92q-63 -25 -146 -25q-11 0 -73 4q-76 5 -117 21q-111 44 -111 96
v62q-5 -7 -26 -27q-156 -150 -324 -150q-171 0 -276 133q-51 64 -70 148q-5 20 -10 70zM851 1426q-13 -6 -38 -23q-8 -12 -8 -28v-62q-67 -40 -105 -40q-39 0 -108 40v84q0 32 35 70q3 3 20 19l22 16l6 4q37 25 38 49q1 28 -24 37q-6 3 -16 3q-22 0 -28 -17q-5 -22 -23 -59
q-13 -14 -41 -18q-15 -2 -54 -2q-98 0 -98 67q0 12 1 23q1 1 5 21q30 82 143 104q48 9 100 10q21 0 42 -1q78 -5 106 -14q107 -35 107 -136q0 -18 -1 -23q-9 -91 -81 -124z" />
    <glyph glyph-name="glyph353" unicode="&#x1ee8;" horiz-adv-x="1417" 
d="M1344 1296v-874q0 -42 -4 -74q-14 -111 -65 -192q-90 -143 -376 -187q-68 -11 -141 -12q-78 -2 -147 4q-364 29 -464 189q-54 86 -69 221q-4 35 -4 57v940q0 84 197 117q14 1 41 5q5 0 9 1h7q115 0 178 -29q99 -45 99 -98v-987q0 -25 16 -51q30 -36 74 -37q27 -1 65 18
q53 26 53 80v983q0 51 127 99q9 3 88 20q51 5 88 4q70 -2 136 -31l26 142q5 29 93 32q47 2 91 -18q63 -29 61 -51l-34 -185zM1080 1950l-112 -117l-263 -254l1 74l45 128q-15 1 -15 78l164 201q40 11 69 11q26 0 43 -9q68 -34 68 -112z" />
    <glyph glyph-name="glyph354" unicode="&#x1ee9;" horiz-adv-x="1409" 
d="M1335 1064v-980q0 -49 -108 -92q-63 -25 -146 -25q-11 0 -73 4q-76 5 -117 21q-111 44 -111 96v62q-5 -7 -26 -27q-156 -150 -324 -150q-171 0 -276 133q-51 64 -70 148q-5 20 -10 70l2 67v670q0 63 135 107q52 17 117 18q70 1 104 -4q79 -12 115 -31q80 -43 80 -80v-643
q0 -57 73 -57q72 0 72 53v637q0 70 174 115q60 9 121 10q92 1 164 -33q82 -39 99 -65l42 78q-51 13 -42 65l22 125q4 25 76 26q39 1 75 -15q53 -23 50 -41l-27 -150l-190 -114zM1074 1646l-112 -117l-263 -254l1 74l45 128q-15 1 -15 78l164 201q40 11 69 11q26 0 43 -9
q68 -34 68 -112z" />
    <glyph glyph-name="glyph355" unicode="&#x1eea;" horiz-adv-x="1417" 
d="M1344 1296v-874q0 -42 -4 -74q-14 -111 -65 -192q-90 -143 -376 -187q-68 -11 -141 -12q-78 -2 -147 4q-364 29 -464 189q-54 86 -69 221q-4 35 -4 57v940q0 84 197 117q14 1 41 5q5 0 9 1h7q115 0 178 -29q99 -45 99 -98v-987q0 -25 16 -51q30 -36 74 -37q27 -1 65 18
q53 26 53 80v983q0 51 127 99q9 3 88 20q51 5 88 4q70 -2 136 -31l26 142q5 29 93 32q47 2 91 -18q63 -29 61 -51l-34 -185zM706 1576l-263 254l-112 117q0 78 68 112q17 9 43 9q29 0 69 -11l164 -201q0 -76 -15 -78l45 -128z" />
    <glyph glyph-name="glyph356" unicode="&#x1eeb;" horiz-adv-x="1409" 
d="M1335 1064v-980q0 -49 -108 -92q-63 -25 -146 -25q-11 0 -73 4q-76 5 -117 21q-111 44 -111 96v62q-5 -7 -26 -27q-156 -150 -324 -150q-171 0 -276 133q-51 64 -70 148q-5 20 -10 70l2 67v670q0 63 135 107q52 17 117 18q70 1 104 -4q79 -12 115 -31q80 -43 80 -80v-643
q0 -57 73 -57q72 0 72 53v637q0 70 174 115q60 9 121 10q92 1 164 -33q82 -39 99 -65l42 78q-51 13 -42 65l22 125q4 25 76 26q39 1 75 -15q53 -23 50 -41l-27 -150l-190 -114zM700 1275l-263 254l-112 117q0 78 68 112q17 9 43 9q29 0 69 -11l164 -201q0 -76 -15 -78
l45 -128z" />
    <glyph glyph-name="glyph357" unicode="&#x1eec;" horiz-adv-x="1417" 
d="M1344 1296v-874q0 -42 -4 -74q-14 -111 -65 -192q-90 -143 -376 -187q-68 -11 -141 -12q-78 -2 -147 4q-364 29 -464 189q-54 86 -69 221q-4 35 -4 57v940q0 84 197 117q14 1 41 5q5 0 9 1h7q115 0 178 -29q99 -45 99 -98v-987q0 -25 16 -51q30 -36 74 -37q27 -1 65 18
q53 26 53 80v983q0 51 127 99q9 3 88 20q51 5 88 4q70 -2 136 -31l26 142q5 29 93 32q47 2 91 -18q63 -29 61 -51l-34 -185zM858 1719q-13 -6 -38 -23q-8 -12 -8 -28v-62q-67 -40 -105 -40q-39 0 -108 40v84q0 31 35 70q5 6 20 19l22 16l6 4q37 25 38 49q1 28 -24 37
q-6 3 -16 3q-22 0 -28 -17q-5 -22 -23 -59q-13 -14 -41 -18q-15 -2 -54 -2q-98 0 -98 67q0 12 1 23q1 2 5 21q30 82 143 104q48 9 100 10q21 0 42 -1q78 -5 106 -14q107 -35 107 -136q0 -18 -1 -23q-9 -91 -81 -124z" />
    <glyph glyph-name="glyph358" unicode="&#x1eed;" horiz-adv-x="1409" 
d="M1335 1064v-980q0 -49 -108 -92q-63 -25 -146 -25q-11 0 -73 4q-76 5 -117 21q-111 44 -111 96v62q-5 -7 -26 -27q-156 -150 -324 -150q-171 0 -276 133q-51 64 -70 148q-5 20 -10 70l2 67v670q0 63 135 107q52 17 117 18q70 1 104 -4q79 -12 115 -31q80 -43 80 -80v-643
q0 -57 73 -57q72 0 72 53v637q0 70 174 115q60 9 121 10q92 1 164 -33q82 -39 99 -65l42 78q-51 13 -42 65l22 125q4 25 76 26q39 1 75 -15q53 -23 50 -41l-27 -150l-190 -114zM851 1426q-13 -6 -38 -23q-8 -12 -8 -28v-62q-67 -40 -105 -40q-39 0 -108 40v84q0 32 35 70
q3 3 20 19l22 16l6 4q37 25 38 49q1 28 -24 37q-6 3 -16 3q-22 0 -28 -17q-5 -22 -23 -59q-13 -14 -41 -18q-15 -2 -54 -2q-98 0 -98 67q0 12 1 23q1 1 5 21q30 82 143 104q48 9 100 10q21 0 42 -1q78 -5 106 -14q107 -35 107 -136q0 -18 -1 -23q-9 -91 -81 -124z" />
    <glyph glyph-name="glyph359" unicode="&#x1eee;" horiz-adv-x="1417" 
d="M1344 1296v-874q0 -42 -4 -74q-14 -111 -65 -192q-90 -143 -376 -187q-68 -11 -141 -12q-78 -2 -147 4q-364 29 -464 189q-54 86 -69 221q-4 35 -4 57v940q0 84 197 117q14 1 41 5q5 0 9 1h7q115 0 178 -29q99 -45 99 -98v-987q0 -25 16 -51q30 -36 74 -37q27 -1 65 18
q53 26 53 80v983q0 51 127 99q9 3 88 20q51 5 88 4q70 -2 136 -31l26 142q5 29 93 32q47 2 91 -18q63 -29 61 -51l-34 -185zM597 1738q-15 -30 -50 -77q-37 -31 -62 -38l-101 -28q-25 -7 -50.5 12.5t-25.5 45.5q0 29 43 99q37 60 65 90q16 18 32 25l191 64l187 -144
q15 30 50 77q36 30 62 38l91 28q3 1 9 1q27 0 52 -17.5t25 -43.5q0 -15 -29 -72q-33 -66 -79 -115q-16 -18 -32 -25l-191 -64z" />
    <glyph glyph-name="glyph360" unicode="&#x1eef;" horiz-adv-x="1409" 
d="M1335 1064v-980q0 -49 -108 -92q-63 -25 -146 -25q-11 0 -73 4q-76 5 -117 21q-111 44 -111 96v62q-5 -7 -26 -27q-156 -150 -324 -150q-171 0 -276 133q-51 64 -70 148q-5 20 -10 70l2 67v670q0 63 135 107q52 17 117 18q70 1 104 -4q79 -12 115 -31q80 -43 80 -80v-643
q0 -57 73 -57q72 0 72 53v637q0 70 174 115q60 9 121 10q92 1 164 -33q82 -39 99 -65l42 78q-51 13 -42 65l22 125q4 25 76 26q39 1 75 -15q53 -23 50 -41l-27 -150l-190 -114zM596 1448q-15 -30 -50 -77q-37 -31 -62 -38l-101 -28q-25 -7 -50.5 12.5t-25.5 45.5q0 29 43 99
q37 60 65 90q16 18 32 25l191 64l187 -144q15 30 50 77q36 30 62 38l91 28q3 1 9 1q27 0 52 -17.5t25 -43.5q0 -15 -29 -72q-33 -66 -79 -115q-16 -18 -32 -25l-191 -64z" />
    <glyph glyph-name="glyph361" unicode="&#x1ef0;" horiz-adv-x="1417" 
d="M1344 1296v-874q0 -42 -4 -74q-14 -111 -65 -192q-90 -143 -376 -187q-68 -11 -141 -12q-78 -2 -147 4q-364 29 -464 189q-54 86 -69 221q-4 35 -4 57v940q0 84 197 117q14 1 41 5q5 0 9 1h7q115 0 178 -29q99 -45 99 -98v-987q0 -25 16 -51q30 -36 74 -37q27 -1 65 18
q53 26 53 80v983q0 51 127 99q9 3 88 20q51 5 88 4q70 -2 136 -31l26 142q5 29 93 32q47 2 91 -18q63 -29 61 -51l-34 -185zM877 -365q-24 -88 -49 -88h-233q-28 0 -54 67q-7 18 -13 67q0 73 20 125q22 57 45 57h224q25 0 52 -69q14 -36 14 -106q0 -31 -6 -53z" />
    <glyph glyph-name="glyph362" unicode="&#x1ef1;" horiz-adv-x="1409" 
d="M1335 1064v-980q0 -49 -108 -92q-63 -25 -146 -25q-11 0 -73 4q-76 5 -117 21q-111 44 -111 96v62q-5 -7 -26 -27q-156 -150 -324 -150q-171 0 -276 133q-51 64 -70 148q-5 20 -10 70l2 67v670q0 63 135 107q52 17 117 18q70 1 104 -4q79 -12 115 -31q80 -43 80 -80v-643
q0 -57 73 -57q72 0 72 53v637q0 70 174 115q60 9 121 10q92 1 164 -33q82 -39 99 -65l42 78q-51 13 -42 65l22 125q4 25 76 26q39 1 75 -15q53 -23 50 -41l-27 -150l-190 -114zM872 -367q-24 -88 -49 -88h-233q-28 0 -54 67q-8 21 -13 67q0 73 20 125q22 57 45 57h224
q25 0 52 -69q14 -36 14 -106q0 -31 -6 -53z" />
    <glyph glyph-name="glyph363" unicode="&#x1ef2;" horiz-adv-x="1272" 
d="M354 514l-369 828q-2 7 -4 18q0 57 122 107q34 14 108 24q87 0 102 -2q186 -25 211 -102l121 -377l127 393q15 46 160 82q37 9 98 8q60 -1 105 -14q155 -44 155 -105q0 -5 -4 -14l-362 -825v-436q0 -14 -51 -56q-75 -62 -191 -64q-34 -1 -123 8q-64 6 -110 26
q-95 41 -95 98v403zM645 1556l-263 254l-112 117q0 78 68 112q17 9 43 9q29 0 69 -11l164 -201q0 -76 -15 -78l45 -128z" />
    <glyph glyph-name="glyph364" unicode="&#x1ef3;" horiz-adv-x="1311" 
d="M383 -8l-398 1042q-2 9 -4 23q0 86 199 129q37 8 88 8q60 0 107 -10q88 -19 118 -33q62 -29 74 -88l97 -477l114 491q8 33 46 56q59 36 129 41q23 7 102 8q108 1 174 -29q96 -44 96 -86l-450 -1161q-12 -32 -31 -62q-123 -199 -322 -211l-67 -4h-51l-78 -4h-41
q-101 0 -143 27q-52 35 -54 129q8 76 55 98q30 14 117 14q40 0 51 -2q80 0 80 66q-3 22 -8 35zM663 1275l-263 254l-112 117q0 78 68 112q17 9 43 9q29 0 69 -11l164 -201q0 -76 -15 -78l45 -128z" />
    <glyph glyph-name="glyph365" unicode="&#x1ef4;" horiz-adv-x="1272" 
d="M354 514l-369 828q-2 7 -4 18q0 57 122 107q34 14 108 24q87 0 102 -2q186 -25 211 -102l121 -377l127 393q15 46 160 82q37 9 98 8q60 -1 105 -14q155 -44 155 -105q0 -5 -4 -14l-362 -825v-436q0 -14 -51 -56q-75 -62 -191 -64q-34 -1 -123 8q-64 6 -110 26
q-95 41 -95 98v403zM811 -365q-24 -88 -49 -88h-233q-28 0 -54 67q-7 18 -13 67q0 73 20 125q22 57 45 57h224q25 0 52 -69q14 -36 14 -106q0 -31 -6 -53z" />
    <glyph glyph-name="glyph366" unicode="&#x1ef5;" horiz-adv-x="1311" 
d="M383 -8l-398 1042q-2 9 -4 23q0 86 199 129q37 8 88 8q60 0 107 -10q88 -19 118 -33q62 -29 74 -88l97 -477l114 491q8 33 46 56q59 36 129 41q23 7 102 8q108 1 174 -29q96 -44 96 -86l-450 -1161q-12 -32 -31 -62q-123 -199 -322 -211l-67 -4h-51l-78 -4h-41
q-101 0 -143 27q-52 35 -54 129q8 76 55 98q30 14 117 14q40 0 51 -2q80 0 80 66q-3 22 -8 35zM1252 -367q-24 -88 -49 -88h-233q-28 0 -54 67q-7 18 -13 67q0 73 20 125q22 57 45 57h224q25 0 52 -69q14 -36 14 -106q0 -31 -6 -53z" />
    <glyph glyph-name="glyph367" unicode="&#x1ef6;" horiz-adv-x="1272" 
d="M354 514l-369 828q-2 7 -4 18q0 57 122 107q34 14 108 24q87 0 102 -2q186 -25 211 -102l121 -377l127 393q15 46 160 82q37 9 98 8q60 -1 105 -14q155 -44 155 -105q0 -5 -4 -14l-362 -825v-436q0 -14 -51 -56q-75 -62 -191 -64q-34 -1 -123 8q-64 6 -110 26
q-95 41 -95 98v403zM797 1699q-13 -6 -38 -23q-8 -12 -8 -28v-62q-67 -40 -105 -40q-39 0 -108 40v84q0 31 35 70q5 6 20 19l22 16l6 4q37 25 38 49q1 28 -24 37q-6 3 -16 3q-22 0 -28 -17q-5 -22 -23 -59q-13 -14 -41 -18q-15 -2 -54 -2q-98 0 -98 67q0 12 1 23q1 2 5 21
q30 82 143 104q48 9 100 10q21 0 42 -1q78 -5 106 -14q107 -35 107 -136q0 -18 -1 -23q-9 -91 -81 -124z" />
    <glyph glyph-name="glyph368" unicode="&#x1ef7;" horiz-adv-x="1311" 
d="M383 -8l-398 1042q-2 9 -4 23q0 86 199 129q37 8 88 8q60 0 107 -10q88 -19 118 -33q62 -29 74 -88l97 -477l114 491q8 33 46 56q59 36 129 41q23 7 102 8q108 1 174 -29q96 -44 96 -86l-450 -1161q-12 -32 -31 -62q-123 -199 -322 -211l-67 -4h-51l-78 -4h-41
q-101 0 -143 27q-52 35 -54 129q8 76 55 98q30 14 117 14q40 0 51 -2q80 0 80 66q-3 22 -8 35zM815 1426q-13 -6 -38 -23q-8 -12 -8 -28v-62q-67 -40 -105 -40q-39 0 -108 40v84q0 32 35 70q3 3 20 19l22 16l6 4q37 25 38 49q1 28 -24 37q-6 3 -16 3q-22 0 -28 -17
q-5 -22 -23 -59q-13 -14 -41 -18q-15 -2 -54 -2q-98 0 -98 67q0 12 1 23q1 2 5 21q30 82 143 104q48 9 100 10q21 0 42 -1q78 -5 106 -14q107 -35 107 -136q0 -18 -1 -23q-9 -91 -81 -124z" />
    <glyph glyph-name="glyph369" unicode="&#x1ef8;" horiz-adv-x="1272" 
d="M354 514l-369 828q-2 7 -4 18q0 57 122 107q34 14 108 24q87 0 102 -2q186 -25 211 -102l121 -377l127 393q15 46 160 82q37 9 98 8q60 -1 105 -14q155 -44 155 -105q0 -5 -4 -14l-362 -825v-436q0 -14 -51 -56q-75 -62 -191 -64q-34 -1 -123 8q-64 6 -110 26
q-95 41 -95 98v403zM544 1720q-15 -30 -50 -77q-37 -31 -62 -38l-101 -28q-25 -7 -50.5 12.5t-25.5 45.5q0 29 43 99q37 60 65 90q16 18 32 25l191 64l187 -144q15 30 50 77q36 30 62 38l91 28q3 1 9 1q27 0 52 -17.5t25 -43.5q0 -15 -29 -72q-33 -66 -79 -115
q-16 -18 -32 -25l-191 -64z" />
    <glyph glyph-name="glyph370" unicode="&#x1ef9;" horiz-adv-x="1311" 
d="M383 -8l-398 1042q-2 9 -4 23q0 86 199 129q37 8 88 8q60 0 107 -10q88 -19 118 -33q62 -29 74 -88l97 -477l114 491q8 33 46 56q59 36 129 41q23 7 102 8q108 1 174 -29q96 -44 96 -86l-450 -1161q-12 -32 -31 -62q-123 -199 -322 -211l-67 -4h-51l-78 -4h-41
q-101 0 -143 27q-52 35 -54 129q8 76 55 98q30 14 117 14q40 0 51 -2q80 0 80 66q-3 22 -8 35zM560 1448q-15 -30 -50 -77q-37 -31 -62 -38l-101 -28q-25 -7 -50.5 12.5t-25.5 45.5q0 29 43 99q37 60 65 90q16 18 32 25l191 64l187 -144q15 30 50 77q36 30 62 38l91 28
q3 1 9 1q27 0 52 -17.5t25 -43.5q0 -15 -29 -72q-33 -66 -79 -115q-16 -18 -32 -25l-191 -64z" />
    <glyph glyph-name="endash" unicode="&#x2013;" horiz-adv-x="1256" 
d="M74 107v1300q0 41 73 64q13 4 31 4h883q110 0 141 -131q6 -18 6 -91q-17 -156 -151 -157l-453 -2v-164l451 2q59 0 104 -104q15 -36 14 -84q-5 -178 -172 -179l-397 -2v-174l475 -2q133 -1 127 -227q-2 -68 -36 -112q-38 -48 -103 -48h-915q-47 0 -72 66q-6 16 -6 41z
M1010 1980l-112 -117l-263 -254l1 74l45 128q-15 1 -15 78l164 201q40 11 69 11q26 0 43 -9q68 -34 68 -112z" />
    <glyph glyph-name="emdash" unicode="&#x2014;" horiz-adv-x="1256" 
d="M74 107v1300q0 41 73 64q13 4 31 4h883q110 0 141 -131q6 -18 6 -91q-17 -156 -151 -157l-453 -2v-164l451 2q59 0 104 -104q15 -36 14 -84q-5 -178 -172 -179l-397 -2v-174l475 -2q133 -1 127 -227q-2 -68 -36 -112q-38 -48 -103 -48h-915q-47 0 -72 66q-6 16 -6 41z
M808 -327q-24 -88 -49 -88h-233q-28 0 -54 67q-7 18 -13 67q0 73 20 125q22 57 45 57h224q25 0 52 -69q14 -36 14 -106q0 -31 -6 -53z" />
    <glyph glyph-name="quoteleft" unicode="&#x2018;" horiz-adv-x="1378" 
d="M1329 686q4 -36 4 -53q0 -132 -96 -133l-662 -6v-58q0 -67 29 -104q37 -39 78 -39q68 0 178 109q35 35 187 34q56 0 106 -16q139 -44 139 -119q0 -51 -51 -133q-71 -114 -324 -172q-37 -9 -77 -15q-52 -8 -148 -10q-36 -1 -86 4q-172 16 -281 61q-190 78 -244 274
q-24 87 -24 243q0 38 6 92q40 362 239 463q109 55 298 76q54 6 111 6q93 0 178 -16q170 -32 256 -90q123 -83 160 -228q4 -18 12 -55v-8zM590 742l205 2v39q0 52 -66 75q-15 8 -37 9q-20 1 -39 -9q-63 -20 -63 -69v-47zM1026 1456q7 -30 7 -59q0 -85 -15 -106
q-30 -43 -68 -43q-169 145 -241 145q-73 0 -242 -145q-29 0 -58 34q-17 20 -15 124q2 105 70 135q18 17 39 28q135 73 208 73q86 0 246 -96q16 -9 41.5 -41.5t27.5 -48.5zM605 1853q-15 -30 -50 -77q-37 -31 -62 -38l-101 -28q-25 -7 -50.5 12.5t-25.5 45.5q0 29 43 99
q37 60 65 90q16 18 32 25l191 64l187 -144q15 30 50 77q36 30 62 38l91 28q3 1 9 1q27 0 52 -17.5t25 -43.5q0 -15 -29 -72q-33 -66 -79 -115q-16 -18 -32 -25l-191 -64z" />
    <glyph glyph-name="quoteright" unicode="&#x2019;" horiz-adv-x="1378" 
d="M1329 686q4 -36 4 -53q0 -132 -96 -133l-662 -6v-58q0 -67 29 -104q37 -39 78 -39q68 0 178 109q35 35 187 34q56 0 106 -16q139 -44 139 -119q0 -51 -51 -133q-71 -114 -324 -172q-37 -9 -77 -15q-52 -8 -148 -10q-36 -1 -86 4q-172 16 -281 61q-190 78 -244 274
q-24 87 -24 243q0 38 6 92q40 362 239 463q109 55 298 76q54 6 111 6q93 0 178 -16q170 -32 256 -90q123 -83 160 -228q4 -18 12 -55v-8zM590 742l205 2v39q0 52 -66 75q-15 8 -37 9q-20 1 -39 -9q-63 -20 -63 -69v-47zM1025 1455q7 -30 7 -59q0 -85 -15 -106
q-30 -43 -68 -43q-169 145 -241 145q-73 0 -242 -145q-29 0 -58 34q-17 20 -15 124q2 105 70 135q18 17 39 28q135 73 208 73q86 0 246 -96q16 -9 41.5 -41.5t27.5 -48.5zM1463 1763l-112 -117l-263 -254l1 74l45 128q-15 1 -15 78l164 201q40 11 69 11q26 0 43 -9
q68 -34 68 -112z" />
    <glyph glyph-name="quotesinglbase" unicode="&#x201a;" horiz-adv-x="1364" 
d="M66 367q-6 34 -6 67v291q0 30 6 66q24 141 78 217q58 81 184 139q83 38 213 43l102 4h39q9 0 28.5 1t29.5 1q210 -2 305 -47q118 -56 177 -143q53 -79 77 -215q6 -34 6 -66v-291q0 -60 -22 -141q-54 -200 -244 -283q-82 -36 -310 -45l-47 -2q-35 0 -47 2q-106 4 -157 9
q-92 9 -152 36q-122 54 -182 140q-53 78 -78 217zM600 402q0 -72 64 -84h37q63 10 63 84v356q0 69 -63 84h-37q-64 -12 -64 -84v-356zM605 1488q-15 -30 -50 -77q-37 -31 -62 -38l-101 -28q-25 -7 -50.5 12.5t-25.5 45.5q0 29 43 99q37 60 65 90q16 18 32 25l191 64
l187 -144q15 30 50 77q36 30 62 38l91 28q3 1 9 1q27 0 52 -17.5t25 -43.5q0 -15 -29 -72q-33 -66 -79 -115q-16 -18 -32 -25l-191 -64z" />
    <glyph glyph-name="quotedblleft" unicode="&#x201c;" horiz-adv-x="1378" 
d="M1329 686q4 -36 4 -53q0 -132 -96 -133l-662 -6v-58q0 -67 29 -104q37 -39 78 -39q68 0 178 109q35 35 187 34q56 0 106 -16q139 -44 139 -119q0 -51 -51 -133q-71 -114 -324 -172q-37 -9 -77 -15q-52 -8 -148 -10q-36 -1 -86 4q-172 16 -281 61q-190 78 -244 274
q-24 87 -24 243q0 38 6 92q40 362 239 463q109 55 298 76q54 6 111 6q93 0 178 -16q170 -32 256 -90q123 -83 160 -228q4 -18 12 -55v-8zM590 742l205 2v39q0 52 -66 75q-15 8 -37 9q-20 1 -39 -9q-63 -20 -63 -69v-47zM1022 1455q7 -30 7 -59q0 -85 -15 -106
q-30 -43 -68 -43q-169 145 -241 145q-73 0 -242 -145q-29 0 -58 34q-17 20 -15 124q2 105 70 135q18 17 39 28q135 73 208 73q86 0 246 -96q16 -9 41.5 -41.5t27.5 -48.5zM334 1390l-263 254l-112 117q0 78 68 112q17 9 43 9q29 0 69 -11l164 -201q0 -77 -15 -78l45 -128z
" />
    <glyph glyph-name="quotedblright" unicode="&#x201d;" horiz-adv-x="1378" 
d="M1329 686q4 -36 4 -53q0 -132 -96 -133l-662 -6v-58q0 -67 29 -104q37 -39 78 -39q68 0 178 109q35 35 187 34q56 0 106 -16q139 -44 139 -119q0 -51 -51 -133q-71 -114 -324 -172q-37 -9 -77 -15q-52 -8 -148 -10q-36 -1 -86 4q-172 16 -281 61q-190 78 -244 274
q-24 87 -24 243q0 38 6 92q40 362 239 463q109 55 298 76q54 6 111 6q93 0 178 -16q170 -32 256 -90q123 -83 160 -228q4 -18 12 -55v-8zM590 742l205 2v39q0 52 -66 75q-15 8 -37 9q-20 1 -39 -9q-63 -20 -63 -69v-47zM1025 1457q7 -30 7 -59q0 -85 -15 -106
q-30 -43 -68 -43q-169 145 -241 145q-73 0 -242 -145q-29 0 -58 34q-17 20 -15 124q2 105 70 135q18 17 39 28q135 73 208 73q86 0 246 -96q16 -9 41.5 -41.5t27.5 -48.5zM1350 1613q-13 -6 -38 -23q-8 -12 -8 -28v-62q-67 -40 -105 -40q-39 0 -108 40v84q0 32 35 70
q3 3 20 19l22 16l6 4q37 25 38 49q1 28 -24 37q-6 3 -16 3q-22 0 -28 -17q-5 -22 -23 -59q-13 -14 -41 -18q-15 -2 -54 -2q-98 0 -98 67q0 12 1 23q1 2 5 21q30 82 143 104q48 9 100 10q21 0 42 -1q78 -5 106 -14q107 -35 107 -136q0 -18 -1 -23q-9 -91 -81 -124z" />
    <glyph glyph-name="quotedblbase" unicode="&#x201e;" horiz-adv-x="1364" 
d="M66 367q-6 34 -6 67v291q0 30 6 66q24 141 78 217q58 81 184 139q83 38 213 43l102 4h39q9 0 28.5 1t29.5 1q210 -2 305 -47q118 -56 177 -143q53 -79 77 -215q6 -34 6 -66v-291q0 -60 -22 -141q-54 -200 -244 -283q-82 -36 -310 -45l-47 -2q-35 0 -47 2q-106 4 -157 9
q-92 9 -152 36q-122 54 -182 140q-53 78 -78 217zM600 402q0 -72 64 -84h37q63 10 63 84v356q0 69 -63 84h-37q-64 -12 -64 -84v-356zM1083 1716l-112 -117l-263 -254l1 74l45 128q-15 1 -15 78l164 201q40 11 69 11q26 0 43 -9q68 -34 68 -112z" />
    <glyph glyph-name="dagger" unicode="&#x2020;" horiz-adv-x="1335" 
d="M1239 889q15 -54 15 -160l2 -583q0 -146 -162 -167q-56 -7 -117 -8q-91 -1 -140.5 32t-86.5 118q-4 15 -13 35q-67 -141 -256 -179q-30 -6 -65 -6q-22 0 -49 4q-313 47 -312 394q0 184 139 273q116 75 312 75h43q87 0 110 4q68 12 83 59q0 71 -45 89q-20 8 -52 10
q-39 -2 -62 -13q-18 -9 -104 -65q-44 -29 -110 -43q-38 -8 -62 -8q-81 0 -128 54t-46 136q1 94 133 174q109 66 383 78l52 2q37 0 49 -2q291 -12 406 -141q56 -63 83 -162zM746 547q-13 -4 -43 -14q-132 -53 -154 -111q-6 -16 -6 -29q0 -31 24.5 -53.5t55.5 -23.5
q122 -2 125 213q0 9 -2 18zM965 1455q7 -30 7 -59q0 -85 -15 -106q-30 -43 -68 -43q-169 145 -241 145q-73 0 -242 -145q-29 0 -58 34q-17 20 -15 124q2 105 70 135q18 17 39 28q135 73 208 73q86 0 246 -96q16 -9 41.5 -41.5t27.5 -48.5zM1403 1763l-112 -117l-263 -254
l1 74l45 128q-15 1 -15 78l164 201q40 11 69 11q26 0 43 -9q68 -34 68 -112z" />
    <glyph glyph-name="daggerdbl" unicode="&#x2021;" horiz-adv-x="1428" 
d="M78 455q-4 49 -4 88v393q0 35 4 86q22 278 194 394q146 100 441 102q120 1 231 -25q270 -63 349 -229q45 -95 57 -242q4 -49 4 -86v-393q0 -43 -4 -88q-25 -283 -184 -385q-170 -109 -453 -109q-282 0 -454 110q-158 101 -181 384zM604 389q0 -100 107 -100
q110 0 110 100v701q0 102 -110 100q-107 -2 -107 -100v-701zM1049 1755q7 -35 7 -62q0 -91 -15 -112q-32 -45 -72 -45q-177 153 -254 153t-254 -153q-30 0 -61 36q-18 21 -16 130q2 110 73 143q17 16 42 29q144 77 219 77q88 0 258 -101q25 -15 51 -54q20 -30 22 -41z
M1358 1909q-13 -6 -38 -23q-8 -12 -8 -28v-62q-67 -40 -105 -40q-39 0 -108 40v84q0 32 35 70q3 3 20 19l22 16l6 4q37 25 38 49q1 28 -24 37q-6 3 -16 3q-22 0 -28 -17q-5 -22 -23 -59q-13 -14 -41 -18q-15 -2 -54 -2q-98 0 -98 67q0 12 1 23q1 2 5 21q30 82 143 104
q48 9 100 10q21 0 42 -1q78 -5 106 -14q107 -35 107 -136q0 -18 -1 -23q-9 -91 -81 -124z" />
    <glyph glyph-name="bullet" unicode="&#x2022;" horiz-adv-x="1428" 
d="M604 389q0 -100 107 -100q110 0 110 100v701q0 102 -110 100q-107 -2 -107 -100v-701zM1159 1412q-3 14 1 37l28 155q5 29 93 32q47 2 91 -18q63 -29 61 -51l-34 -185l-129 -77q14 -23 23 -41q45 -97 57 -242q4 -49 4 -86v-393q0 -43 -4 -88q-25 -283 -184 -385
q-170 -109 -453 -109q-282 0 -454 110q-158 101 -181 384q-4 49 -4 88v393q0 35 4 86q22 278 194 394q146 100 441 102q121 1 231 -25q137 -32 215 -81z" />
    <glyph glyph-name="ellipsis" unicode="&#x2026;" horiz-adv-x="1335" 
d="M1239 889q15 -54 15 -160l2 -583q0 -146 -162 -167q-56 -7 -117 -8q-91 -1 -140.5 32t-86.5 118q-4 15 -13 35q-67 -141 -256 -179q-30 -6 -65 -6q-22 0 -49 4q-313 47 -312 394q0 184 139 273q116 75 312 75h43q87 0 110 4q68 12 83 59q0 71 -45 89q-20 8 -52 10
q-39 -2 -62 -13q-18 -9 -104 -65q-44 -29 -110 -43q-38 -8 -62 -8q-81 0 -128 54t-46 136q1 94 133 174q109 66 383 78l52 2q37 0 49 -2q291 -12 406 -141q56 -63 83 -162zM746 547q-13 -4 -43 -14q-132 -53 -154 -111q-6 -16 -6 -29q0 -31 24.5 -53.5t55.5 -23.5
q122 -2 125 213q0 9 -2 18zM966 1456q7 -30 7 -59q0 -85 -15 -106q-30 -43 -68 -43q-169 145 -241 145q-73 0 -242 -145q-29 0 -58 34q-17 20 -15 124q2 105 70 135q18 17 39 28q135 73 208 73q86 0 246 -96q16 -9 41.5 -41.5t27.5 -48.5zM545 1853q-15 -30 -50 -77
q-37 -31 -62 -38l-101 -28q-25 -7 -50.5 12.5t-25.5 45.5q0 29 43 99q37 60 65 90q16 18 32 25l191 64l187 -144q15 30 50 77q36 30 62 38l91 28q3 1 9 1q27 0 52 -17.5t25 -43.5q0 -15 -29 -72q-33 -66 -79 -115q-16 -18 -32 -25l-191 -64z" />
    <glyph glyph-name="perthousand" unicode="&#x2030;" horiz-adv-x="1364" 
d="M66 367q-6 34 -6 67v291q0 30 6 66q24 141 78 217q58 81 184 139q83 38 213 43l102 4h39q9 0 28.5 1t29.5 1q210 -2 305 -47q118 -56 177 -143q53 -79 77 -215q6 -34 6 -66v-291q0 -60 -22 -141q-54 -200 -244 -283q-82 -36 -310 -45l-47 -2q-35 0 -47 2q-106 4 -157 9
q-92 9 -152 36q-122 54 -182 140q-53 78 -78 217zM600 402q0 -72 64 -84h37q63 10 63 84v356q0 69 -63 84h-37q-64 -12 -64 -84v-356zM850 -367q-24 -88 -49 -88h-233q-28 0 -54 67q-7 18 -13 67q0 73 20 125q22 57 45 57h224q25 0 52 -69q14 -36 14 -106q0 -31 -6 -53z" />
    <glyph glyph-name="guilsinglleft" unicode="&#x2039;" horiz-adv-x="717" 
d="M641 107q0 -52 -82 -92q-71 -35 -168 -42q-53 -4 -76 -4q-94 -1 -149 31q-92 53 -92 109l2 965q0 47 172 96q9 3 67 15q16 2 54 2q77 1 135 -21q139 -52 139 -86zM248 1488q-15 -30 -50 -77q-37 -31 -62 -38l-101 -28q-25 -7 -50.5 12.5t-25.5 45.5q0 29 43 99
q37 60 65 90q16 18 32 25l191 64l187 -144q15 30 50 77q36 30 62 38l91 28q3 1 9 1q27 0 52 -17.5t25 -43.5q0 -15 -29 -72q-33 -66 -79 -115q-16 -18 -32 -25l-191 -64z" />
    <glyph glyph-name="guilsinglright" unicode="&#x203a;" horiz-adv-x="717" 
d="M641 107q0 -52 -82 -92q-71 -35 -168 -42q-53 -4 -76 -4q-94 -1 -149 31q-92 53 -92 109l2 965q0 47 172 96q9 3 67 15q16 2 54 2q77 1 135 -21q139 -52 139 -86zM726 1716l-112 -117l-263 -254l1 74l45 128q-15 1 -15 78l164 201q40 11 69 11q26 0 43 -9q68 -34 68 -112
z" />
    <glyph glyph-name="fraction" unicode="&#x2044;" horiz-adv-x="1256" 
d="M74 107v1300q0 41 73 64q13 4 31 4h883q110 0 141 -131q6 -18 6 -91q-17 -156 -151 -157l-453 -2v-164l451 2q59 0 104 -104q15 -36 14 -84q-5 -178 -172 -179l-397 -2v-174l475 -2q133 -1 127 -227q-2 -68 -36 -112q-38 -48 -103 -48h-915q-47 0 -72 66q-6 16 -6 41z
M968 1755q7 -35 7 -62q0 -91 -15 -112q-32 -45 -72 -45q-177 153 -254 153t-254 -153q-30 0 -61 36q-18 21 -16 130q2 110 73 143q17 16 42 29q144 77 219 77q88 0 258 -101q25 -15 51 -54q20 -30 22 -41zM1390 2061l-112 -117l-263 -254l1 74l45 128q-15 1 -15 78l164 201
q40 11 69 11q26 0 43 -9q68 -34 68 -112z" />
    <glyph glyph-name="franc" unicode="&#x20a3;" horiz-adv-x="1035" 
d="M74 107v1288q0 80 96 80h876q128 0 158 -146q4 -20 4 -34q0 -10 -4 -37q-26 -177 -129 -178l-471 -3v-141l428 4q73 1 115 -98q14 -33 14 -72q0 -37 -10 -74q-35 -131 -107 -131h-440v-452q0 -67 -151 -115q-13 -4 -43 -13q-42 -7 -88 -8q-75 -1 -144 29
q-104 46 -104 101zM797 15q-71 45 -71 88v946q0 76 133 121q49 16 121 18q65 1 100 -6q89 -19 127 -43q59 -38 59 -111v-88q3 5 11 15.5t22 29.5q62 79 83 103q60 67 101 84q48 20 101 20q89 0 147 -60q55 -57 62 -147q2 -30 2 -57q-1 -83 -21 -136q-29 -77 -205 -114
q-9 -2 -32 -6l-117 -16q-23 -7 -47 -21q-94 -56 -94 -129v-414q0 -39 -99 -84q-11 -3 -32 -12q-65 -20 -121 -19q-174 2 -230 38z" />
    <glyph glyph-name="u20AB" unicode="&#x20ab;" horiz-adv-x="393" 
d="M197 501q-48 0 -84 -88q-20 -49 -20 -90q0 -51 39 -51q41 0 74 71q28 60 28 107q0 51 -37 51zM200 267q-53 -62 -106 -62q-91 0 -91 102q0 80 55 153q59 78 136 78q34 0 61 -24l20 75h-100l10 36h100l2 16q0 31 -48 32l7 33q67 2 128 14q6 1 15 3q6 0 6 -9q0 -1 -3 -12
l-19 -77h65l-10 -36h-65l-69 -280q-5 -20 -5 -27q0 -15 12 -15q6 0 49 42l20 -18q-70 -86 -117 -86q-43 0 -53 62zM9 160h221v-56h-221v56z" />
    <glyph glyph-name="trademark" unicode="&#x2122;" horiz-adv-x="1378" 
d="M1329 686q4 -36 4 -53q0 -132 -96 -133l-662 -6v-58q0 -67 29 -104q37 -39 78 -39q68 0 178 109q35 35 187 34q56 0 106 -16q139 -44 139 -119q0 -51 -51 -133q-71 -114 -324 -172q-37 -9 -77 -15q-52 -8 -148 -10q-36 -1 -86 4q-172 16 -281 61q-190 78 -244 274
q-24 87 -24 243q0 38 6 92q40 362 239 463q109 55 298 76q54 6 111 6q93 0 178 -16q170 -32 256 -90q123 -83 160 -228q4 -18 12 -55v-8zM590 742l205 2v39q0 52 -66 75q-15 8 -37 9q-20 1 -39 -9q-63 -20 -63 -69v-47zM1022 1455q7 -30 7 -59q0 -85 -15 -106
q-30 -43 -68 -43q-169 145 -241 145q-73 0 -242 -145q-29 0 -58 34q-17 20 -15 124q2 105 70 135q18 17 39 28q135 73 208 73q86 0 246 -96q16 -9 41.5 -41.5t27.5 -48.5z" />
    <glyph glyph-name="partialdiff" unicode="&#x2202;" horiz-adv-x="1335" 
d="M1239 889q15 -54 15 -160l2 -583q0 -146 -162 -167q-56 -7 -117 -8q-91 -1 -140.5 32t-86.5 118q-4 15 -13 35q-67 -141 -256 -179q-30 -6 -65 -6q-22 0 -49 4q-313 47 -312 394q0 184 139 273q116 75 312 75h43q87 0 110 4q68 12 83 59q0 71 -45 89q-20 8 -52 10
q-39 -2 -62 -13q-18 -9 -104 -65q-44 -29 -110 -43q-38 -8 -62 -8q-81 0 -128 54t-46 136q1 94 133 174q109 66 383 78l52 2q37 0 49 -2q291 -12 406 -141q56 -63 83 -162zM746 547q-13 -4 -43 -14q-132 -53 -154 -111q-6 -16 -6 -29q0 -31 24.5 -53.5t55.5 -23.5
q122 -2 125 213q0 9 -2 18zM800 1496q-13 -6 -38 -23q-8 -12 -8 -28v-62q-67 -40 -105 -40q-39 0 -108 40v84q0 32 35 70q3 3 20 19l22 16l6 4q37 25 38 49q1 28 -24 37q-6 3 -16 3q-22 0 -28 -17q-5 -22 -23 -59q-13 -14 -41 -18q-15 -2 -54 -2q-98 0 -98 67q0 12 1 23
q1 2 5 21q30 82 143 104q48 9 100 10q21 0 42 -1q78 -5 106 -14q107 -35 107 -136q0 -18 -1 -23q-9 -91 -81 -124z" />
    </font>
</defs>
</svg>
